<svg width="606" height="55" viewBox="0 0 606 55" fill="none" xmlns="http://www.w3.org/2000/svg">
<path d="M16.4739 52.25L19.7136 32.78H54.7984L56.6595 21.56H21.5747L22.7465 14.3H58.7273L60.5884 3.14603H9.02961L0.895996 52.25H16.4739ZM97.2586 53.108C128.966 53.108 133.033 37.532 134.411 29.084C134.687 27.236 134.756 25.52 134.756 23.738C134.756 14.894 128.828 2.28802 101.119 2.28802H98.1547C66.6542 2.28802 62.1738 17.732 61.0709 25.784C60.7263 28.16 60.7263 29.81 60.7263 31.328C60.7263 40.106 66.4474 53.108 94.2947 53.108H97.2586ZM96.3625 41.162C80.8535 41.162 77.476 34.628 77.476 29.282C77.476 28.556 77.476 27.896 77.5449 27.038C78.0964 21.428 82.0253 14.168 99.1197 14.168C114.353 14.168 118.213 19.91 118.213 25.322C118.213 26.312 118.213 26.972 118.006 27.962C117.11 33.968 113.25 41.162 96.3625 41.162ZM151.644 52.25L154.539 34.826H174.735C182.73 34.826 184.867 37.796 183.971 43.538L183.075 48.95C182.73 50.996 182.937 51.722 183.213 52.25H199.136L199.204 51.92C198.998 51.128 198.584 49.874 199.136 46.376L200.514 38.126C201.617 31.79 197.412 28.688 192.794 27.302C197.343 26.114 204.098 22.616 204.098 15.026C204.098 8.62403 199.894 3.14603 184.798 3.14603H144.13L135.997 52.25H151.644ZM180.111 23.936H156.262L157.916 14.3H181.559C185.763 14.3 187.28 16.016 187.28 18.59C187.28 21.23 185.35 23.936 180.111 23.936ZM257.518 52.25L259.379 40.832H221.675L223.054 32.78H259.31L261.172 21.56H224.915L226.087 14.3H263.171L265.032 3.14603H212.508L204.374 52.25H257.518ZM279.645 52.25L282.884 32.78H317.969L319.83 21.56H284.745L285.917 14.3H321.898L323.759 3.14603H272.2L264.067 52.25H279.645ZM337.889 52.25L340.784 34.826H360.981C368.976 34.826 371.113 37.796 370.217 43.538L369.321 48.95C368.976 50.996 369.183 51.722 369.459 52.25H385.381L385.45 51.92C385.244 51.128 384.83 49.874 385.381 46.376L386.76 38.126C387.863 31.79 383.658 28.688 379.04 27.302C383.589 26.114 390.344 22.616 390.344 15.026C390.344 8.62403 386.14 3.14603 371.044 3.14603H330.376L322.243 52.25H337.889ZM366.357 23.936H342.508L344.162 14.3H367.805C372.009 14.3 373.526 16.016 373.526 18.59C373.526 21.23 371.596 23.936 366.357 23.936ZM428.807 53.108C460.514 53.108 464.581 37.532 465.959 29.084C466.235 27.236 466.304 25.52 466.304 23.738C466.304 14.894 460.376 2.28802 432.667 2.28802H429.703C398.202 2.28802 393.722 17.732 392.619 25.784C392.274 28.16 392.274 29.81 392.274 31.328C392.274 40.106 397.995 53.108 425.843 53.108H428.807ZM427.911 41.162C412.402 41.162 409.024 34.628 409.024 29.282C409.024 28.556 409.024 27.896 409.093 27.038C409.644 21.428 413.573 14.168 430.668 14.168C445.901 14.168 449.761 19.91 449.761 25.322C449.761 26.312 449.761 26.972 449.554 27.962C448.658 33.968 444.798 41.162 427.911 41.162ZM482.985 52.25L488.43 19.118L516.415 52.25H531.786L539.92 3.14603H524.48L519.31 34.694L493.117 3.14603H475.678L467.545 52.25H482.985ZM574.385 52.25L580.588 14.762H601.749L603.679 3.14603H545.434L543.573 14.762H564.734L558.531 52.25H574.385Z" fill="white"/>
</svg>
