<svg width="1920" height="22" viewBox="0 0 1920 22" fill="none" xmlns="http://www.w3.org/2000/svg">
<path d="M10.5469 2.64551V21H7.76367V2.64551H0.673828V0.360352H17.6367V2.64551H10.5469ZM24.5986 11.4346V21H21.8008V0.360352H24.5986V9.09082H35.7607V0.360352H38.5586V21H35.7607V11.4346H24.5986ZM47.3516 14.9648L44.9785 21H42.0781L50.501 0.360352H53.6797L61.9707 21H59.1143L56.7559 14.9648H47.3516ZM52.0537 2.46973C51.8877 3.0166 51.6875 3.62695 51.4531 4.30078C51.2285 4.96484 51.0186 5.55078 50.8232 6.05859L48.2012 12.7822H55.9209L53.2695 5.9707C53.1328 5.62891 52.9521 5.14551 52.7275 4.52051C52.5029 3.89551 52.2783 3.21191 52.0537 2.46973ZM67.9805 7.28906V21H65.4902V0.360352H68.7422L79.9043 18.0557C79.7871 16.1318 79.7285 14.7451 79.7285 13.8955V0.360352H82.248V21H78.8789L67.834 3.42188C67.8535 4.06641 67.8828 4.71094 67.9219 5.35547C67.9609 6 67.9805 6.64453 67.9805 7.28906ZM90.9678 13.0898V21H88.1699V0.360352H90.9678V10.7021L100.914 0.360352H104.21L95.4209 9.3252L105.382 21H101.91L93.6631 11.0391L90.9678 13.0898ZM126.894 12.4453V21H124.11V12.4453L116.171 0.360352H119.247L125.531 10.1895L131.786 0.360352H134.862L126.894 12.4453ZM158.421 10.585C158.421 12.792 158.001 14.6963 157.161 16.2979C156.331 17.8994 155.149 19.1348 153.616 20.0039C152.083 20.8633 150.267 21.293 148.167 21.293C146.058 21.293 144.236 20.8633 142.703 20.0039C141.18 19.1445 140.003 17.9141 139.173 16.3125C138.353 14.7109 137.942 12.8018 137.942 10.585C137.942 8.37793 138.348 6.49316 139.158 4.93066C139.979 3.3584 141.15 2.15234 142.674 1.3125C144.207 0.472656 146.048 0.0527344 148.196 0.0527344C150.306 0.0527344 152.122 0.467773 153.646 1.29785C155.179 2.12793 156.355 3.3291 157.176 4.90137C158.006 6.46387 158.421 8.3584 158.421 10.585ZM155.564 10.585C155.564 8.0166 154.92 6 153.631 4.53516C152.352 3.07031 150.54 2.33789 148.196 2.33789C145.833 2.33789 144.007 3.06055 142.718 4.50586C141.429 5.95117 140.784 7.97754 140.784 10.585C140.784 12.3037 141.077 13.7979 141.663 15.0674C142.249 16.3271 143.094 17.3037 144.197 17.9971C145.301 18.6807 146.624 19.0225 148.167 19.0225C150.55 19.0225 152.376 18.29 153.646 16.8252C154.925 15.3506 155.564 13.2705 155.564 10.585ZM171.579 21.293C169.89 21.293 168.415 20.9805 167.155 20.3555C165.896 19.7305 164.919 18.8369 164.226 17.6748C163.532 16.5127 163.186 15.1211 163.186 13.5V0.360352H165.983V13.2656C165.983 15.1504 166.462 16.5811 167.419 17.5576C168.376 18.5342 169.758 19.0225 171.564 19.0225C173.42 19.0225 174.86 18.5195 175.886 17.5137C176.921 16.498 177.438 15.0186 177.438 13.0752V0.360352H180.222V13.2363C180.222 14.9062 179.865 16.3418 179.152 17.543C178.449 18.7441 177.448 19.6719 176.149 20.3262C174.86 20.9707 173.337 21.293 171.579 21.293ZM198.159 12.6357V21H195.361V0.360352H210.024V2.64551H198.159V10.3213H209.673V12.6357H198.159ZM217.499 12.4307V21H214.701V0.360352H224.413C226.737 0.360352 228.529 0.882813 229.789 1.92773C231.059 2.96289 231.693 4.4082 231.693 6.26367C231.693 7.79688 231.244 9.08594 230.346 10.1309C229.457 11.1758 228.227 11.835 226.654 12.1084L232.514 21H229.291L223.93 12.4307H217.499ZM228.881 6.29297C228.881 5.0918 228.471 4.17871 227.65 3.55371C226.84 2.91895 225.668 2.60156 224.135 2.60156H217.499V10.2188H224.252C225.727 10.2188 226.864 9.87695 227.665 9.19336C228.476 8.5 228.881 7.5332 228.881 6.29297ZM256.819 10.585C256.819 12.792 256.399 14.6963 255.56 16.2979C254.729 17.8994 253.548 19.1348 252.015 20.0039C250.481 20.8633 248.665 21.293 246.565 21.293C244.456 21.293 242.635 20.8633 241.102 20.0039C239.578 19.1445 238.401 17.9141 237.571 16.3125C236.751 14.7109 236.341 12.8018 236.341 10.585C236.341 8.37793 236.746 6.49316 237.557 4.93066C238.377 3.3584 239.549 2.15234 241.072 1.3125C242.605 0.472656 244.446 0.0527344 246.595 0.0527344C248.704 0.0527344 250.521 0.467773 252.044 1.29785C253.577 2.12793 254.754 3.3291 255.574 4.90137C256.404 6.46387 256.819 8.3584 256.819 10.585ZM253.963 10.585C253.963 8.0166 253.318 6 252.029 4.53516C250.75 3.07031 248.938 2.33789 246.595 2.33789C244.231 2.33789 242.405 3.06055 241.116 4.50586C239.827 5.95117 239.183 7.97754 239.183 10.585C239.183 12.3037 239.476 13.7979 240.062 15.0674C240.647 16.3271 241.492 17.3037 242.596 17.9971C243.699 18.6807 245.022 19.0225 246.565 19.0225C248.948 19.0225 250.774 18.29 252.044 16.8252C253.323 15.3506 253.963 13.2705 253.963 10.585ZM264.221 7.23047V21H261.73V0.360352H265.407L270.9 14.6719C271.096 15.248 271.281 15.8682 271.457 16.5322C271.643 17.1865 271.765 17.6602 271.823 17.9531C271.882 17.6895 271.979 17.3281 272.116 16.8691C272.253 16.4004 272.39 15.9512 272.526 15.5215C272.663 15.0918 272.761 14.8086 272.819 14.6719L278.21 0.360352H281.799V21H279.279V7.23047C279.279 6.46875 279.289 5.72168 279.309 4.98926C279.338 4.25684 279.372 3.53906 279.411 2.83594C279.167 3.70508 278.938 4.48633 278.723 5.17969C278.518 5.86328 278.317 6.44922 278.122 6.9375L272.79 21H270.827L265.422 6.9375L264.118 2.83594C264.138 3.56836 264.157 4.30078 264.177 5.0332C264.206 5.76562 264.221 6.49805 264.221 7.23047ZM298.271 14.9648L295.898 21H292.998L301.421 0.360352H304.6L312.891 21H310.034L307.676 14.9648H298.271ZM302.974 2.46973C302.808 3.0166 302.607 3.62695 302.373 4.30078C302.148 4.96484 301.938 5.55078 301.743 6.05859L299.121 12.7822H306.841L304.189 5.9707C304.053 5.62891 303.872 5.14551 303.647 4.52051C303.423 3.89551 303.198 3.21191 302.974 2.46973ZM329.638 18.7148V21H316.41V0.360352H319.208V18.7148H329.638ZM347.337 18.7148V21H334.109V0.360352H336.907V18.7148H347.337ZM379.483 10.585C379.483 12.792 379.063 14.6963 378.224 16.2979C377.394 17.8994 376.212 19.1348 374.679 20.0039C373.146 20.8633 371.329 21.293 369.229 21.293C367.12 21.293 365.299 20.8633 363.766 20.0039C362.242 19.1445 361.065 17.9141 360.235 16.3125C359.415 14.7109 359.005 12.8018 359.005 10.585C359.005 8.37793 359.41 6.49316 360.221 4.93066C361.041 3.3584 362.213 2.15234 363.736 1.3125C365.27 0.472656 367.11 0.0527344 369.259 0.0527344C371.368 0.0527344 373.185 0.467773 374.708 1.29785C376.241 2.12793 377.418 3.3291 378.238 4.90137C379.068 6.46387 379.483 8.3584 379.483 10.585ZM376.627 10.585C376.627 8.0166 375.982 6 374.693 4.53516C373.414 3.07031 371.603 2.33789 369.259 2.33789C366.896 2.33789 365.069 3.06055 363.78 4.50586C362.491 5.95117 361.847 7.97754 361.847 10.585C361.847 12.3037 362.14 13.7979 362.726 15.0674C363.312 16.3271 364.156 17.3037 365.26 17.9971C366.363 18.6807 367.687 19.0225 369.229 19.0225C371.612 19.0225 373.438 18.29 374.708 16.8252C375.987 15.3506 376.627 13.2705 376.627 10.585ZM387.192 12.6357V21H384.395V0.360352H399.058V2.64551H387.192V10.3213H398.706V12.6357H387.192ZM421.331 21.293C419.642 21.293 418.167 20.9805 416.907 20.3555C415.647 19.7305 414.671 18.8369 413.978 17.6748C413.284 16.5127 412.938 15.1211 412.938 13.5V0.360352H415.735V13.2656C415.735 15.1504 416.214 16.5811 417.171 17.5576C418.128 18.5342 419.51 19.0225 421.316 19.0225C423.172 19.0225 424.612 18.5195 425.638 17.5137C426.673 16.498 427.19 15.0186 427.19 13.0752V0.360352H429.974V13.2363C429.974 14.9062 429.617 16.3418 428.904 17.543C428.201 18.7441 427.2 19.6719 425.901 20.3262C424.612 20.9707 423.089 21.293 421.331 21.293ZM451.936 15.3018C451.936 17.2061 451.188 18.6807 449.694 19.7256C448.21 20.7705 446.115 21.293 443.41 21.293C438.381 21.293 435.466 19.5449 434.665 16.0488L437.375 15.5068C437.688 16.7471 438.352 17.6602 439.367 18.2461C440.383 18.8223 441.765 19.1104 443.513 19.1104C445.319 19.1104 446.711 18.8027 447.688 18.1875C448.674 17.5625 449.167 16.6494 449.167 15.4482C449.167 14.7744 449.011 14.2275 448.698 13.8076C448.396 13.3877 447.966 13.041 447.409 12.7676C446.853 12.4941 446.188 12.2646 445.417 12.0791C444.646 11.8936 443.791 11.6934 442.854 11.4785C441.77 11.2344 440.861 10.9951 440.129 10.7607C439.406 10.5264 438.811 10.2822 438.342 10.0283C437.873 9.76465 437.473 9.48633 437.141 9.19336C436.652 8.74414 436.276 8.22168 436.013 7.62598C435.759 7.03027 435.632 6.34668 435.632 5.5752C435.632 3.80762 436.306 2.44531 437.653 1.48828C439.011 0.53125 440.949 0.0527344 443.469 0.0527344C445.812 0.0527344 447.604 0.414063 448.845 1.13672C450.085 1.84961 450.954 3.07031 451.452 4.79883L448.698 5.28223C448.396 4.18848 447.819 3.39746 446.97 2.90918C446.12 2.41113 444.943 2.16211 443.439 2.16211C441.789 2.16211 440.529 2.43555 439.66 2.98242C438.791 3.5293 438.356 4.34473 438.356 5.42871C438.356 6.06348 438.522 6.59082 438.854 7.01074C439.196 7.4209 439.685 7.76758 440.319 8.05078C440.915 8.33398 442.18 8.69043 444.113 9.12012C444.904 9.30566 445.686 9.50098 446.457 9.70605C447.229 9.90137 447.956 10.1504 448.64 10.4531C449.04 10.6191 449.421 10.8242 449.782 11.0684C450.153 11.3027 450.476 11.5762 450.749 11.8887C451.12 12.2988 451.408 12.7822 451.613 13.3389C451.828 13.8955 451.936 14.5498 451.936 15.3018ZM459.908 17.792V21H457.052V17.792H459.908ZM483.002 2.64551V21H480.219V2.64551H473.129V0.360352H490.092V2.64551H483.002ZM497.054 11.4346V21H494.256V0.360352H497.054V9.09082H508.216V0.360352H511.014V21H508.216V11.4346H497.054ZM519.807 14.9648L517.434 21H514.533L522.956 0.360352H526.135L534.426 21H531.569L529.211 14.9648H519.807ZM524.509 2.46973C524.343 3.0166 524.143 3.62695 523.908 4.30078C523.684 4.96484 523.474 5.55078 523.278 6.05859L520.656 12.7822H528.376L525.725 5.9707C525.588 5.62891 525.407 5.14551 525.183 4.52051C524.958 3.89551 524.733 3.21191 524.509 2.46973ZM540.436 7.28906V21H537.945V0.360352H541.197L552.359 18.0557C552.242 16.1318 552.184 14.7451 552.184 13.8955V0.360352H554.703V21H551.334L540.289 3.42188C540.309 4.06641 540.338 4.71094 540.377 5.35547C540.416 6 540.436 6.64453 540.436 7.28906ZM563.423 13.0898V21H560.625V0.360352H563.423V10.7021L573.369 0.360352H576.665L567.876 9.3252L577.837 21H574.365L566.118 11.0391L563.423 13.0898ZM599.349 12.4453V21H596.565V12.4453L588.626 0.360352H591.702L597.986 10.1895L604.241 0.360352H607.317L599.349 12.4453ZM630.876 10.585C630.876 12.792 630.456 14.6963 629.616 16.2979C628.786 17.8994 627.604 19.1348 626.071 20.0039C624.538 20.8633 622.722 21.293 620.622 21.293C618.513 21.293 616.691 20.8633 615.158 20.0039C613.635 19.1445 612.458 17.9141 611.628 16.3125C610.808 14.7109 610.397 12.8018 610.397 10.585C610.397 8.37793 610.803 6.49316 611.613 4.93066C612.434 3.3584 613.605 2.15234 615.129 1.3125C616.662 0.472656 618.503 0.0527344 620.651 0.0527344C622.761 0.0527344 624.577 0.467773 626.101 1.29785C627.634 2.12793 628.811 3.3291 629.631 4.90137C630.461 6.46387 630.876 8.3584 630.876 10.585ZM628.02 10.585C628.02 8.0166 627.375 6 626.086 4.53516C624.807 3.07031 622.995 2.33789 620.651 2.33789C618.288 2.33789 616.462 3.06055 615.173 4.50586C613.884 5.95117 613.239 7.97754 613.239 10.585C613.239 12.3037 613.532 13.7979 614.118 15.0674C614.704 16.3271 615.549 17.3037 616.652 17.9971C617.756 18.6807 619.079 19.0225 620.622 19.0225C623.005 19.0225 624.831 18.29 626.101 16.8252C627.38 15.3506 628.02 13.2705 628.02 10.585ZM644.034 21.293C642.345 21.293 640.87 20.9805 639.61 20.3555C638.351 19.7305 637.374 18.8369 636.681 17.6748C635.987 16.5127 635.641 15.1211 635.641 13.5V0.360352H638.438V13.2656C638.438 15.1504 638.917 16.5811 639.874 17.5576C640.831 18.5342 642.213 19.0225 644.02 19.0225C645.875 19.0225 647.315 18.5195 648.341 17.5137C649.376 16.498 649.894 15.0186 649.894 13.0752V0.360352H652.677V13.2363C652.677 14.9062 652.32 16.3418 651.607 17.543C650.904 18.7441 649.903 19.6719 648.604 20.3262C647.315 20.9707 645.792 21.293 644.034 21.293ZM670.614 12.6357V21H667.816V0.360352H682.479V2.64551H670.614V10.3213H682.128V12.6357H670.614ZM689.954 12.4307V21H687.156V0.360352H696.868C699.192 0.360352 700.984 0.882813 702.244 1.92773C703.514 2.96289 704.148 4.4082 704.148 6.26367C704.148 7.79688 703.699 9.08594 702.801 10.1309C701.912 11.1758 700.682 11.835 699.109 12.1084L704.969 21H701.746L696.385 12.4307H689.954ZM701.336 6.29297C701.336 5.0918 700.926 4.17871 700.105 3.55371C699.295 2.91895 698.123 2.60156 696.59 2.60156H689.954V10.2188H696.707C698.182 10.2188 699.319 9.87695 700.12 9.19336C700.931 8.5 701.336 7.5332 701.336 6.29297ZM729.274 10.585C729.274 12.792 728.854 14.6963 728.015 16.2979C727.185 17.8994 726.003 19.1348 724.47 20.0039C722.937 20.8633 721.12 21.293 719.021 21.293C716.911 21.293 715.09 20.8633 713.557 20.0039C712.033 19.1445 710.856 17.9141 710.026 16.3125C709.206 14.7109 708.796 12.8018 708.796 10.585C708.796 8.37793 709.201 6.49316 710.012 4.93066C710.832 3.3584 712.004 2.15234 713.527 1.3125C715.061 0.472656 716.901 0.0527344 719.05 0.0527344C721.159 0.0527344 722.976 0.467773 724.499 1.29785C726.032 2.12793 727.209 3.3291 728.029 4.90137C728.859 6.46387 729.274 8.3584 729.274 10.585ZM726.418 10.585C726.418 8.0166 725.773 6 724.484 4.53516C723.205 3.07031 721.394 2.33789 719.05 2.33789C716.687 2.33789 714.86 3.06055 713.571 4.50586C712.282 5.95117 711.638 7.97754 711.638 10.585C711.638 12.3037 711.931 13.7979 712.517 15.0674C713.103 16.3271 713.947 17.3037 715.051 17.9971C716.154 18.6807 717.478 19.0225 719.021 19.0225C721.403 19.0225 723.229 18.29 724.499 16.8252C725.778 15.3506 726.418 13.2705 726.418 10.585ZM736.676 7.23047V21H734.186V0.360352H737.862L743.355 14.6719C743.551 15.248 743.736 15.8682 743.912 16.5322C744.098 17.1865 744.22 17.6602 744.278 17.9531C744.337 17.6895 744.435 17.3281 744.571 16.8691C744.708 16.4004 744.845 15.9512 744.981 15.5215C745.118 15.0918 745.216 14.8086 745.274 14.6719L750.665 0.360352H754.254V21H751.734V7.23047C751.734 6.46875 751.744 5.72168 751.764 4.98926C751.793 4.25684 751.827 3.53906 751.866 2.83594C751.622 3.70508 751.393 4.48633 751.178 5.17969C750.973 5.86328 750.772 6.44922 750.577 6.9375L745.245 21H743.282L737.877 6.9375L736.573 2.83594C736.593 3.56836 736.612 4.30078 736.632 5.0332C736.661 5.76562 736.676 6.49805 736.676 7.23047ZM770.727 14.9648L768.354 21H765.453L773.876 0.360352H777.055L785.346 21H782.489L780.131 14.9648H770.727ZM775.429 2.46973C775.263 3.0166 775.062 3.62695 774.828 4.30078C774.604 4.96484 774.394 5.55078 774.198 6.05859L771.576 12.7822H779.296L776.645 5.9707C776.508 5.62891 776.327 5.14551 776.103 4.52051C775.878 3.89551 775.653 3.21191 775.429 2.46973ZM802.093 18.7148V21H788.865V0.360352H791.663V18.7148H802.093ZM819.792 18.7148V21H806.564V0.360352H809.362V18.7148H819.792ZM851.938 10.585C851.938 12.792 851.519 14.6963 850.679 16.2979C849.849 17.8994 848.667 19.1348 847.134 20.0039C845.601 20.8633 843.784 21.293 841.685 21.293C839.575 21.293 837.754 20.8633 836.221 20.0039C834.697 19.1445 833.521 17.9141 832.69 16.3125C831.87 14.7109 831.46 12.8018 831.46 10.585C831.46 8.37793 831.865 6.49316 832.676 4.93066C833.496 3.3584 834.668 2.15234 836.191 1.3125C837.725 0.472656 839.565 0.0527344 841.714 0.0527344C843.823 0.0527344 845.64 0.467773 847.163 1.29785C848.696 2.12793 849.873 3.3291 850.693 4.90137C851.523 6.46387 851.938 8.3584 851.938 10.585ZM849.082 10.585C849.082 8.0166 848.438 6 847.148 4.53516C845.869 3.07031 844.058 2.33789 841.714 2.33789C839.351 2.33789 837.524 3.06055 836.235 4.50586C834.946 5.95117 834.302 7.97754 834.302 10.585C834.302 12.3037 834.595 13.7979 835.181 15.0674C835.767 16.3271 836.611 17.3037 837.715 17.9971C838.818 18.6807 840.142 19.0225 841.685 19.0225C844.067 19.0225 845.894 18.29 847.163 16.8252C848.442 15.3506 849.082 13.2705 849.082 10.585ZM859.647 12.6357V21H856.85V0.360352H871.513V2.64551H859.647V10.3213H871.161V12.6357H859.647ZM893.786 21.293C892.097 21.293 890.622 20.9805 889.362 20.3555C888.103 19.7305 887.126 18.8369 886.433 17.6748C885.739 16.5127 885.393 15.1211 885.393 13.5V0.360352H888.19V13.2656C888.19 15.1504 888.669 16.5811 889.626 17.5576C890.583 18.5342 891.965 19.0225 893.771 19.0225C895.627 19.0225 897.067 18.5195 898.093 17.5137C899.128 16.498 899.646 15.0186 899.646 13.0752V0.360352H902.429V13.2363C902.429 14.9062 902.072 16.3418 901.359 17.543C900.656 18.7441 899.655 19.6719 898.356 20.3262C897.067 20.9707 895.544 21.293 893.786 21.293ZM924.391 15.3018C924.391 17.2061 923.644 18.6807 922.149 19.7256C920.665 20.7705 918.57 21.293 915.865 21.293C910.836 21.293 907.921 19.5449 907.12 16.0488L909.83 15.5068C910.143 16.7471 910.807 17.6602 911.822 18.2461C912.838 18.8223 914.22 19.1104 915.968 19.1104C917.774 19.1104 919.166 18.8027 920.143 18.1875C921.129 17.5625 921.622 16.6494 921.622 15.4482C921.622 14.7744 921.466 14.2275 921.153 13.8076C920.851 13.3877 920.421 13.041 919.864 12.7676C919.308 12.4941 918.644 12.2646 917.872 12.0791C917.101 11.8936 916.246 11.6934 915.309 11.4785C914.225 11.2344 913.316 10.9951 912.584 10.7607C911.861 10.5264 911.266 10.2822 910.797 10.0283C910.328 9.76465 909.928 9.48633 909.596 9.19336C909.107 8.74414 908.731 8.22168 908.468 7.62598C908.214 7.03027 908.087 6.34668 908.087 5.5752C908.087 3.80762 908.761 2.44531 910.108 1.48828C911.466 0.53125 913.404 0.0527344 915.924 0.0527344C918.268 0.0527344 920.06 0.414063 921.3 1.13672C922.54 1.84961 923.409 3.07031 923.907 4.79883L921.153 5.28223C920.851 4.18848 920.274 3.39746 919.425 2.90918C918.575 2.41113 917.398 2.16211 915.895 2.16211C914.244 2.16211 912.984 2.43555 912.115 2.98242C911.246 3.5293 910.812 4.34473 910.812 5.42871C910.812 6.06348 910.978 6.59082 911.31 7.01074C911.651 7.4209 912.14 7.76758 912.774 8.05078C913.37 8.33398 914.635 8.69043 916.568 9.12012C917.359 9.30566 918.141 9.50098 918.912 9.70605C919.684 9.90137 920.411 10.1504 921.095 10.4531C921.495 10.6191 921.876 10.8242 922.237 11.0684C922.608 11.3027 922.931 11.5762 923.204 11.8887C923.575 12.2988 923.863 12.7822 924.068 13.3389C924.283 13.8955 924.391 14.5498 924.391 15.3018ZM932.363 17.792V21H929.507V17.792H932.363ZM955.457 2.64551V21H952.674V2.64551H945.584V0.360352H962.547V2.64551H955.457ZM969.509 11.4346V21H966.711V0.360352H969.509V9.09082H980.671V0.360352H983.469V21H980.671V11.4346H969.509ZM992.262 14.9648L989.889 21H986.988L995.411 0.360352H998.59L1006.88 21H1004.02L1001.67 14.9648H992.262ZM996.964 2.46973C996.798 3.0166 996.598 3.62695 996.363 4.30078C996.139 4.96484 995.929 5.55078 995.733 6.05859L993.111 12.7822H1000.83L998.18 5.9707C998.043 5.62891 997.862 5.14551 997.638 4.52051C997.413 3.89551 997.188 3.21191 996.964 2.46973ZM1012.89 7.28906V21H1010.4V0.360352H1013.65L1024.81 18.0557C1024.7 16.1318 1024.64 14.7451 1024.64 13.8955V0.360352H1027.16V21H1023.79L1012.74 3.42188C1012.76 4.06641 1012.79 4.71094 1012.83 5.35547C1012.87 6 1012.89 6.64453 1012.89 7.28906ZM1035.88 13.0898V21H1033.08V0.360352H1035.88V10.7021L1045.82 0.360352H1049.12L1040.33 9.3252L1050.29 21H1046.82L1038.57 11.0391L1035.88 13.0898ZM1071.8 12.4453V21H1069.02V12.4453L1061.08 0.360352H1064.16L1070.44 10.1895L1076.7 0.360352H1079.77L1071.8 12.4453ZM1103.33 10.585C1103.33 12.792 1102.91 14.6963 1102.07 16.2979C1101.24 17.8994 1100.06 19.1348 1098.53 20.0039C1096.99 20.8633 1095.18 21.293 1093.08 21.293C1090.97 21.293 1089.15 20.8633 1087.61 20.0039C1086.09 19.1445 1084.91 17.9141 1084.08 16.3125C1083.26 14.7109 1082.85 12.8018 1082.85 10.585C1082.85 8.37793 1083.26 6.49316 1084.07 4.93066C1084.89 3.3584 1086.06 2.15234 1087.58 1.3125C1089.12 0.472656 1090.96 0.0527344 1093.11 0.0527344C1095.22 0.0527344 1097.03 0.467773 1098.56 1.29785C1100.09 2.12793 1101.27 3.3291 1102.09 4.90137C1102.92 6.46387 1103.33 8.3584 1103.33 10.585ZM1100.47 10.585C1100.47 8.0166 1099.83 6 1098.54 4.53516C1097.26 3.07031 1095.45 2.33789 1093.11 2.33789C1090.74 2.33789 1088.92 3.06055 1087.63 4.50586C1086.34 5.95117 1085.69 7.97754 1085.69 10.585C1085.69 12.3037 1085.99 13.7979 1086.57 15.0674C1087.16 16.3271 1088 17.3037 1089.11 17.9971C1090.21 18.6807 1091.53 19.0225 1093.08 19.0225C1095.46 19.0225 1097.29 18.29 1098.56 16.8252C1099.83 15.3506 1100.47 13.2705 1100.47 10.585ZM1116.49 21.293C1114.8 21.293 1113.33 20.9805 1112.07 20.3555C1110.81 19.7305 1109.83 18.8369 1109.14 17.6748C1108.44 16.5127 1108.1 15.1211 1108.1 13.5V0.360352H1110.89V13.2656C1110.89 15.1504 1111.37 16.5811 1112.33 17.5576C1113.29 18.5342 1114.67 19.0225 1116.47 19.0225C1118.33 19.0225 1119.77 18.5195 1120.8 17.5137C1121.83 16.498 1122.35 15.0186 1122.35 13.0752V0.360352H1125.13V13.2363C1125.13 14.9062 1124.78 16.3418 1124.06 17.543C1123.36 18.7441 1122.36 19.6719 1121.06 20.3262C1119.77 20.9707 1118.25 21.293 1116.49 21.293ZM1143.07 12.6357V21H1140.27V0.360352H1154.93V2.64551H1143.07V10.3213H1154.58V12.6357H1143.07ZM1162.41 12.4307V21H1159.61V0.360352H1169.32C1171.65 0.360352 1173.44 0.882813 1174.7 1.92773C1175.97 2.96289 1176.6 4.4082 1176.6 6.26367C1176.6 7.79688 1176.15 9.08594 1175.26 10.1309C1174.37 11.1758 1173.14 11.835 1171.56 12.1084L1177.42 21H1174.2L1168.84 12.4307H1162.41ZM1173.79 6.29297C1173.79 5.0918 1173.38 4.17871 1172.56 3.55371C1171.75 2.91895 1170.58 2.60156 1169.04 2.60156H1162.41V10.2188H1169.16C1170.64 10.2188 1171.77 9.87695 1172.58 9.19336C1173.39 8.5 1173.79 7.5332 1173.79 6.29297ZM1201.73 10.585C1201.73 12.792 1201.31 14.6963 1200.47 16.2979C1199.64 17.8994 1198.46 19.1348 1196.92 20.0039C1195.39 20.8633 1193.58 21.293 1191.48 21.293C1189.37 21.293 1187.54 20.8633 1186.01 20.0039C1184.49 19.1445 1183.31 17.9141 1182.48 16.3125C1181.66 14.7109 1181.25 12.8018 1181.25 10.585C1181.25 8.37793 1181.66 6.49316 1182.47 4.93066C1183.29 3.3584 1184.46 2.15234 1185.98 1.3125C1187.52 0.472656 1189.36 0.0527344 1191.5 0.0527344C1193.61 0.0527344 1195.43 0.467773 1196.95 1.29785C1198.49 2.12793 1199.66 3.3291 1200.48 4.90137C1201.31 6.46387 1201.73 8.3584 1201.73 10.585ZM1198.87 10.585C1198.87 8.0166 1198.23 6 1196.94 4.53516C1195.66 3.07031 1193.85 2.33789 1191.5 2.33789C1189.14 2.33789 1187.32 3.06055 1186.03 4.50586C1184.74 5.95117 1184.09 7.97754 1184.09 10.585C1184.09 12.3037 1184.39 13.7979 1184.97 15.0674C1185.56 16.3271 1186.4 17.3037 1187.51 17.9971C1188.61 18.6807 1189.93 19.0225 1191.48 19.0225C1193.86 19.0225 1195.68 18.29 1196.95 16.8252C1198.23 15.3506 1198.87 13.2705 1198.87 10.585ZM1209.13 7.23047V21H1206.64V0.360352H1210.32L1215.81 14.6719C1216.01 15.248 1216.19 15.8682 1216.37 16.5322C1216.55 17.1865 1216.67 17.6602 1216.73 17.9531C1216.79 17.6895 1216.89 17.3281 1217.03 16.8691C1217.16 16.4004 1217.3 15.9512 1217.44 15.5215C1217.57 15.0918 1217.67 14.8086 1217.73 14.6719L1223.12 0.360352H1226.71V21H1224.19V7.23047C1224.19 6.46875 1224.2 5.72168 1224.22 4.98926C1224.25 4.25684 1224.28 3.53906 1224.32 2.83594C1224.08 3.70508 1223.85 4.48633 1223.63 5.17969C1223.43 5.86328 1223.23 6.44922 1223.03 6.9375L1217.7 21H1215.74L1210.33 6.9375L1209.03 2.83594C1209.05 3.56836 1209.07 4.30078 1209.09 5.0332C1209.12 5.76562 1209.13 6.49805 1209.13 7.23047ZM1243.18 14.9648L1240.81 21H1237.91L1246.33 0.360352H1249.51L1257.8 21H1254.94L1252.59 14.9648H1243.18ZM1247.88 2.46973C1247.72 3.0166 1247.52 3.62695 1247.28 4.30078C1247.06 4.96484 1246.85 5.55078 1246.65 6.05859L1244.03 12.7822H1251.75L1249.1 5.9707C1248.96 5.62891 1248.78 5.14551 1248.56 4.52051C1248.33 3.89551 1248.11 3.21191 1247.88 2.46973ZM1274.55 18.7148V21H1261.32V0.360352H1264.12V18.7148H1274.55ZM1292.25 18.7148V21H1279.02V0.360352H1281.82V18.7148H1292.25ZM1324.39 10.585C1324.39 12.792 1323.97 14.6963 1323.13 16.2979C1322.3 17.8994 1321.12 19.1348 1319.59 20.0039C1318.06 20.8633 1316.24 21.293 1314.14 21.293C1312.03 21.293 1310.21 20.8633 1308.68 20.0039C1307.15 19.1445 1305.98 17.9141 1305.15 16.3125C1304.33 14.7109 1303.92 12.8018 1303.92 10.585C1303.92 8.37793 1304.32 6.49316 1305.13 4.93066C1305.95 3.3584 1307.12 2.15234 1308.65 1.3125C1310.18 0.472656 1312.02 0.0527344 1314.17 0.0527344C1316.28 0.0527344 1318.09 0.467773 1319.62 1.29785C1321.15 2.12793 1322.33 3.3291 1323.15 4.90137C1323.98 6.46387 1324.39 8.3584 1324.39 10.585ZM1321.54 10.585C1321.54 8.0166 1320.89 6 1319.6 4.53516C1318.32 3.07031 1316.51 2.33789 1314.17 2.33789C1311.81 2.33789 1309.98 3.06055 1308.69 4.50586C1307.4 5.95117 1306.76 7.97754 1306.76 10.585C1306.76 12.3037 1307.05 13.7979 1307.64 15.0674C1308.22 16.3271 1309.07 17.3037 1310.17 17.9971C1311.27 18.6807 1312.6 19.0225 1314.14 19.0225C1316.52 19.0225 1318.35 18.29 1319.62 16.8252C1320.9 15.3506 1321.54 13.2705 1321.54 10.585ZM1332.1 12.6357V21H1329.3V0.360352H1343.97V2.64551H1332.1V10.3213H1343.62V12.6357H1332.1ZM1365.52 2.64551V21H1362.74V2.64551H1355.65V0.360352H1372.61V2.64551H1365.52ZM1379.58 11.4346V21H1376.78V0.360352H1379.58V9.09082H1390.74V0.360352H1393.54V21H1390.74V11.4346H1379.58ZM1402.33 14.9648L1399.96 21H1397.05L1405.48 0.360352H1408.66L1416.95 21H1414.09L1411.73 14.9648H1402.33ZM1407.03 2.46973C1406.86 3.0166 1406.66 3.62695 1406.43 4.30078C1406.21 4.96484 1406 5.55078 1405.8 6.05859L1403.18 12.7822H1410.9L1408.25 5.9707C1408.11 5.62891 1407.93 5.14551 1407.7 4.52051C1407.48 3.89551 1407.25 3.21191 1407.03 2.46973ZM1422.96 7.28906V21H1420.47V0.360352H1423.72L1434.88 18.0557C1434.76 16.1318 1434.71 14.7451 1434.71 13.8955V0.360352H1437.22V21H1433.86L1422.81 3.42188C1422.83 4.06641 1422.86 4.71094 1422.9 5.35547C1422.94 6 1422.96 6.64453 1422.96 7.28906ZM1445.94 13.0898V21H1443.15V0.360352H1445.94V10.7021L1455.89 0.360352H1459.19L1450.4 9.3252L1460.36 21H1456.89L1448.64 11.0391L1445.94 13.0898ZM1481.87 12.4453V21H1479.09V12.4453L1471.15 0.360352H1474.22L1480.51 10.1895L1486.76 0.360352H1489.84L1481.87 12.4453ZM1513.4 10.585C1513.4 12.792 1512.98 14.6963 1512.14 16.2979C1511.31 17.8994 1510.13 19.1348 1508.59 20.0039C1507.06 20.8633 1505.24 21.293 1503.14 21.293C1501.03 21.293 1499.21 20.8633 1497.68 20.0039C1496.16 19.1445 1494.98 17.9141 1494.15 16.3125C1493.33 14.7109 1492.92 12.8018 1492.92 10.585C1492.92 8.37793 1493.32 6.49316 1494.13 4.93066C1494.96 3.3584 1496.13 2.15234 1497.65 1.3125C1499.18 0.472656 1501.02 0.0527344 1503.17 0.0527344C1505.28 0.0527344 1507.1 0.467773 1508.62 1.29785C1510.16 2.12793 1511.33 3.3291 1512.15 4.90137C1512.98 6.46387 1513.4 8.3584 1513.4 10.585ZM1510.54 10.585C1510.54 8.0166 1509.9 6 1508.61 4.53516C1507.33 3.07031 1505.52 2.33789 1503.17 2.33789C1500.81 2.33789 1498.98 3.06055 1497.69 4.50586C1496.41 5.95117 1495.76 7.97754 1495.76 10.585C1495.76 12.3037 1496.05 13.7979 1496.64 15.0674C1497.23 16.3271 1498.07 17.3037 1499.17 17.9971C1500.28 18.6807 1501.6 19.0225 1503.14 19.0225C1505.53 19.0225 1507.35 18.29 1508.62 16.8252C1509.9 15.3506 1510.54 13.2705 1510.54 10.585ZM1526.56 21.293C1524.87 21.293 1523.39 20.9805 1522.13 20.3555C1520.87 19.7305 1519.9 18.8369 1519.2 17.6748C1518.51 16.5127 1518.16 15.1211 1518.16 13.5V0.360352H1520.96V13.2656C1520.96 15.1504 1521.44 16.5811 1522.4 17.5576C1523.35 18.5342 1524.73 19.0225 1526.54 19.0225C1528.4 19.0225 1529.84 18.5195 1530.86 17.5137C1531.9 16.498 1532.42 15.0186 1532.42 13.0752V0.360352H1535.2V13.2363C1535.2 14.9062 1534.84 16.3418 1534.13 17.543C1533.43 18.7441 1532.42 19.6719 1531.13 20.3262C1529.84 20.9707 1528.31 21.293 1526.56 21.293ZM1553.14 12.6357V21H1550.34V0.360352H1565V2.64551H1553.14V10.3213H1564.65V12.6357H1553.14ZM1572.48 12.4307V21H1569.68V0.360352H1579.39C1581.71 0.360352 1583.51 0.882813 1584.77 1.92773C1586.04 2.96289 1586.67 4.4082 1586.67 6.26367C1586.67 7.79688 1586.22 9.08594 1585.32 10.1309C1584.43 11.1758 1583.2 11.835 1581.63 12.1084L1587.49 21H1584.27L1578.91 12.4307H1572.48ZM1583.86 6.29297C1583.86 5.0918 1583.45 4.17871 1582.63 3.55371C1581.82 2.91895 1580.64 2.60156 1579.11 2.60156H1572.48V10.2188H1579.23C1580.7 10.2188 1581.84 9.87695 1582.64 9.19336C1583.45 8.5 1583.86 7.5332 1583.86 6.29297ZM1611.8 10.585C1611.8 12.792 1611.38 14.6963 1610.54 16.2979C1609.71 17.8994 1608.52 19.1348 1606.99 20.0039C1605.46 20.8633 1603.64 21.293 1601.54 21.293C1599.43 21.293 1597.61 20.8633 1596.08 20.0039C1594.55 19.1445 1593.38 17.9141 1592.55 16.3125C1591.73 14.7109 1591.32 12.8018 1591.32 10.585C1591.32 8.37793 1591.72 6.49316 1592.53 4.93066C1593.35 3.3584 1594.53 2.15234 1596.05 1.3125C1597.58 0.472656 1599.42 0.0527344 1601.57 0.0527344C1603.68 0.0527344 1605.5 0.467773 1607.02 1.29785C1608.55 2.12793 1609.73 3.3291 1610.55 4.90137C1611.38 6.46387 1611.8 8.3584 1611.8 10.585ZM1608.94 10.585C1608.94 8.0166 1608.29 6 1607.01 4.53516C1605.73 3.07031 1603.92 2.33789 1601.57 2.33789C1599.21 2.33789 1597.38 3.06055 1596.09 4.50586C1594.8 5.95117 1594.16 7.97754 1594.16 10.585C1594.16 12.3037 1594.45 13.7979 1595.04 15.0674C1595.62 16.3271 1596.47 17.3037 1597.57 17.9971C1598.68 18.6807 1600 19.0225 1601.54 19.0225C1603.92 19.0225 1605.75 18.29 1607.02 16.8252C1608.3 15.3506 1608.94 13.2705 1608.94 10.585ZM1619.2 7.23047V21H1616.71V0.360352H1620.38L1625.88 14.6719C1626.07 15.248 1626.26 15.8682 1626.43 16.5322C1626.62 17.1865 1626.74 17.6602 1626.8 17.9531C1626.86 17.6895 1626.96 17.3281 1627.09 16.8691C1627.23 16.4004 1627.37 15.9512 1627.5 15.5215C1627.64 15.0918 1627.74 14.8086 1627.8 14.6719L1633.19 0.360352H1636.78V21H1634.26V7.23047C1634.26 6.46875 1634.27 5.72168 1634.29 4.98926C1634.31 4.25684 1634.35 3.53906 1634.39 2.83594C1634.14 3.70508 1633.91 4.48633 1633.7 5.17969C1633.49 5.86328 1633.29 6.44922 1633.1 6.9375L1627.77 21H1625.8L1620.4 6.9375L1619.09 2.83594C1619.11 3.56836 1619.13 4.30078 1619.15 5.0332C1619.18 5.76562 1619.2 6.49805 1619.2 7.23047ZM1653.25 14.9648L1650.88 21H1647.97L1656.4 0.360352H1659.58L1667.87 21H1665.01L1662.65 14.9648H1653.25ZM1657.95 2.46973C1657.78 3.0166 1657.58 3.62695 1657.35 4.30078C1657.12 4.96484 1656.92 5.55078 1656.72 6.05859L1654.1 12.7822H1661.82L1659.17 5.9707C1659.03 5.62891 1658.85 5.14551 1658.62 4.52051C1658.4 3.89551 1658.17 3.21191 1657.95 2.46973ZM1684.61 18.7148V21H1671.39V0.360352H1674.18V18.7148H1684.61ZM1702.31 18.7148V21H1689.09V0.360352H1691.88V18.7148H1702.31ZM1734.46 10.585C1734.46 12.792 1734.04 14.6963 1733.2 16.2979C1732.37 17.8994 1731.19 19.1348 1729.66 20.0039C1728.12 20.8633 1726.31 21.293 1724.21 21.293C1722.1 21.293 1720.28 20.8633 1718.74 20.0039C1717.22 19.1445 1716.04 17.9141 1715.21 16.3125C1714.39 14.7109 1713.98 12.8018 1713.98 10.585C1713.98 8.37793 1714.39 6.49316 1715.2 4.93066C1716.02 3.3584 1717.19 2.15234 1718.71 1.3125C1720.25 0.472656 1722.09 0.0527344 1724.24 0.0527344C1726.34 0.0527344 1728.16 0.467773 1729.68 1.29785C1731.22 2.12793 1732.39 3.3291 1733.21 4.90137C1734.04 6.46387 1734.46 8.3584 1734.46 10.585ZM1731.6 10.585C1731.6 8.0166 1730.96 6 1729.67 4.53516C1728.39 3.07031 1726.58 2.33789 1724.24 2.33789C1721.87 2.33789 1720.05 3.06055 1718.76 4.50586C1717.47 5.95117 1716.82 7.97754 1716.82 10.585C1716.82 12.3037 1717.12 13.7979 1717.7 15.0674C1718.29 16.3271 1719.13 17.3037 1720.24 17.9971C1721.34 18.6807 1722.66 19.0225 1724.21 19.0225C1726.59 19.0225 1728.42 18.29 1729.68 16.8252C1730.96 15.3506 1731.6 13.2705 1731.6 10.585ZM1742.17 12.6357V21H1739.37V0.360352H1754.03V2.64551H1742.17V10.3213H1753.68V12.6357H1742.17ZM1776.31 21.293C1774.62 21.293 1773.14 20.9805 1771.88 20.3555C1770.62 19.7305 1769.65 18.8369 1768.95 17.6748C1768.26 16.5127 1767.91 15.1211 1767.91 13.5V0.360352H1770.71V13.2656C1770.71 15.1504 1771.19 16.5811 1772.15 17.5576C1773.1 18.5342 1774.49 19.0225 1776.29 19.0225C1778.15 19.0225 1779.59 18.5195 1780.61 17.5137C1781.65 16.498 1782.17 15.0186 1782.17 13.0752V0.360352H1784.95V13.2363C1784.95 14.9062 1784.59 16.3418 1783.88 17.543C1783.18 18.7441 1782.18 19.6719 1780.88 20.3262C1779.59 20.9707 1778.07 21.293 1776.31 21.293ZM1806.91 15.3018C1806.91 17.2061 1806.17 18.6807 1804.67 19.7256C1803.19 20.7705 1801.09 21.293 1798.39 21.293C1793.36 21.293 1790.44 19.5449 1789.64 16.0488L1792.35 15.5068C1792.66 16.7471 1793.33 17.6602 1794.34 18.2461C1795.36 18.8223 1796.74 19.1104 1798.49 19.1104C1800.3 19.1104 1801.69 18.8027 1802.66 18.1875C1803.65 17.5625 1804.14 16.6494 1804.14 15.4482C1804.14 14.7744 1803.99 14.2275 1803.67 13.8076C1803.37 13.3877 1802.94 13.041 1802.39 12.7676C1801.83 12.4941 1801.17 12.2646 1800.39 12.0791C1799.62 11.8936 1798.77 11.6934 1797.83 11.4785C1796.75 11.2344 1795.84 10.9951 1795.11 10.7607C1794.38 10.5264 1793.79 10.2822 1793.32 10.0283C1792.85 9.76465 1792.45 9.48633 1792.12 9.19336C1791.63 8.74414 1791.25 8.22168 1790.99 7.62598C1790.74 7.03027 1790.61 6.34668 1790.61 5.5752C1790.61 3.80762 1791.28 2.44531 1792.63 1.48828C1793.99 0.53125 1795.93 0.0527344 1798.45 0.0527344C1800.79 0.0527344 1802.58 0.414063 1803.82 1.13672C1805.06 1.84961 1805.93 3.07031 1806.43 4.79883L1803.67 5.28223C1803.37 4.18848 1802.8 3.39746 1801.95 2.90918C1801.1 2.41113 1799.92 2.16211 1798.42 2.16211C1796.77 2.16211 1795.51 2.43555 1794.64 2.98242C1793.77 3.5293 1793.33 4.34473 1793.33 5.42871C1793.33 6.06348 1793.5 6.59082 1793.83 7.01074C1794.17 7.4209 1794.66 7.76758 1795.3 8.05078C1795.89 8.33398 1797.16 8.69043 1799.09 9.12012C1799.88 9.30566 1800.66 9.50098 1801.43 9.70605C1802.21 9.90137 1802.93 10.1504 1803.62 10.4531C1804.02 10.6191 1804.4 10.8242 1804.76 11.0684C1805.13 11.3027 1805.45 11.5762 1805.73 11.8887C1806.1 12.2988 1806.38 12.7822 1806.59 13.3389C1806.8 13.8955 1806.91 14.5498 1806.91 15.3018ZM1814.88 17.792V21H1812.03V17.792H1814.88ZM1837.98 2.64551V21H1835.2V2.64551H1828.11V0.360352H1845.07V2.64551H1837.98ZM1852.03 11.4346V21H1849.23V0.360352H1852.03V9.09082H1863.19V0.360352H1865.99V21H1863.19V11.4346H1852.03ZM1874.78 14.9648L1872.41 21H1869.51L1877.93 0.360352H1881.11L1889.4 21H1886.55L1884.19 14.9648H1874.78ZM1879.49 2.46973C1879.32 3.0166 1879.12 3.62695 1878.88 4.30078C1878.66 4.96484 1878.45 5.55078 1878.25 6.05859L1875.63 12.7822H1883.35L1880.7 5.9707C1880.56 5.62891 1880.38 5.14551 1880.16 4.52051C1879.93 3.89551 1879.71 3.21191 1879.49 2.46973ZM1895.41 7.28906V21H1892.92V0.360352H1896.17L1907.34 18.0557C1907.22 16.1318 1907.16 14.7451 1907.16 13.8955V0.360352H1909.68V21H1906.31L1895.27 3.42188C1895.29 4.06641 1895.31 4.71094 1895.35 5.35547C1895.39 6 1895.41 6.64453 1895.41 7.28906ZM1918.4 13.0898V21H1915.6V0.360352H1918.4V10.7021L1928.35 0.360352H1931.64L1922.85 9.3252L1932.81 21H1929.34L1921.09 11.0391L1918.4 13.0898Z" fill="white"/>
</svg>
