<svg width="1918" height="8" viewBox="0 0 1918 8" fill="none" xmlns="http://www.w3.org/2000/svg">
<path d="M3.51562 0.881836V7H2.58789V0.881836H0.224609V0.120117H5.87891V0.881836H3.51562ZM8.86621 3.81152V7H7.93359V0.120117H8.86621V3.03027H12.5869V0.120117H13.5195V7H12.5869V3.81152H8.86621ZM17.1172 4.98828L16.3262 7H15.3594L18.167 0.120117H19.2266L21.9902 7H21.0381L20.252 4.98828H17.1172ZM18.6846 0.823242C18.6292 1.00553 18.5625 1.20898 18.4844 1.43359C18.4095 1.65495 18.3395 1.85026 18.2744 2.01953L17.4004 4.26074H19.9736L19.0898 1.99023C19.0443 1.8763 18.984 1.71517 18.9092 1.50684C18.8343 1.2985 18.7594 1.07064 18.6846 0.823242ZM24.6602 2.42969V7H23.8301V0.120117H24.9141L28.6348 6.01855C28.5957 5.37728 28.5762 4.91504 28.5762 4.63184V0.120117H29.416V7H28.293L24.6113 1.14062C24.6178 1.35547 24.6276 1.57031 24.6406 1.78516C24.6536 2 24.6602 2.21484 24.6602 2.42969ZM32.9893 4.36328V7H32.0566V0.120117H32.9893V3.56738L36.3047 0.120117H37.4033L34.4736 3.1084L37.7939 7H36.6367L33.8877 3.67969L32.9893 4.36328ZM46.2979 4.14844V7H45.3701V4.14844L42.7236 0.120117H43.749L45.8438 3.39648L47.9287 0.120117H48.9541L46.2979 4.14844ZM57.4736 3.52832C57.4736 4.264 57.3337 4.89876 57.0537 5.43262C56.777 5.96647 56.3831 6.37826 55.8721 6.66797C55.361 6.95443 54.7555 7.09766 54.0557 7.09766C53.3525 7.09766 52.7454 6.95443 52.2344 6.66797C51.7266 6.38151 51.3343 5.97135 51.0576 5.4375C50.7842 4.90365 50.6475 4.26725 50.6475 3.52832C50.6475 2.79264 50.7826 2.16439 51.0527 1.64355C51.3262 1.11947 51.7168 0.717448 52.2246 0.4375C52.7357 0.157552 53.3493 0.0175781 54.0654 0.0175781C54.7686 0.0175781 55.374 0.155924 55.8818 0.432617C56.3929 0.70931 56.7852 1.1097 57.0586 1.63379C57.3353 2.15462 57.4736 2.78613 57.4736 3.52832ZM56.5215 3.52832C56.5215 2.6722 56.3066 2 55.877 1.51172C55.4505 1.02344 54.8467 0.779297 54.0654 0.779297C53.2777 0.779297 52.6689 1.02018 52.2393 1.50195C51.8096 1.98372 51.5947 2.65918 51.5947 3.52832C51.5947 4.10124 51.6924 4.59928 51.8877 5.02246C52.083 5.44238 52.3646 5.7679 52.7324 5.99902C53.1003 6.22689 53.5413 6.34082 54.0557 6.34082C54.8499 6.34082 55.4587 6.09668 55.8818 5.6084C56.3083 5.11686 56.5215 4.4235 56.5215 3.52832ZM62.5264 7.09766C61.9632 7.09766 61.4717 6.99349 61.0518 6.78516C60.6318 6.57682 60.3063 6.27897 60.0752 5.8916C59.8441 5.50423 59.7285 5.04036 59.7285 4.5V0.120117H60.6611V4.42188C60.6611 5.05013 60.8206 5.52702 61.1396 5.85254C61.4587 6.17806 61.9193 6.34082 62.5215 6.34082C63.14 6.34082 63.6201 6.17318 63.9619 5.83789C64.307 5.49935 64.4795 5.00618 64.4795 4.3584V0.120117H65.4072V4.41211C65.4072 4.96875 65.2884 5.44727 65.0508 5.84766C64.8164 6.24805 64.4827 6.55729 64.0498 6.77539C63.6201 6.99023 63.1123 7.09766 62.5264 7.09766ZM72.7197 4.21191V7H71.7871V0.120117H76.6748V0.881836H72.7197V3.44043H76.5576V4.21191H72.7197ZM79.833 4.14355V7H78.9004V0.120117H82.1377C82.9124 0.120117 83.5098 0.294271 83.9297 0.642578C84.3529 0.98763 84.5645 1.4694 84.5645 2.08789C84.5645 2.59896 84.4147 3.02865 84.1152 3.37695C83.819 3.72526 83.4089 3.94499 82.8848 4.03613L84.8379 7H83.7637L81.9766 4.14355H79.833ZM83.627 2.09766C83.627 1.69727 83.4902 1.3929 83.2168 1.18457C82.9466 0.972982 82.556 0.867188 82.0449 0.867188H79.833V3.40625H82.084C82.5755 3.40625 82.9548 3.29232 83.2217 3.06445C83.4919 2.83333 83.627 2.51107 83.627 2.09766ZM93.6064 3.52832C93.6064 4.264 93.4665 4.89876 93.1865 5.43262C92.9098 5.96647 92.516 6.37826 92.0049 6.66797C91.4938 6.95443 90.8883 7.09766 90.1885 7.09766C89.4854 7.09766 88.8783 6.95443 88.3672 6.66797C87.8594 6.38151 87.4671 5.97135 87.1904 5.4375C86.917 4.90365 86.7803 4.26725 86.7803 3.52832C86.7803 2.79264 86.9154 2.16439 87.1855 1.64355C87.459 1.11947 87.8496 0.717448 88.3574 0.4375C88.8685 0.157552 89.4821 0.0175781 90.1982 0.0175781C90.9014 0.0175781 91.5068 0.155924 92.0146 0.432617C92.5257 0.70931 92.918 1.1097 93.1914 1.63379C93.4681 2.15462 93.6064 2.78613 93.6064 3.52832ZM92.6543 3.52832C92.6543 2.6722 92.4395 2 92.0098 1.51172C91.5833 1.02344 90.9795 0.779297 90.1982 0.779297C89.4105 0.779297 88.8018 1.02018 88.3721 1.50195C87.9424 1.98372 87.7275 2.65918 87.7275 3.52832C87.7275 4.10124 87.8252 4.59928 88.0205 5.02246C88.2158 5.44238 88.4974 5.7679 88.8652 5.99902C89.2331 6.22689 89.6742 6.34082 90.1885 6.34082C90.9827 6.34082 91.5915 6.09668 92.0146 5.6084C92.4411 5.11686 92.6543 4.4235 92.6543 3.52832ZM96.7402 2.41016V7H95.9102V0.120117H97.1357L98.9668 4.89062C99.0319 5.08268 99.0938 5.28939 99.1523 5.51074C99.2142 5.72884 99.2549 5.88672 99.2744 5.98438C99.2939 5.89648 99.3265 5.77604 99.3721 5.62305C99.4176 5.4668 99.4632 5.31706 99.5088 5.17383C99.5544 5.0306 99.5869 4.9362 99.6064 4.89062L101.403 0.120117H102.6V7H101.76V2.41016C101.76 2.15625 101.763 1.90723 101.77 1.66309C101.779 1.41895 101.791 1.17969 101.804 0.945312C101.722 1.23503 101.646 1.49544 101.574 1.72656C101.506 1.95443 101.439 2.14974 101.374 2.3125L99.5967 7H98.9424L97.1406 2.3125L96.7061 0.945312C96.7126 1.18945 96.7191 1.43359 96.7256 1.67773C96.7354 1.92188 96.7402 2.16602 96.7402 2.41016ZM109.424 4.98828L108.633 7H107.666L110.474 0.120117H111.533L114.297 7H113.345L112.559 4.98828H109.424ZM110.991 0.823242C110.936 1.00553 110.869 1.20898 110.791 1.43359C110.716 1.65495 110.646 1.85026 110.581 2.01953L109.707 4.26074H112.28L111.396 1.99023C111.351 1.8763 111.291 1.71517 111.216 1.50684C111.141 1.2985 111.066 1.07064 110.991 0.823242ZM120.546 6.23828V7H116.137V0.120117H117.069V6.23828H120.546ZM127.112 6.23828V7H122.703V0.120117H123.636V6.23828H127.112ZM139.161 3.52832C139.161 4.264 139.021 4.89876 138.741 5.43262C138.465 5.96647 138.071 6.37826 137.56 6.66797C137.049 6.95443 136.443 7.09766 135.743 7.09766C135.04 7.09766 134.433 6.95443 133.922 6.66797C133.414 6.38151 133.022 5.97135 132.745 5.4375C132.472 4.90365 132.335 4.26725 132.335 3.52832C132.335 2.79264 132.47 2.16439 132.74 1.64355C133.014 1.11947 133.404 0.717448 133.912 0.4375C134.423 0.157552 135.037 0.0175781 135.753 0.0175781C136.456 0.0175781 137.062 0.155924 137.569 0.432617C138.08 0.70931 138.473 1.1097 138.746 1.63379C139.023 2.15462 139.161 2.78613 139.161 3.52832ZM138.209 3.52832C138.209 2.6722 137.994 2 137.564 1.51172C137.138 1.02344 136.534 0.779297 135.753 0.779297C134.965 0.779297 134.356 1.02018 133.927 1.50195C133.497 1.98372 133.282 2.65918 133.282 3.52832C133.282 4.10124 133.38 4.59928 133.575 5.02246C133.771 5.44238 134.052 5.7679 134.42 5.99902C134.788 6.22689 135.229 6.34082 135.743 6.34082C136.537 6.34082 137.146 6.09668 137.569 5.6084C137.996 5.11686 138.209 4.4235 138.209 3.52832ZM142.397 4.21191V7H141.465V0.120117H146.353V0.881836H142.397V3.44043H146.235V4.21191H142.397ZM155.11 7.09766C154.547 7.09766 154.056 6.99349 153.636 6.78516C153.216 6.57682 152.89 6.27897 152.659 5.8916C152.428 5.50423 152.312 5.04036 152.312 4.5V0.120117H153.245V4.42188C153.245 5.05013 153.405 5.52702 153.724 5.85254C154.043 6.17806 154.503 6.34082 155.105 6.34082C155.724 6.34082 156.204 6.17318 156.546 5.83789C156.891 5.49935 157.063 5.00618 157.063 4.3584V0.120117H157.991V4.41211C157.991 4.96875 157.872 5.44727 157.635 5.84766C157.4 6.24805 157.067 6.55729 156.634 6.77539C156.204 6.99023 155.696 7.09766 155.11 7.09766ZM165.979 5.10059C165.979 5.73535 165.729 6.22689 165.231 6.5752C164.737 6.9235 164.038 7.09766 163.137 7.09766C161.46 7.09766 160.489 6.51497 160.222 5.34961L161.125 5.16895C161.229 5.58236 161.451 5.88672 161.789 6.08203C162.128 6.27409 162.588 6.37012 163.171 6.37012C163.773 6.37012 164.237 6.26758 164.562 6.0625C164.891 5.85417 165.056 5.5498 165.056 5.14941C165.056 4.9248 165.004 4.74251 164.899 4.60254C164.799 4.46257 164.655 4.34701 164.47 4.25586C164.284 4.16471 164.063 4.08822 163.806 4.02637C163.549 3.96452 163.264 3.89779 162.951 3.82617C162.59 3.74479 162.287 3.66504 162.043 3.58691C161.802 3.50879 161.604 3.42741 161.447 3.34277C161.291 3.25488 161.158 3.16211 161.047 3.06445C160.884 2.91471 160.759 2.74056 160.671 2.54199C160.586 2.34342 160.544 2.11556 160.544 1.8584C160.544 1.26921 160.769 0.815104 161.218 0.496094C161.67 0.177083 162.316 0.0175781 163.156 0.0175781C163.938 0.0175781 164.535 0.138021 164.948 0.378906C165.362 0.616536 165.651 1.02344 165.817 1.59961L164.899 1.76074C164.799 1.39616 164.606 1.13249 164.323 0.969727C164.04 0.803711 163.648 0.720703 163.146 0.720703C162.596 0.720703 162.176 0.811849 161.887 0.994141C161.597 1.17643 161.452 1.44824 161.452 1.80957C161.452 2.02116 161.507 2.19694 161.618 2.33691C161.732 2.47363 161.895 2.58919 162.106 2.68359C162.305 2.77799 162.727 2.89681 163.371 3.04004C163.635 3.10189 163.895 3.16699 164.152 3.23535C164.41 3.30046 164.652 3.38346 164.88 3.48438C165.013 3.53971 165.14 3.60807 165.261 3.68945C165.384 3.76758 165.492 3.85872 165.583 3.96289C165.707 4.09961 165.803 4.26074 165.871 4.44629C165.943 4.63184 165.979 4.84993 165.979 5.10059ZM169.303 5.93066V7H168.351V5.93066H169.303ZM178.334 0.881836V7H177.406V0.881836H175.043V0.120117H180.697V0.881836H178.334ZM183.685 3.81152V7H182.752V0.120117H183.685V3.03027H187.405V0.120117H188.338V7H187.405V3.81152H183.685ZM191.936 4.98828L191.145 7H190.178L192.985 0.120117H194.045L196.809 7H195.856L195.07 4.98828H191.936ZM193.503 0.823242C193.448 1.00553 193.381 1.20898 193.303 1.43359C193.228 1.65495 193.158 1.85026 193.093 2.01953L192.219 4.26074H194.792L193.908 1.99023C193.863 1.8763 193.802 1.71517 193.728 1.50684C193.653 1.2985 193.578 1.07064 193.503 0.823242ZM199.479 2.42969V7H198.648V0.120117H199.732L203.453 6.01855C203.414 5.37728 203.395 4.91504 203.395 4.63184V0.120117H204.234V7H203.111L199.43 1.14062C199.436 1.35547 199.446 1.57031 199.459 1.78516C199.472 2 199.479 2.21484 199.479 2.42969ZM207.808 4.36328V7H206.875V0.120117H207.808V3.56738L211.123 0.120117H212.222L209.292 3.1084L212.612 7H211.455L208.706 3.67969L207.808 4.36328ZM221.116 4.14844V7H220.188V4.14844L217.542 0.120117H218.567L220.662 3.39648L222.747 0.120117H223.772L221.116 4.14844ZM232.292 3.52832C232.292 4.264 232.152 4.89876 231.872 5.43262C231.595 5.96647 231.201 6.37826 230.69 6.66797C230.179 6.95443 229.574 7.09766 228.874 7.09766C228.171 7.09766 227.564 6.95443 227.053 6.66797C226.545 6.38151 226.153 5.97135 225.876 5.4375C225.603 4.90365 225.466 4.26725 225.466 3.52832C225.466 2.79264 225.601 2.16439 225.871 1.64355C226.145 1.11947 226.535 0.717448 227.043 0.4375C227.554 0.157552 228.168 0.0175781 228.884 0.0175781C229.587 0.0175781 230.192 0.155924 230.7 0.432617C231.211 0.70931 231.604 1.1097 231.877 1.63379C232.154 2.15462 232.292 2.78613 232.292 3.52832ZM231.34 3.52832C231.34 2.6722 231.125 2 230.695 1.51172C230.269 1.02344 229.665 0.779297 228.884 0.779297C228.096 0.779297 227.487 1.02018 227.058 1.50195C226.628 1.98372 226.413 2.65918 226.413 3.52832C226.413 4.10124 226.511 4.59928 226.706 5.02246C226.901 5.44238 227.183 5.7679 227.551 5.99902C227.919 6.22689 228.36 6.34082 228.874 6.34082C229.668 6.34082 230.277 6.09668 230.7 5.6084C231.127 5.11686 231.34 4.4235 231.34 3.52832ZM237.345 7.09766C236.782 7.09766 236.29 6.99349 235.87 6.78516C235.45 6.57682 235.125 6.27897 234.894 5.8916C234.662 5.50423 234.547 5.04036 234.547 4.5V0.120117H235.479V4.42188C235.479 5.05013 235.639 5.52702 235.958 5.85254C236.277 6.17806 236.738 6.34082 237.34 6.34082C237.958 6.34082 238.438 6.17318 238.78 5.83789C239.125 5.49935 239.298 5.00618 239.298 4.3584V0.120117H240.226V4.41211C240.226 4.96875 240.107 5.44727 239.869 5.84766C239.635 6.24805 239.301 6.55729 238.868 6.77539C238.438 6.99023 237.931 7.09766 237.345 7.09766ZM247.538 4.21191V7H246.605V0.120117H251.493V0.881836H247.538V3.44043H251.376V4.21191H247.538ZM254.651 4.14355V7H253.719V0.120117H256.956C257.731 0.120117 258.328 0.294271 258.748 0.642578C259.171 0.98763 259.383 1.4694 259.383 2.08789C259.383 2.59896 259.233 3.02865 258.934 3.37695C258.637 3.72526 258.227 3.94499 257.703 4.03613L259.656 7H258.582L256.795 4.14355H254.651ZM258.445 2.09766C258.445 1.69727 258.309 1.3929 258.035 1.18457C257.765 0.972982 257.374 0.867188 256.863 0.867188H254.651V3.40625H256.902C257.394 3.40625 257.773 3.29232 258.04 3.06445C258.31 2.83333 258.445 2.51107 258.445 2.09766ZM268.425 3.52832C268.425 4.264 268.285 4.89876 268.005 5.43262C267.728 5.96647 267.334 6.37826 266.823 6.66797C266.312 6.95443 265.707 7.09766 265.007 7.09766C264.304 7.09766 263.697 6.95443 263.186 6.66797C262.678 6.38151 262.285 5.97135 262.009 5.4375C261.735 4.90365 261.599 4.26725 261.599 3.52832C261.599 2.79264 261.734 2.16439 262.004 1.64355C262.277 1.11947 262.668 0.717448 263.176 0.4375C263.687 0.157552 264.3 0.0175781 265.017 0.0175781C265.72 0.0175781 266.325 0.155924 266.833 0.432617C267.344 0.70931 267.736 1.1097 268.01 1.63379C268.286 2.15462 268.425 2.78613 268.425 3.52832ZM267.473 3.52832C267.473 2.6722 267.258 2 266.828 1.51172C266.402 1.02344 265.798 0.779297 265.017 0.779297C264.229 0.779297 263.62 1.02018 263.19 1.50195C262.761 1.98372 262.546 2.65918 262.546 3.52832C262.546 4.10124 262.644 4.59928 262.839 5.02246C263.034 5.44238 263.316 5.7679 263.684 5.99902C264.051 6.22689 264.493 6.34082 265.007 6.34082C265.801 6.34082 266.41 6.09668 266.833 5.6084C267.259 5.11686 267.473 4.4235 267.473 3.52832ZM271.559 2.41016V7H270.729V0.120117H271.954L273.785 4.89062C273.85 5.08268 273.912 5.28939 273.971 5.51074C274.033 5.72884 274.073 5.88672 274.093 5.98438C274.112 5.89648 274.145 5.77604 274.19 5.62305C274.236 5.4668 274.282 5.31706 274.327 5.17383C274.373 5.0306 274.405 4.9362 274.425 4.89062L276.222 0.120117H277.418V7H276.578V2.41016C276.578 2.15625 276.581 1.90723 276.588 1.66309C276.598 1.41895 276.609 1.17969 276.622 0.945312C276.541 1.23503 276.464 1.49544 276.393 1.72656C276.324 1.95443 276.257 2.14974 276.192 2.3125L274.415 7H273.761L271.959 2.3125L271.524 0.945312C271.531 1.18945 271.537 1.43359 271.544 1.67773C271.554 1.92188 271.559 2.16602 271.559 2.41016ZM284.242 4.98828L283.451 7H282.484L285.292 0.120117H286.352L289.115 7H288.163L287.377 4.98828H284.242ZM285.81 0.823242C285.754 1.00553 285.688 1.20898 285.609 1.43359C285.535 1.65495 285.465 1.85026 285.399 2.01953L284.525 4.26074H287.099L286.215 1.99023C286.169 1.8763 286.109 1.71517 286.034 1.50684C285.959 1.2985 285.884 1.07064 285.81 0.823242ZM295.364 6.23828V7H290.955V0.120117H291.888V6.23828H295.364ZM301.931 6.23828V7H297.521V0.120117H298.454V6.23828H301.931ZM313.979 3.52832C313.979 4.264 313.84 4.89876 313.56 5.43262C313.283 5.96647 312.889 6.37826 312.378 6.66797C311.867 6.95443 311.261 7.09766 310.562 7.09766C309.858 7.09766 309.251 6.95443 308.74 6.66797C308.232 6.38151 307.84 5.97135 307.563 5.4375C307.29 4.90365 307.153 4.26725 307.153 3.52832C307.153 2.79264 307.288 2.16439 307.559 1.64355C307.832 1.11947 308.223 0.717448 308.73 0.4375C309.242 0.157552 309.855 0.0175781 310.571 0.0175781C311.274 0.0175781 311.88 0.155924 312.388 0.432617C312.899 0.70931 313.291 1.1097 313.564 1.63379C313.841 2.15462 313.979 2.78613 313.979 3.52832ZM313.027 3.52832C313.027 2.6722 312.812 2 312.383 1.51172C311.956 1.02344 311.353 0.779297 310.571 0.779297C309.784 0.779297 309.175 1.02018 308.745 1.50195C308.315 1.98372 308.101 2.65918 308.101 3.52832C308.101 4.10124 308.198 4.59928 308.394 5.02246C308.589 5.44238 308.87 5.7679 309.238 5.99902C309.606 6.22689 310.047 6.34082 310.562 6.34082C311.356 6.34082 311.965 6.09668 312.388 5.6084C312.814 5.11686 313.027 4.4235 313.027 3.52832ZM317.216 4.21191V7H316.283V0.120117H321.171V0.881836H317.216V3.44043H321.054V4.21191H317.216ZM329.929 7.09766C329.366 7.09766 328.874 6.99349 328.454 6.78516C328.034 6.57682 327.709 6.27897 327.478 5.8916C327.246 5.50423 327.131 5.04036 327.131 4.5V0.120117H328.063V4.42188C328.063 5.05013 328.223 5.52702 328.542 5.85254C328.861 6.17806 329.322 6.34082 329.924 6.34082C330.542 6.34082 331.022 6.17318 331.364 5.83789C331.709 5.49935 331.882 5.00618 331.882 4.3584V0.120117H332.81V4.41211C332.81 4.96875 332.691 5.44727 332.453 5.84766C332.219 6.24805 331.885 6.55729 331.452 6.77539C331.022 6.99023 330.515 7.09766 329.929 7.09766ZM340.797 5.10059C340.797 5.73535 340.548 6.22689 340.05 6.5752C339.555 6.9235 338.857 7.09766 337.955 7.09766C336.279 7.09766 335.307 6.51497 335.04 5.34961L335.943 5.16895C336.048 5.58236 336.269 5.88672 336.607 6.08203C336.946 6.27409 337.407 6.37012 337.989 6.37012C338.591 6.37012 339.055 6.26758 339.381 6.0625C339.71 5.85417 339.874 5.5498 339.874 5.14941C339.874 4.9248 339.822 4.74251 339.718 4.60254C339.617 4.46257 339.474 4.34701 339.288 4.25586C339.103 4.16471 338.881 4.08822 338.624 4.02637C338.367 3.96452 338.082 3.89779 337.77 3.82617C337.408 3.74479 337.105 3.66504 336.861 3.58691C336.62 3.50879 336.422 3.42741 336.266 3.34277C336.109 3.25488 335.976 3.16211 335.865 3.06445C335.702 2.91471 335.577 2.74056 335.489 2.54199C335.405 2.34342 335.362 2.11556 335.362 1.8584C335.362 1.26921 335.587 0.815104 336.036 0.496094C336.489 0.177083 337.135 0.0175781 337.975 0.0175781C338.756 0.0175781 339.353 0.138021 339.767 0.378906C340.18 0.616536 340.47 1.02344 340.636 1.59961L339.718 1.76074C339.617 1.39616 339.425 1.13249 339.142 0.969727C338.858 0.803711 338.466 0.720703 337.965 0.720703C337.415 0.720703 336.995 0.811849 336.705 0.994141C336.415 1.17643 336.271 1.44824 336.271 1.80957C336.271 2.02116 336.326 2.19694 336.437 2.33691C336.55 2.47363 336.713 2.58919 336.925 2.68359C337.123 2.77799 337.545 2.89681 338.189 3.04004C338.453 3.10189 338.714 3.16699 338.971 3.23535C339.228 3.30046 339.47 3.38346 339.698 3.48438C339.832 3.53971 339.959 3.60807 340.079 3.68945C340.203 3.76758 340.31 3.85872 340.401 3.96289C340.525 4.09961 340.621 4.26074 340.689 4.44629C340.761 4.63184 340.797 4.84993 340.797 5.10059ZM344.121 5.93066V7H343.169V5.93066H344.121ZM353.152 0.881836V7H352.225V0.881836H349.861V0.120117H355.516V0.881836H353.152ZM358.503 3.81152V7H357.57V0.120117H358.503V3.03027H362.224V0.120117H363.156V7H362.224V3.81152H358.503ZM366.754 4.98828L365.963 7H364.996L367.804 0.120117H368.863L371.627 7H370.675L369.889 4.98828H366.754ZM368.321 0.823242C368.266 1.00553 368.199 1.20898 368.121 1.43359C368.046 1.65495 367.976 1.85026 367.911 2.01953L367.037 4.26074H369.61L368.727 1.99023C368.681 1.8763 368.621 1.71517 368.546 1.50684C368.471 1.2985 368.396 1.07064 368.321 0.823242ZM374.297 2.42969V7H373.467V0.120117H374.551L378.271 6.01855C378.232 5.37728 378.213 4.91504 378.213 4.63184V0.120117H379.053V7H377.93L374.248 1.14062C374.255 1.35547 374.264 1.57031 374.277 1.78516C374.29 2 374.297 2.21484 374.297 2.42969ZM382.626 4.36328V7H381.693V0.120117H382.626V3.56738L385.941 0.120117H387.04L384.11 3.1084L387.431 7H386.273L383.524 3.67969L382.626 4.36328ZM395.935 4.14844V7H395.007V4.14844L392.36 0.120117H393.386L395.48 3.39648L397.565 0.120117H398.591L395.935 4.14844ZM407.11 3.52832C407.11 4.264 406.97 4.89876 406.69 5.43262C406.414 5.96647 406.02 6.37826 405.509 6.66797C404.998 6.95443 404.392 7.09766 403.692 7.09766C402.989 7.09766 402.382 6.95443 401.871 6.66797C401.363 6.38151 400.971 5.97135 400.694 5.4375C400.421 4.90365 400.284 4.26725 400.284 3.52832C400.284 2.79264 400.419 2.16439 400.689 1.64355C400.963 1.11947 401.354 0.717448 401.861 0.4375C402.372 0.157552 402.986 0.0175781 403.702 0.0175781C404.405 0.0175781 405.011 0.155924 405.519 0.432617C406.03 0.70931 406.422 1.1097 406.695 1.63379C406.972 2.15462 407.11 2.78613 407.11 3.52832ZM406.158 3.52832C406.158 2.6722 405.943 2 405.514 1.51172C405.087 1.02344 404.483 0.779297 403.702 0.779297C402.914 0.779297 402.306 1.02018 401.876 1.50195C401.446 1.98372 401.231 2.65918 401.231 3.52832C401.231 4.10124 401.329 4.59928 401.524 5.02246C401.72 5.44238 402.001 5.7679 402.369 5.99902C402.737 6.22689 403.178 6.34082 403.692 6.34082C404.487 6.34082 405.095 6.09668 405.519 5.6084C405.945 5.11686 406.158 4.4235 406.158 3.52832ZM412.163 7.09766C411.6 7.09766 411.108 6.99349 410.688 6.78516C410.269 6.57682 409.943 6.27897 409.712 5.8916C409.481 5.50423 409.365 5.04036 409.365 4.5V0.120117H410.298V4.42188C410.298 5.05013 410.457 5.52702 410.776 5.85254C411.095 6.17806 411.556 6.34082 412.158 6.34082C412.777 6.34082 413.257 6.17318 413.599 5.83789C413.944 5.49935 414.116 5.00618 414.116 4.3584V0.120117H415.044V4.41211C415.044 4.96875 414.925 5.44727 414.688 5.84766C414.453 6.24805 414.119 6.55729 413.687 6.77539C413.257 6.99023 412.749 7.09766 412.163 7.09766ZM422.356 4.21191V7H421.424V0.120117H426.312V0.881836H422.356V3.44043H426.194V4.21191H422.356ZM429.47 4.14355V7H428.537V0.120117H431.774C432.549 0.120117 433.146 0.294271 433.566 0.642578C433.99 0.98763 434.201 1.4694 434.201 2.08789C434.201 2.59896 434.051 3.02865 433.752 3.37695C433.456 3.72526 433.046 3.94499 432.521 4.03613L434.475 7H433.4L431.613 4.14355H429.47ZM433.264 2.09766C433.264 1.69727 433.127 1.3929 432.854 1.18457C432.583 0.972982 432.193 0.867188 431.682 0.867188H429.47V3.40625H431.721C432.212 3.40625 432.591 3.29232 432.858 3.06445C433.129 2.83333 433.264 2.51107 433.264 2.09766ZM443.243 3.52832C443.243 4.264 443.103 4.89876 442.823 5.43262C442.547 5.96647 442.153 6.37826 441.642 6.66797C441.131 6.95443 440.525 7.09766 439.825 7.09766C439.122 7.09766 438.515 6.95443 438.004 6.66797C437.496 6.38151 437.104 5.97135 436.827 5.4375C436.554 4.90365 436.417 4.26725 436.417 3.52832C436.417 2.79264 436.552 2.16439 436.822 1.64355C437.096 1.11947 437.486 0.717448 437.994 0.4375C438.505 0.157552 439.119 0.0175781 439.835 0.0175781C440.538 0.0175781 441.144 0.155924 441.651 0.432617C442.162 0.70931 442.555 1.1097 442.828 1.63379C443.105 2.15462 443.243 2.78613 443.243 3.52832ZM442.291 3.52832C442.291 2.6722 442.076 2 441.646 1.51172C441.22 1.02344 440.616 0.779297 439.835 0.779297C439.047 0.779297 438.438 1.02018 438.009 1.50195C437.579 1.98372 437.364 2.65918 437.364 3.52832C437.364 4.10124 437.462 4.59928 437.657 5.02246C437.853 5.44238 438.134 5.7679 438.502 5.99902C438.87 6.22689 439.311 6.34082 439.825 6.34082C440.619 6.34082 441.228 6.09668 441.651 5.6084C442.078 5.11686 442.291 4.4235 442.291 3.52832ZM446.377 2.41016V7H445.547V0.120117H446.772L448.604 4.89062C448.669 5.08268 448.73 5.28939 448.789 5.51074C448.851 5.72884 448.892 5.88672 448.911 5.98438C448.931 5.89648 448.963 5.77604 449.009 5.62305C449.054 5.4668 449.1 5.31706 449.146 5.17383C449.191 5.0306 449.224 4.9362 449.243 4.89062L451.04 0.120117H452.236V7H451.396V2.41016C451.396 2.15625 451.4 1.90723 451.406 1.66309C451.416 1.41895 451.427 1.17969 451.44 0.945312C451.359 1.23503 451.283 1.49544 451.211 1.72656C451.143 1.95443 451.076 2.14974 451.011 2.3125L449.233 7H448.579L446.777 2.3125L446.343 0.945312C446.349 1.18945 446.356 1.43359 446.362 1.67773C446.372 1.92188 446.377 2.16602 446.377 2.41016ZM459.061 4.98828L458.27 7H457.303L460.11 0.120117H461.17L463.934 7H462.981L462.195 4.98828H459.061ZM460.628 0.823242C460.573 1.00553 460.506 1.20898 460.428 1.43359C460.353 1.65495 460.283 1.85026 460.218 2.01953L459.344 4.26074H461.917L461.033 1.99023C460.988 1.8763 460.927 1.71517 460.853 1.50684C460.778 1.2985 460.703 1.07064 460.628 0.823242ZM470.183 6.23828V7H465.773V0.120117H466.706V6.23828H470.183ZM476.749 6.23828V7H472.34V0.120117H473.272V6.23828H476.749ZM488.798 3.52832C488.798 4.264 488.658 4.89876 488.378 5.43262C488.101 5.96647 487.707 6.37826 487.196 6.66797C486.685 6.95443 486.08 7.09766 485.38 7.09766C484.677 7.09766 484.07 6.95443 483.559 6.66797C483.051 6.38151 482.659 5.97135 482.382 5.4375C482.108 4.90365 481.972 4.26725 481.972 3.52832C481.972 2.79264 482.107 2.16439 482.377 1.64355C482.65 1.11947 483.041 0.717448 483.549 0.4375C484.06 0.157552 484.674 0.0175781 485.39 0.0175781C486.093 0.0175781 486.698 0.155924 487.206 0.432617C487.717 0.70931 488.109 1.1097 488.383 1.63379C488.66 2.15462 488.798 2.78613 488.798 3.52832ZM487.846 3.52832C487.846 2.6722 487.631 2 487.201 1.51172C486.775 1.02344 486.171 0.779297 485.39 0.779297C484.602 0.779297 483.993 1.02018 483.563 1.50195C483.134 1.98372 482.919 2.65918 482.919 3.52832C482.919 4.10124 483.017 4.59928 483.212 5.02246C483.407 5.44238 483.689 5.7679 484.057 5.99902C484.424 6.22689 484.866 6.34082 485.38 6.34082C486.174 6.34082 486.783 6.09668 487.206 5.6084C487.632 5.11686 487.846 4.4235 487.846 3.52832ZM492.034 4.21191V7H491.102V0.120117H495.989V0.881836H492.034V3.44043H495.872V4.21191H492.034ZM504.747 7.09766C504.184 7.09766 503.692 6.99349 503.272 6.78516C502.853 6.57682 502.527 6.27897 502.296 5.8916C502.065 5.50423 501.949 5.04036 501.949 4.5V0.120117H502.882V4.42188C502.882 5.05013 503.041 5.52702 503.36 5.85254C503.679 6.17806 504.14 6.34082 504.742 6.34082C505.361 6.34082 505.841 6.17318 506.183 5.83789C506.528 5.49935 506.7 5.00618 506.7 4.3584V0.120117H507.628V4.41211C507.628 4.96875 507.509 5.44727 507.271 5.84766C507.037 6.24805 506.703 6.55729 506.271 6.77539C505.841 6.99023 505.333 7.09766 504.747 7.09766ZM515.615 5.10059C515.615 5.73535 515.366 6.22689 514.868 6.5752C514.373 6.9235 513.675 7.09766 512.773 7.09766C511.097 7.09766 510.125 6.51497 509.858 5.34961L510.762 5.16895C510.866 5.58236 511.087 5.88672 511.426 6.08203C511.764 6.27409 512.225 6.37012 512.808 6.37012C513.41 6.37012 513.874 6.26758 514.199 6.0625C514.528 5.85417 514.692 5.5498 514.692 5.14941C514.692 4.9248 514.64 4.74251 514.536 4.60254C514.435 4.46257 514.292 4.34701 514.106 4.25586C513.921 4.16471 513.7 4.08822 513.442 4.02637C513.185 3.96452 512.9 3.89779 512.588 3.82617C512.227 3.74479 511.924 3.66504 511.68 3.58691C511.439 3.50879 511.24 3.42741 511.084 3.34277C510.928 3.25488 510.794 3.16211 510.684 3.06445C510.521 2.91471 510.396 2.74056 510.308 2.54199C510.223 2.34342 510.181 2.11556 510.181 1.8584C510.181 1.26921 510.405 0.815104 510.854 0.496094C511.307 0.177083 511.953 0.0175781 512.793 0.0175781C513.574 0.0175781 514.172 0.138021 514.585 0.378906C514.998 0.616536 515.288 1.02344 515.454 1.59961L514.536 1.76074C514.435 1.39616 514.243 1.13249 513.96 0.969727C513.677 0.803711 513.285 0.720703 512.783 0.720703C512.233 0.720703 511.813 0.811849 511.523 0.994141C511.234 1.17643 511.089 1.44824 511.089 1.80957C511.089 2.02116 511.144 2.19694 511.255 2.33691C511.369 2.47363 511.532 2.58919 511.743 2.68359C511.942 2.77799 512.363 2.89681 513.008 3.04004C513.271 3.10189 513.532 3.16699 513.789 3.23535C514.046 3.30046 514.289 3.38346 514.517 3.48438C514.65 3.53971 514.777 3.60807 514.897 3.68945C515.021 3.76758 515.129 3.85872 515.22 3.96289C515.343 4.09961 515.439 4.26074 515.508 4.44629C515.579 4.63184 515.615 4.84993 515.615 5.10059ZM518.939 5.93066V7H517.987V5.93066H518.939ZM527.971 0.881836V7H527.043V0.881836H524.68V0.120117H530.334V0.881836H527.971ZM533.321 3.81152V7H532.389V0.120117H533.321V3.03027H537.042V0.120117H537.975V7H537.042V3.81152H533.321ZM541.572 4.98828L540.781 7H539.814L542.622 0.120117H543.682L546.445 7H545.493L544.707 4.98828H541.572ZM543.14 0.823242C543.084 1.00553 543.018 1.20898 542.939 1.43359C542.865 1.65495 542.795 1.85026 542.729 2.01953L541.855 4.26074H544.429L543.545 1.99023C543.499 1.8763 543.439 1.71517 543.364 1.50684C543.289 1.2985 543.215 1.07064 543.14 0.823242ZM549.115 2.42969V7H548.285V0.120117H549.369L553.09 6.01855C553.051 5.37728 553.031 4.91504 553.031 4.63184V0.120117H553.871V7H552.748L549.066 1.14062C549.073 1.35547 549.083 1.57031 549.096 1.78516C549.109 2 549.115 2.21484 549.115 2.42969ZM557.444 4.36328V7H556.512V0.120117H557.444V3.56738L560.76 0.120117H561.858L558.929 3.1084L562.249 7H561.092L558.343 3.67969L557.444 4.36328ZM570.753 4.14844V7H569.825V4.14844L567.179 0.120117H568.204L570.299 3.39648L572.384 0.120117H573.409L570.753 4.14844ZM581.929 3.52832C581.929 4.264 581.789 4.89876 581.509 5.43262C581.232 5.96647 580.838 6.37826 580.327 6.66797C579.816 6.95443 579.211 7.09766 578.511 7.09766C577.808 7.09766 577.201 6.95443 576.689 6.66797C576.182 6.38151 575.789 5.97135 575.513 5.4375C575.239 4.90365 575.103 4.26725 575.103 3.52832C575.103 2.79264 575.238 2.16439 575.508 1.64355C575.781 1.11947 576.172 0.717448 576.68 0.4375C577.191 0.157552 577.804 0.0175781 578.521 0.0175781C579.224 0.0175781 579.829 0.155924 580.337 0.432617C580.848 0.70931 581.24 1.1097 581.514 1.63379C581.79 2.15462 581.929 2.78613 581.929 3.52832ZM580.977 3.52832C580.977 2.6722 580.762 2 580.332 1.51172C579.906 1.02344 579.302 0.779297 578.521 0.779297C577.733 0.779297 577.124 1.02018 576.694 1.50195C576.265 1.98372 576.05 2.65918 576.05 3.52832C576.05 4.10124 576.147 4.59928 576.343 5.02246C576.538 5.44238 576.82 5.7679 577.188 5.99902C577.555 6.22689 577.996 6.34082 578.511 6.34082C579.305 6.34082 579.914 6.09668 580.337 5.6084C580.763 5.11686 580.977 4.4235 580.977 3.52832ZM586.981 7.09766C586.418 7.09766 585.927 6.99349 585.507 6.78516C585.087 6.57682 584.761 6.27897 584.53 5.8916C584.299 5.50423 584.184 5.04036 584.184 4.5V0.120117H585.116V4.42188C585.116 5.05013 585.276 5.52702 585.595 5.85254C585.914 6.17806 586.374 6.34082 586.977 6.34082C587.595 6.34082 588.075 6.17318 588.417 5.83789C588.762 5.49935 588.935 5.00618 588.935 4.3584V0.120117H589.862V4.41211C589.862 4.96875 589.743 5.44727 589.506 5.84766C589.271 6.24805 588.938 6.55729 588.505 6.77539C588.075 6.99023 587.567 7.09766 586.981 7.09766ZM597.175 4.21191V7H596.242V0.120117H601.13V0.881836H597.175V3.44043H601.013V4.21191H597.175ZM604.288 4.14355V7H603.355V0.120117H606.593C607.368 0.120117 607.965 0.294271 608.385 0.642578C608.808 0.98763 609.02 1.4694 609.02 2.08789C609.02 2.59896 608.87 3.02865 608.57 3.37695C608.274 3.72526 607.864 3.94499 607.34 4.03613L609.293 7H608.219L606.432 4.14355H604.288ZM608.082 2.09766C608.082 1.69727 607.945 1.3929 607.672 1.18457C607.402 0.972982 607.011 0.867188 606.5 0.867188H604.288V3.40625H606.539C607.031 3.40625 607.41 3.29232 607.677 3.06445C607.947 2.83333 608.082 2.51107 608.082 2.09766ZM618.062 3.52832C618.062 4.264 617.922 4.89876 617.642 5.43262C617.365 5.96647 616.971 6.37826 616.46 6.66797C615.949 6.95443 615.343 7.09766 614.644 7.09766C613.94 7.09766 613.333 6.95443 612.822 6.66797C612.314 6.38151 611.922 5.97135 611.646 5.4375C611.372 4.90365 611.235 4.26725 611.235 3.52832C611.235 2.79264 611.37 2.16439 611.641 1.64355C611.914 1.11947 612.305 0.717448 612.812 0.4375C613.324 0.157552 613.937 0.0175781 614.653 0.0175781C615.356 0.0175781 615.962 0.155924 616.47 0.432617C616.981 0.70931 617.373 1.1097 617.646 1.63379C617.923 2.15462 618.062 2.78613 618.062 3.52832ZM617.109 3.52832C617.109 2.6722 616.895 2 616.465 1.51172C616.038 1.02344 615.435 0.779297 614.653 0.779297C613.866 0.779297 613.257 1.02018 612.827 1.50195C612.397 1.98372 612.183 2.65918 612.183 3.52832C612.183 4.10124 612.28 4.59928 612.476 5.02246C612.671 5.44238 612.952 5.7679 613.32 5.99902C613.688 6.22689 614.129 6.34082 614.644 6.34082C615.438 6.34082 616.047 6.09668 616.47 5.6084C616.896 5.11686 617.109 4.4235 617.109 3.52832ZM621.195 2.41016V7H620.365V0.120117H621.591L623.422 4.89062C623.487 5.08268 623.549 5.28939 623.607 5.51074C623.669 5.72884 623.71 5.88672 623.729 5.98438C623.749 5.89648 623.782 5.77604 623.827 5.62305C623.873 5.4668 623.918 5.31706 623.964 5.17383C624.009 5.0306 624.042 4.9362 624.062 4.89062L625.858 0.120117H627.055V7H626.215V2.41016C626.215 2.15625 626.218 1.90723 626.225 1.66309C626.234 1.41895 626.246 1.17969 626.259 0.945312C626.177 1.23503 626.101 1.49544 626.029 1.72656C625.961 1.95443 625.894 2.14974 625.829 2.3125L624.052 7H623.397L621.596 2.3125L621.161 0.945312C621.168 1.18945 621.174 1.43359 621.181 1.67773C621.19 1.92188 621.195 2.16602 621.195 2.41016ZM633.879 4.98828L633.088 7H632.121L634.929 0.120117H635.988L638.752 7H637.8L637.014 4.98828H633.879ZM635.446 0.823242C635.391 1.00553 635.324 1.20898 635.246 1.43359C635.171 1.65495 635.101 1.85026 635.036 2.01953L634.162 4.26074H636.735L635.852 1.99023C635.806 1.8763 635.746 1.71517 635.671 1.50684C635.596 1.2985 635.521 1.07064 635.446 0.823242ZM645.001 6.23828V7H640.592V0.120117H641.524V6.23828H645.001ZM651.567 6.23828V7H647.158V0.120117H648.091V6.23828H651.567ZM663.616 3.52832C663.616 4.264 663.476 4.89876 663.196 5.43262C662.92 5.96647 662.526 6.37826 662.015 6.66797C661.504 6.95443 660.898 7.09766 660.198 7.09766C659.495 7.09766 658.888 6.95443 658.377 6.66797C657.869 6.38151 657.477 5.97135 657.2 5.4375C656.927 4.90365 656.79 4.26725 656.79 3.52832C656.79 2.79264 656.925 2.16439 657.195 1.64355C657.469 1.11947 657.859 0.717448 658.367 0.4375C658.878 0.157552 659.492 0.0175781 660.208 0.0175781C660.911 0.0175781 661.517 0.155924 662.024 0.432617C662.535 0.70931 662.928 1.1097 663.201 1.63379C663.478 2.15462 663.616 2.78613 663.616 3.52832ZM662.664 3.52832C662.664 2.6722 662.449 2 662.02 1.51172C661.593 1.02344 660.989 0.779297 660.208 0.779297C659.42 0.779297 658.812 1.02018 658.382 1.50195C657.952 1.98372 657.737 2.65918 657.737 3.52832C657.737 4.10124 657.835 4.59928 658.03 5.02246C658.226 5.44238 658.507 5.7679 658.875 5.99902C659.243 6.22689 659.684 6.34082 660.198 6.34082C660.993 6.34082 661.601 6.09668 662.024 5.6084C662.451 5.11686 662.664 4.4235 662.664 3.52832ZM666.853 4.21191V7H665.92V0.120117H670.808V0.881836H666.853V3.44043H670.69V4.21191H666.853ZM679.565 7.09766C679.002 7.09766 678.511 6.99349 678.091 6.78516C677.671 6.57682 677.345 6.27897 677.114 5.8916C676.883 5.50423 676.768 5.04036 676.768 4.5V0.120117H677.7V4.42188C677.7 5.05013 677.86 5.52702 678.179 5.85254C678.498 6.17806 678.958 6.34082 679.561 6.34082C680.179 6.34082 680.659 6.17318 681.001 5.83789C681.346 5.49935 681.519 5.00618 681.519 4.3584V0.120117H682.446V4.41211C682.446 4.96875 682.327 5.44727 682.09 5.84766C681.855 6.24805 681.522 6.55729 681.089 6.77539C680.659 6.99023 680.151 7.09766 679.565 7.09766ZM690.434 5.10059C690.434 5.73535 690.185 6.22689 689.687 6.5752C689.192 6.9235 688.493 7.09766 687.592 7.09766C685.915 7.09766 684.944 6.51497 684.677 5.34961L685.58 5.16895C685.684 5.58236 685.906 5.88672 686.244 6.08203C686.583 6.27409 687.043 6.37012 687.626 6.37012C688.228 6.37012 688.692 6.26758 689.018 6.0625C689.346 5.85417 689.511 5.5498 689.511 5.14941C689.511 4.9248 689.459 4.74251 689.354 4.60254C689.254 4.46257 689.11 4.34701 688.925 4.25586C688.739 4.16471 688.518 4.08822 688.261 4.02637C688.004 3.96452 687.719 3.89779 687.406 3.82617C687.045 3.74479 686.742 3.66504 686.498 3.58691C686.257 3.50879 686.059 3.42741 685.902 3.34277C685.746 3.25488 685.613 3.16211 685.502 3.06445C685.339 2.91471 685.214 2.74056 685.126 2.54199C685.041 2.34342 684.999 2.11556 684.999 1.8584C684.999 1.26921 685.224 0.815104 685.673 0.496094C686.125 0.177083 686.771 0.0175781 687.611 0.0175781C688.393 0.0175781 688.99 0.138021 689.403 0.378906C689.817 0.616536 690.106 1.02344 690.272 1.59961L689.354 1.76074C689.254 1.39616 689.062 1.13249 688.778 0.969727C688.495 0.803711 688.103 0.720703 687.602 0.720703C687.051 0.720703 686.632 0.811849 686.342 0.994141C686.052 1.17643 685.907 1.44824 685.907 1.80957C685.907 2.02116 685.963 2.19694 686.073 2.33691C686.187 2.47363 686.35 2.58919 686.562 2.68359C686.76 2.77799 687.182 2.89681 687.826 3.04004C688.09 3.10189 688.35 3.16699 688.607 3.23535C688.865 3.30046 689.107 3.38346 689.335 3.48438C689.468 3.53971 689.595 3.60807 689.716 3.68945C689.84 3.76758 689.947 3.85872 690.038 3.96289C690.162 4.09961 690.258 4.26074 690.326 4.44629C690.398 4.63184 690.434 4.84993 690.434 5.10059ZM693.758 5.93066V7H692.806V5.93066H693.758ZM702.789 0.881836V7H701.861V0.881836H699.498V0.120117H705.152V0.881836H702.789ZM708.14 3.81152V7H707.207V0.120117H708.14V3.03027H711.86V0.120117H712.793V7H711.86V3.81152H708.14ZM716.391 4.98828L715.6 7H714.633L717.44 0.120117H718.5L721.264 7H720.312L719.525 4.98828H716.391ZM717.958 0.823242C717.903 1.00553 717.836 1.20898 717.758 1.43359C717.683 1.65495 717.613 1.85026 717.548 2.01953L716.674 4.26074H719.247L718.363 1.99023C718.318 1.8763 718.257 1.71517 718.183 1.50684C718.108 1.2985 718.033 1.07064 717.958 0.823242ZM723.934 2.42969V7H723.104V0.120117H724.188L727.908 6.01855C727.869 5.37728 727.85 4.91504 727.85 4.63184V0.120117H728.689V7H727.566L723.885 1.14062C723.891 1.35547 723.901 1.57031 723.914 1.78516C723.927 2 723.934 2.21484 723.934 2.42969ZM732.263 4.36328V7H731.33V0.120117H732.263V3.56738L735.578 0.120117H736.677L733.747 3.1084L737.067 7H735.91L733.161 3.67969L732.263 4.36328ZM745.571 4.14844V7H744.644V4.14844L741.997 0.120117H743.022L745.117 3.39648L747.202 0.120117H748.228L745.571 4.14844ZM756.747 3.52832C756.747 4.264 756.607 4.89876 756.327 5.43262C756.05 5.96647 755.657 6.37826 755.146 6.66797C754.634 6.95443 754.029 7.09766 753.329 7.09766C752.626 7.09766 752.019 6.95443 751.508 6.66797C751 6.38151 750.608 5.97135 750.331 5.4375C750.058 4.90365 749.921 4.26725 749.921 3.52832C749.921 2.79264 750.056 2.16439 750.326 1.64355C750.6 1.11947 750.99 0.717448 751.498 0.4375C752.009 0.157552 752.623 0.0175781 753.339 0.0175781C754.042 0.0175781 754.647 0.155924 755.155 0.432617C755.666 0.70931 756.059 1.1097 756.332 1.63379C756.609 2.15462 756.747 2.78613 756.747 3.52832ZM755.795 3.52832C755.795 2.6722 755.58 2 755.15 1.51172C754.724 1.02344 754.12 0.779297 753.339 0.779297C752.551 0.779297 751.942 1.02018 751.513 1.50195C751.083 1.98372 750.868 2.65918 750.868 3.52832C750.868 4.10124 750.966 4.59928 751.161 5.02246C751.356 5.44238 751.638 5.7679 752.006 5.99902C752.374 6.22689 752.815 6.34082 753.329 6.34082C754.123 6.34082 754.732 6.09668 755.155 5.6084C755.582 5.11686 755.795 4.4235 755.795 3.52832ZM761.8 7.09766C761.237 7.09766 760.745 6.99349 760.325 6.78516C759.905 6.57682 759.58 6.27897 759.349 5.8916C759.118 5.50423 759.002 5.04036 759.002 4.5V0.120117H759.935V4.42188C759.935 5.05013 760.094 5.52702 760.413 5.85254C760.732 6.17806 761.193 6.34082 761.795 6.34082C762.413 6.34082 762.894 6.17318 763.235 5.83789C763.58 5.49935 763.753 5.00618 763.753 4.3584V0.120117H764.681V4.41211C764.681 4.96875 764.562 5.44727 764.324 5.84766C764.09 6.24805 763.756 6.55729 763.323 6.77539C762.894 6.99023 762.386 7.09766 761.8 7.09766ZM771.993 4.21191V7H771.061V0.120117H775.948V0.881836H771.993V3.44043H775.831V4.21191H771.993ZM779.106 4.14355V7H778.174V0.120117H781.411C782.186 0.120117 782.783 0.294271 783.203 0.642578C783.626 0.98763 783.838 1.4694 783.838 2.08789C783.838 2.59896 783.688 3.02865 783.389 3.37695C783.092 3.72526 782.682 3.94499 782.158 4.03613L784.111 7H783.037L781.25 4.14355H779.106ZM782.9 2.09766C782.9 1.69727 782.764 1.3929 782.49 1.18457C782.22 0.972982 781.829 0.867188 781.318 0.867188H779.106V3.40625H781.357C781.849 3.40625 782.228 3.29232 782.495 3.06445C782.765 2.83333 782.9 2.51107 782.9 2.09766ZM792.88 3.52832C792.88 4.264 792.74 4.89876 792.46 5.43262C792.183 5.96647 791.789 6.37826 791.278 6.66797C790.767 6.95443 790.162 7.09766 789.462 7.09766C788.759 7.09766 788.152 6.95443 787.641 6.66797C787.133 6.38151 786.741 5.97135 786.464 5.4375C786.19 4.90365 786.054 4.26725 786.054 3.52832C786.054 2.79264 786.189 2.16439 786.459 1.64355C786.732 1.11947 787.123 0.717448 787.631 0.4375C788.142 0.157552 788.756 0.0175781 789.472 0.0175781C790.175 0.0175781 790.78 0.155924 791.288 0.432617C791.799 0.70931 792.191 1.1097 792.465 1.63379C792.742 2.15462 792.88 2.78613 792.88 3.52832ZM791.928 3.52832C791.928 2.6722 791.713 2 791.283 1.51172C790.857 1.02344 790.253 0.779297 789.472 0.779297C788.684 0.779297 788.075 1.02018 787.646 1.50195C787.216 1.98372 787.001 2.65918 787.001 3.52832C787.001 4.10124 787.099 4.59928 787.294 5.02246C787.489 5.44238 787.771 5.7679 788.139 5.99902C788.507 6.22689 788.948 6.34082 789.462 6.34082C790.256 6.34082 790.865 6.09668 791.288 5.6084C791.715 5.11686 791.928 4.4235 791.928 3.52832ZM796.014 2.41016V7H795.184V0.120117H796.409L798.24 4.89062C798.305 5.08268 798.367 5.28939 798.426 5.51074C798.488 5.72884 798.528 5.88672 798.548 5.98438C798.567 5.89648 798.6 5.77604 798.646 5.62305C798.691 5.4668 798.737 5.31706 798.782 5.17383C798.828 5.0306 798.86 4.9362 798.88 4.89062L800.677 0.120117H801.873V7H801.033V2.41016C801.033 2.15625 801.036 1.90723 801.043 1.66309C801.053 1.41895 801.064 1.17969 801.077 0.945312C800.996 1.23503 800.919 1.49544 800.848 1.72656C800.779 1.95443 800.713 2.14974 800.647 2.3125L798.87 7H798.216L796.414 2.3125L795.979 0.945312C795.986 1.18945 795.993 1.43359 795.999 1.67773C796.009 1.92188 796.014 2.16602 796.014 2.41016ZM808.697 4.98828L807.906 7H806.939L809.747 0.120117H810.807L813.57 7H812.618L811.832 4.98828H808.697ZM810.265 0.823242C810.209 1.00553 810.143 1.20898 810.064 1.43359C809.99 1.65495 809.92 1.85026 809.854 2.01953L808.98 4.26074H811.554L810.67 1.99023C810.624 1.8763 810.564 1.71517 810.489 1.50684C810.414 1.2985 810.34 1.07064 810.265 0.823242ZM819.819 6.23828V7H815.41V0.120117H816.343V6.23828H819.819ZM826.386 6.23828V7H821.977V0.120117H822.909V6.23828H826.386ZM838.435 3.52832C838.435 4.264 838.295 4.89876 838.015 5.43262C837.738 5.96647 837.344 6.37826 836.833 6.66797C836.322 6.95443 835.716 7.09766 835.017 7.09766C834.313 7.09766 833.706 6.95443 833.195 6.66797C832.688 6.38151 832.295 5.97135 832.019 5.4375C831.745 4.90365 831.608 4.26725 831.608 3.52832C831.608 2.79264 831.743 2.16439 832.014 1.64355C832.287 1.11947 832.678 0.717448 833.186 0.4375C833.697 0.157552 834.31 0.0175781 835.026 0.0175781C835.729 0.0175781 836.335 0.155924 836.843 0.432617C837.354 0.70931 837.746 1.1097 838.02 1.63379C838.296 2.15462 838.435 2.78613 838.435 3.52832ZM837.482 3.52832C837.482 2.6722 837.268 2 836.838 1.51172C836.411 1.02344 835.808 0.779297 835.026 0.779297C834.239 0.779297 833.63 1.02018 833.2 1.50195C832.771 1.98372 832.556 2.65918 832.556 3.52832C832.556 4.10124 832.653 4.59928 832.849 5.02246C833.044 5.44238 833.326 5.7679 833.693 5.99902C834.061 6.22689 834.502 6.34082 835.017 6.34082C835.811 6.34082 836.42 6.09668 836.843 5.6084C837.269 5.11686 837.482 4.4235 837.482 3.52832ZM841.671 4.21191V7H840.738V0.120117H845.626V0.881836H841.671V3.44043H845.509V4.21191H841.671ZM854.384 7.09766C853.821 7.09766 853.329 6.99349 852.909 6.78516C852.489 6.57682 852.164 6.27897 851.933 5.8916C851.701 5.50423 851.586 5.04036 851.586 4.5V0.120117H852.519V4.42188C852.519 5.05013 852.678 5.52702 852.997 5.85254C853.316 6.17806 853.777 6.34082 854.379 6.34082C854.997 6.34082 855.478 6.17318 855.819 5.83789C856.164 5.49935 856.337 5.00618 856.337 4.3584V0.120117H857.265V4.41211C857.265 4.96875 857.146 5.44727 856.908 5.84766C856.674 6.24805 856.34 6.55729 855.907 6.77539C855.478 6.99023 854.97 7.09766 854.384 7.09766ZM865.252 5.10059C865.252 5.73535 865.003 6.22689 864.505 6.5752C864.01 6.9235 863.312 7.09766 862.41 7.09766C860.734 7.09766 859.762 6.51497 859.495 5.34961L860.398 5.16895C860.503 5.58236 860.724 5.88672 861.062 6.08203C861.401 6.27409 861.862 6.37012 862.444 6.37012C863.047 6.37012 863.51 6.26758 863.836 6.0625C864.165 5.85417 864.329 5.5498 864.329 5.14941C864.329 4.9248 864.277 4.74251 864.173 4.60254C864.072 4.46257 863.929 4.34701 863.743 4.25586C863.558 4.16471 863.336 4.08822 863.079 4.02637C862.822 3.96452 862.537 3.89779 862.225 3.82617C861.863 3.74479 861.561 3.66504 861.316 3.58691C861.076 3.50879 860.877 3.42741 860.721 3.34277C860.564 3.25488 860.431 3.16211 860.32 3.06445C860.158 2.91471 860.032 2.74056 859.944 2.54199C859.86 2.34342 859.817 2.11556 859.817 1.8584C859.817 1.26921 860.042 0.815104 860.491 0.496094C860.944 0.177083 861.59 0.0175781 862.43 0.0175781C863.211 0.0175781 863.808 0.138021 864.222 0.378906C864.635 0.616536 864.925 1.02344 865.091 1.59961L864.173 1.76074C864.072 1.39616 863.88 1.13249 863.597 0.969727C863.313 0.803711 862.921 0.720703 862.42 0.720703C861.87 0.720703 861.45 0.811849 861.16 0.994141C860.87 1.17643 860.726 1.44824 860.726 1.80957C860.726 2.02116 860.781 2.19694 860.892 2.33691C861.006 2.47363 861.168 2.58919 861.38 2.68359C861.578 2.77799 862 2.89681 862.645 3.04004C862.908 3.10189 863.169 3.16699 863.426 3.23535C863.683 3.30046 863.925 3.38346 864.153 3.48438C864.287 3.53971 864.414 3.60807 864.534 3.68945C864.658 3.76758 864.765 3.85872 864.856 3.96289C864.98 4.09961 865.076 4.26074 865.145 4.44629C865.216 4.63184 865.252 4.84993 865.252 5.10059ZM868.576 5.93066V7H867.624V5.93066H868.576ZM877.607 0.881836V7H876.68V0.881836H874.316V0.120117H879.971V0.881836H877.607ZM882.958 3.81152V7H882.025V0.120117H882.958V3.03027H886.679V0.120117H887.611V7H886.679V3.81152H882.958ZM891.209 4.98828L890.418 7H889.451L892.259 0.120117H893.318L896.082 7H895.13L894.344 4.98828H891.209ZM892.776 0.823242C892.721 1.00553 892.654 1.20898 892.576 1.43359C892.501 1.65495 892.431 1.85026 892.366 2.01953L891.492 4.26074H894.065L893.182 1.99023C893.136 1.8763 893.076 1.71517 893.001 1.50684C892.926 1.2985 892.851 1.07064 892.776 0.823242ZM898.752 2.42969V7H897.922V0.120117H899.006L902.727 6.01855C902.688 5.37728 902.668 4.91504 902.668 4.63184V0.120117H903.508V7H902.385L898.703 1.14062C898.71 1.35547 898.719 1.57031 898.732 1.78516C898.745 2 898.752 2.21484 898.752 2.42969ZM907.081 4.36328V7H906.148V0.120117H907.081V3.56738L910.396 0.120117H911.495L908.565 3.1084L911.886 7H910.729L907.979 3.67969L907.081 4.36328ZM920.39 4.14844V7H919.462V4.14844L916.815 0.120117H917.841L919.936 3.39648L922.021 0.120117H923.046L920.39 4.14844ZM931.565 3.52832C931.565 4.264 931.425 4.89876 931.146 5.43262C930.869 5.96647 930.475 6.37826 929.964 6.66797C929.453 6.95443 928.847 7.09766 928.147 7.09766C927.444 7.09766 926.837 6.95443 926.326 6.66797C925.818 6.38151 925.426 5.97135 925.149 5.4375C924.876 4.90365 924.739 4.26725 924.739 3.52832C924.739 2.79264 924.874 2.16439 925.145 1.64355C925.418 1.11947 925.809 0.717448 926.316 0.4375C926.827 0.157552 927.441 0.0175781 928.157 0.0175781C928.86 0.0175781 929.466 0.155924 929.974 0.432617C930.485 0.70931 930.877 1.1097 931.15 1.63379C931.427 2.15462 931.565 2.78613 931.565 3.52832ZM930.613 3.52832C930.613 2.6722 930.398 2 929.969 1.51172C929.542 1.02344 928.938 0.779297 928.157 0.779297C927.369 0.779297 926.761 1.02018 926.331 1.50195C925.901 1.98372 925.687 2.65918 925.687 3.52832C925.687 4.10124 925.784 4.59928 925.979 5.02246C926.175 5.44238 926.456 5.7679 926.824 5.99902C927.192 6.22689 927.633 6.34082 928.147 6.34082C928.942 6.34082 929.55 6.09668 929.974 5.6084C930.4 5.11686 930.613 4.4235 930.613 3.52832ZM936.618 7.09766C936.055 7.09766 935.563 6.99349 935.144 6.78516C934.724 6.57682 934.398 6.27897 934.167 5.8916C933.936 5.50423 933.82 5.04036 933.82 4.5V0.120117H934.753V4.42188C934.753 5.05013 934.912 5.52702 935.231 5.85254C935.55 6.17806 936.011 6.34082 936.613 6.34082C937.232 6.34082 937.712 6.17318 938.054 5.83789C938.399 5.49935 938.571 5.00618 938.571 4.3584V0.120117H939.499V4.41211C939.499 4.96875 939.38 5.44727 939.143 5.84766C938.908 6.24805 938.575 6.55729 938.142 6.77539C937.712 6.99023 937.204 7.09766 936.618 7.09766ZM946.812 4.21191V7H945.879V0.120117H950.767V0.881836H946.812V3.44043H950.649V4.21191H946.812ZM953.925 4.14355V7H952.992V0.120117H956.229C957.004 0.120117 957.602 0.294271 958.021 0.642578C958.445 0.98763 958.656 1.4694 958.656 2.08789C958.656 2.59896 958.507 3.02865 958.207 3.37695C957.911 3.72526 957.501 3.94499 956.977 4.03613L958.93 7H957.855L956.068 4.14355H953.925ZM957.719 2.09766C957.719 1.69727 957.582 1.3929 957.309 1.18457C957.038 0.972982 956.648 0.867188 956.137 0.867188H953.925V3.40625H956.176C956.667 3.40625 957.047 3.29232 957.313 3.06445C957.584 2.83333 957.719 2.51107 957.719 2.09766ZM967.698 3.52832C967.698 4.264 967.558 4.89876 967.278 5.43262C967.002 5.96647 966.608 6.37826 966.097 6.66797C965.586 6.95443 964.98 7.09766 964.28 7.09766C963.577 7.09766 962.97 6.95443 962.459 6.66797C961.951 6.38151 961.559 5.97135 961.282 5.4375C961.009 4.90365 960.872 4.26725 960.872 3.52832C960.872 2.79264 961.007 2.16439 961.277 1.64355C961.551 1.11947 961.941 0.717448 962.449 0.4375C962.96 0.157552 963.574 0.0175781 964.29 0.0175781C964.993 0.0175781 965.599 0.155924 966.106 0.432617C966.618 0.70931 967.01 1.1097 967.283 1.63379C967.56 2.15462 967.698 2.78613 967.698 3.52832ZM966.746 3.52832C966.746 2.6722 966.531 2 966.102 1.51172C965.675 1.02344 965.071 0.779297 964.29 0.779297C963.502 0.779297 962.894 1.02018 962.464 1.50195C962.034 1.98372 961.819 2.65918 961.819 3.52832C961.819 4.10124 961.917 4.59928 962.112 5.02246C962.308 5.44238 962.589 5.7679 962.957 5.99902C963.325 6.22689 963.766 6.34082 964.28 6.34082C965.075 6.34082 965.683 6.09668 966.106 5.6084C966.533 5.11686 966.746 4.4235 966.746 3.52832ZM970.832 2.41016V7H970.002V0.120117H971.228L973.059 4.89062C973.124 5.08268 973.186 5.28939 973.244 5.51074C973.306 5.72884 973.347 5.88672 973.366 5.98438C973.386 5.89648 973.418 5.77604 973.464 5.62305C973.509 5.4668 973.555 5.31706 973.601 5.17383C973.646 5.0306 973.679 4.9362 973.698 4.89062L975.495 0.120117H976.691V7H975.852V2.41016C975.852 2.15625 975.855 1.90723 975.861 1.66309C975.871 1.41895 975.882 1.17969 975.896 0.945312C975.814 1.23503 975.738 1.49544 975.666 1.72656C975.598 1.95443 975.531 2.14974 975.466 2.3125L973.688 7H973.034L971.232 2.3125L970.798 0.945312C970.804 1.18945 970.811 1.43359 970.817 1.67773C970.827 1.92188 970.832 2.16602 970.832 2.41016ZM983.516 4.98828L982.725 7H981.758L984.565 0.120117H985.625L988.389 7H987.437L986.65 4.98828H983.516ZM985.083 0.823242C985.028 1.00553 984.961 1.20898 984.883 1.43359C984.808 1.65495 984.738 1.85026 984.673 2.01953L983.799 4.26074H986.372L985.488 1.99023C985.443 1.8763 985.382 1.71517 985.308 1.50684C985.233 1.2985 985.158 1.07064 985.083 0.823242ZM994.638 6.23828V7H990.229V0.120117H991.161V6.23828H994.638ZM1001.2 6.23828V7H996.795V0.120117H997.728V6.23828H1001.2ZM1013.25 3.52832C1013.25 4.264 1013.11 4.89876 1012.83 5.43262C1012.56 5.96647 1012.16 6.37826 1011.65 6.66797C1011.14 6.95443 1010.53 7.09766 1009.83 7.09766C1009.13 7.09766 1008.52 6.95443 1008.01 6.66797C1007.51 6.38151 1007.11 5.97135 1006.84 5.4375C1006.56 4.90365 1006.43 4.26725 1006.43 3.52832C1006.43 2.79264 1006.56 2.16439 1006.83 1.64355C1007.11 1.11947 1007.5 0.717448 1008 0.4375C1008.51 0.157552 1009.13 0.0175781 1009.84 0.0175781C1010.55 0.0175781 1011.15 0.155924 1011.66 0.432617C1012.17 0.70931 1012.56 1.1097 1012.84 1.63379C1013.11 2.15462 1013.25 2.78613 1013.25 3.52832ZM1012.3 3.52832C1012.3 2.6722 1012.09 2 1011.66 1.51172C1011.23 1.02344 1010.63 0.779297 1009.84 0.779297C1009.06 0.779297 1008.45 1.02018 1008.02 1.50195C1007.59 1.98372 1007.37 2.65918 1007.37 3.52832C1007.37 4.10124 1007.47 4.59928 1007.67 5.02246C1007.86 5.44238 1008.14 5.7679 1008.51 5.99902C1008.88 6.22689 1009.32 6.34082 1009.83 6.34082C1010.63 6.34082 1011.24 6.09668 1011.66 5.6084C1012.09 5.11686 1012.3 4.4235 1012.3 3.52832ZM1016.49 4.21191V7H1015.56V0.120117H1020.44V0.881836H1016.49V3.44043H1020.33V4.21191H1016.49ZM1029.2 7.09766C1028.64 7.09766 1028.15 6.99349 1027.73 6.78516C1027.31 6.57682 1026.98 6.27897 1026.75 5.8916C1026.52 5.50423 1026.4 5.04036 1026.4 4.5V0.120117H1027.34V4.42188C1027.34 5.05013 1027.5 5.52702 1027.82 5.85254C1028.13 6.17806 1028.6 6.34082 1029.2 6.34082C1029.82 6.34082 1030.3 6.17318 1030.64 5.83789C1030.98 5.49935 1031.16 5.00618 1031.16 4.3584V0.120117H1032.08V4.41211C1032.08 4.96875 1031.96 5.44727 1031.73 5.84766C1031.49 6.24805 1031.16 6.55729 1030.73 6.77539C1030.3 6.99023 1029.79 7.09766 1029.2 7.09766ZM1040.07 5.10059C1040.07 5.73535 1039.82 6.22689 1039.32 6.5752C1038.83 6.9235 1038.13 7.09766 1037.23 7.09766C1035.55 7.09766 1034.58 6.51497 1034.31 5.34961L1035.22 5.16895C1035.32 5.58236 1035.54 5.88672 1035.88 6.08203C1036.22 6.27409 1036.68 6.37012 1037.26 6.37012C1037.86 6.37012 1038.33 6.26758 1038.65 6.0625C1038.98 5.85417 1039.15 5.5498 1039.15 5.14941C1039.15 4.9248 1039.1 4.74251 1038.99 4.60254C1038.89 4.46257 1038.75 4.34701 1038.56 4.25586C1038.38 4.16471 1038.15 4.08822 1037.9 4.02637C1037.64 3.96452 1037.36 3.89779 1037.04 3.82617C1036.68 3.74479 1036.38 3.66504 1036.13 3.58691C1035.89 3.50879 1035.7 3.42741 1035.54 3.34277C1035.38 3.25488 1035.25 3.16211 1035.14 3.06445C1034.98 2.91471 1034.85 2.74056 1034.76 2.54199C1034.68 2.34342 1034.64 2.11556 1034.64 1.8584C1034.64 1.26921 1034.86 0.815104 1035.31 0.496094C1035.76 0.177083 1036.41 0.0175781 1037.25 0.0175781C1038.03 0.0175781 1038.63 0.138021 1039.04 0.378906C1039.45 0.616536 1039.74 1.02344 1039.91 1.59961L1038.99 1.76074C1038.89 1.39616 1038.7 1.13249 1038.42 0.969727C1038.13 0.803711 1037.74 0.720703 1037.24 0.720703C1036.69 0.720703 1036.27 0.811849 1035.98 0.994141C1035.69 1.17643 1035.54 1.44824 1035.54 1.80957C1035.54 2.02116 1035.6 2.19694 1035.71 2.33691C1035.82 2.47363 1035.99 2.58919 1036.2 2.68359C1036.4 2.77799 1036.82 2.89681 1037.46 3.04004C1037.73 3.10189 1037.99 3.16699 1038.24 3.23535C1038.5 3.30046 1038.74 3.38346 1038.97 3.48438C1039.11 3.53971 1039.23 3.60807 1039.35 3.68945C1039.48 3.76758 1039.58 3.85872 1039.67 3.96289C1039.8 4.09961 1039.89 4.26074 1039.96 4.44629C1040.03 4.63184 1040.07 4.84993 1040.07 5.10059ZM1043.39 5.93066V7H1042.44V5.93066H1043.39ZM1052.43 0.881836V7H1051.5V0.881836H1049.13V0.120117H1054.79V0.881836H1052.43ZM1057.78 3.81152V7H1056.84V0.120117H1057.78V3.03027H1061.5V0.120117H1062.43V7H1061.5V3.81152H1057.78ZM1066.03 4.98828L1065.24 7H1064.27L1067.08 0.120117H1068.14L1070.9 7H1069.95L1069.16 4.98828H1066.03ZM1067.59 0.823242C1067.54 1.00553 1067.47 1.20898 1067.39 1.43359C1067.32 1.65495 1067.25 1.85026 1067.18 2.01953L1066.31 4.26074H1068.88L1068 1.99023C1067.95 1.8763 1067.89 1.71517 1067.82 1.50684C1067.74 1.2985 1067.67 1.07064 1067.59 0.823242ZM1073.57 2.42969V7H1072.74V0.120117H1073.82L1077.54 6.01855C1077.51 5.37728 1077.49 4.91504 1077.49 4.63184V0.120117H1078.33V7H1077.2L1073.52 1.14062C1073.53 1.35547 1073.54 1.57031 1073.55 1.78516C1073.56 2 1073.57 2.21484 1073.57 2.42969ZM1081.9 4.36328V7H1080.97V0.120117H1081.9V3.56738L1085.21 0.120117H1086.31L1083.38 3.1084L1086.7 7H1085.55L1082.8 3.67969L1081.9 4.36328ZM1095.21 4.14844V7H1094.28V4.14844L1091.63 0.120117H1092.66L1094.75 3.39648L1096.84 0.120117H1097.86L1095.21 4.14844ZM1106.38 3.52832C1106.38 4.264 1106.24 4.89876 1105.96 5.43262C1105.69 5.96647 1105.29 6.37826 1104.78 6.66797C1104.27 6.95443 1103.67 7.09766 1102.97 7.09766C1102.26 7.09766 1101.66 6.95443 1101.14 6.66797C1100.64 6.38151 1100.24 5.97135 1099.97 5.4375C1099.69 4.90365 1099.56 4.26725 1099.56 3.52832C1099.56 2.79264 1099.69 2.16439 1099.96 1.64355C1100.24 1.11947 1100.63 0.717448 1101.13 0.4375C1101.65 0.157552 1102.26 0.0175781 1102.98 0.0175781C1103.68 0.0175781 1104.28 0.155924 1104.79 0.432617C1105.3 0.70931 1105.7 1.1097 1105.97 1.63379C1106.25 2.15462 1106.38 2.78613 1106.38 3.52832ZM1105.43 3.52832C1105.43 2.6722 1105.22 2 1104.79 1.51172C1104.36 1.02344 1103.76 0.779297 1102.98 0.779297C1102.19 0.779297 1101.58 1.02018 1101.15 1.50195C1100.72 1.98372 1100.5 2.65918 1100.5 3.52832C1100.5 4.10124 1100.6 4.59928 1100.8 5.02246C1100.99 5.44238 1101.27 5.7679 1101.64 5.99902C1102.01 6.22689 1102.45 6.34082 1102.97 6.34082C1103.76 6.34082 1104.37 6.09668 1104.79 5.6084C1105.22 5.11686 1105.43 4.4235 1105.43 3.52832ZM1111.44 7.09766C1110.87 7.09766 1110.38 6.99349 1109.96 6.78516C1109.54 6.57682 1109.22 6.27897 1108.99 5.8916C1108.75 5.50423 1108.64 5.04036 1108.64 4.5V0.120117H1109.57V4.42188C1109.57 5.05013 1109.73 5.52702 1110.05 5.85254C1110.37 6.17806 1110.83 6.34082 1111.43 6.34082C1112.05 6.34082 1112.53 6.17318 1112.87 5.83789C1113.22 5.49935 1113.39 5.00618 1113.39 4.3584V0.120117H1114.32V4.41211C1114.32 4.96875 1114.2 5.44727 1113.96 5.84766C1113.73 6.24805 1113.39 6.55729 1112.96 6.77539C1112.53 6.99023 1112.02 7.09766 1111.44 7.09766ZM1121.63 4.21191V7H1120.7V0.120117H1125.58V0.881836H1121.63V3.44043H1125.47V4.21191H1121.63ZM1128.74 4.14355V7H1127.81V0.120117H1131.05C1131.82 0.120117 1132.42 0.294271 1132.84 0.642578C1133.26 0.98763 1133.47 1.4694 1133.47 2.08789C1133.47 2.59896 1133.32 3.02865 1133.03 3.37695C1132.73 3.72526 1132.32 3.94499 1131.79 4.03613L1133.75 7H1132.67L1130.89 4.14355H1128.74ZM1132.54 2.09766C1132.54 1.69727 1132.4 1.3929 1132.13 1.18457C1131.86 0.972982 1131.47 0.867188 1130.96 0.867188H1128.74V3.40625H1130.99C1131.49 3.40625 1131.86 3.29232 1132.13 3.06445C1132.4 2.83333 1132.54 2.51107 1132.54 2.09766ZM1142.52 3.52832C1142.52 4.264 1142.38 4.89876 1142.1 5.43262C1141.82 5.96647 1141.43 6.37826 1140.92 6.66797C1140.4 6.95443 1139.8 7.09766 1139.1 7.09766C1138.4 7.09766 1137.79 6.95443 1137.28 6.66797C1136.77 6.38151 1136.38 5.97135 1136.1 5.4375C1135.83 4.90365 1135.69 4.26725 1135.69 3.52832C1135.69 2.79264 1135.83 2.16439 1136.1 1.64355C1136.37 1.11947 1136.76 0.717448 1137.27 0.4375C1137.78 0.157552 1138.39 0.0175781 1139.11 0.0175781C1139.81 0.0175781 1140.42 0.155924 1140.92 0.432617C1141.44 0.70931 1141.83 1.1097 1142.1 1.63379C1142.38 2.15462 1142.52 2.78613 1142.52 3.52832ZM1141.56 3.52832C1141.56 2.6722 1141.35 2 1140.92 1.51172C1140.49 1.02344 1139.89 0.779297 1139.11 0.779297C1138.32 0.779297 1137.71 1.02018 1137.28 1.50195C1136.85 1.98372 1136.64 2.65918 1136.64 3.52832C1136.64 4.10124 1136.74 4.59928 1136.93 5.02246C1137.13 5.44238 1137.41 5.7679 1137.78 5.99902C1138.14 6.22689 1138.58 6.34082 1139.1 6.34082C1139.89 6.34082 1140.5 6.09668 1140.92 5.6084C1141.35 5.11686 1141.56 4.4235 1141.56 3.52832ZM1145.65 2.41016V7H1144.82V0.120117H1146.05L1147.88 4.89062C1147.94 5.08268 1148 5.28939 1148.06 5.51074C1148.12 5.72884 1148.17 5.88672 1148.18 5.98438C1148.2 5.89648 1148.24 5.77604 1148.28 5.62305C1148.33 5.4668 1148.37 5.31706 1148.42 5.17383C1148.46 5.0306 1148.5 4.9362 1148.52 4.89062L1150.31 0.120117H1151.51V7H1150.67V2.41016C1150.67 2.15625 1150.67 1.90723 1150.68 1.66309C1150.69 1.41895 1150.7 1.17969 1150.71 0.945312C1150.63 1.23503 1150.56 1.49544 1150.48 1.72656C1150.42 1.95443 1150.35 2.14974 1150.28 2.3125L1148.51 7H1147.85L1146.05 2.3125L1145.62 0.945312C1145.62 1.18945 1145.63 1.43359 1145.64 1.67773C1145.65 1.92188 1145.65 2.16602 1145.65 2.41016ZM1158.33 4.98828L1157.54 7H1156.58L1159.38 0.120117H1160.44L1163.21 7H1162.25L1161.47 4.98828H1158.33ZM1159.9 0.823242C1159.85 1.00553 1159.78 1.20898 1159.7 1.43359C1159.63 1.65495 1159.56 1.85026 1159.49 2.01953L1158.62 4.26074H1161.19L1160.31 1.99023C1160.26 1.8763 1160.2 1.71517 1160.13 1.50684C1160.05 1.2985 1159.98 1.07064 1159.9 0.823242ZM1169.46 6.23828V7H1165.05V0.120117H1165.98V6.23828H1169.46ZM1176.02 6.23828V7H1171.61V0.120117H1172.55V6.23828H1176.02ZM1188.07 3.52832C1188.07 4.264 1187.93 4.89876 1187.65 5.43262C1187.37 5.96647 1186.98 6.37826 1186.47 6.66797C1185.96 6.95443 1185.35 7.09766 1184.65 7.09766C1183.95 7.09766 1183.34 6.95443 1182.83 6.66797C1182.32 6.38151 1181.93 5.97135 1181.66 5.4375C1181.38 4.90365 1181.25 4.26725 1181.25 3.52832C1181.25 2.79264 1181.38 2.16439 1181.65 1.64355C1181.92 1.11947 1182.31 0.717448 1182.82 0.4375C1183.33 0.157552 1183.95 0.0175781 1184.66 0.0175781C1185.37 0.0175781 1185.97 0.155924 1186.48 0.432617C1186.99 0.70931 1187.38 1.1097 1187.66 1.63379C1187.93 2.15462 1188.07 2.78613 1188.07 3.52832ZM1187.12 3.52832C1187.12 2.6722 1186.9 2 1186.47 1.51172C1186.05 1.02344 1185.44 0.779297 1184.66 0.779297C1183.88 0.779297 1183.27 1.02018 1182.84 1.50195C1182.41 1.98372 1182.19 2.65918 1182.19 3.52832C1182.19 4.10124 1182.29 4.59928 1182.49 5.02246C1182.68 5.44238 1182.96 5.7679 1183.33 5.99902C1183.7 6.22689 1184.14 6.34082 1184.65 6.34082C1185.45 6.34082 1186.06 6.09668 1186.48 5.6084C1186.91 5.11686 1187.12 4.4235 1187.12 3.52832ZM1191.31 4.21191V7H1190.38V0.120117H1195.26V0.881836H1191.31V3.44043H1195.15V4.21191H1191.31ZM1204.02 7.09766C1203.46 7.09766 1202.97 6.99349 1202.55 6.78516C1202.13 6.57682 1201.8 6.27897 1201.57 5.8916C1201.34 5.50423 1201.22 5.04036 1201.22 4.5V0.120117H1202.16V4.42188C1202.16 5.05013 1202.31 5.52702 1202.63 5.85254C1202.95 6.17806 1203.41 6.34082 1204.02 6.34082C1204.63 6.34082 1205.11 6.17318 1205.46 5.83789C1205.8 5.49935 1205.97 5.00618 1205.97 4.3584V0.120117H1206.9V4.41211C1206.9 4.96875 1206.78 5.44727 1206.54 5.84766C1206.31 6.24805 1205.98 6.55729 1205.54 6.77539C1205.11 6.99023 1204.61 7.09766 1204.02 7.09766ZM1214.89 5.10059C1214.89 5.73535 1214.64 6.22689 1214.14 6.5752C1213.65 6.9235 1212.95 7.09766 1212.05 7.09766C1210.37 7.09766 1209.4 6.51497 1209.13 5.34961L1210.04 5.16895C1210.14 5.58236 1210.36 5.88672 1210.7 6.08203C1211.04 6.27409 1211.5 6.37012 1212.08 6.37012C1212.68 6.37012 1213.15 6.26758 1213.47 6.0625C1213.8 5.85417 1213.97 5.5498 1213.97 5.14941C1213.97 4.9248 1213.91 4.74251 1213.81 4.60254C1213.71 4.46257 1213.57 4.34701 1213.38 4.25586C1213.19 4.16471 1212.97 4.08822 1212.72 4.02637C1212.46 3.96452 1212.17 3.89779 1211.86 3.82617C1211.5 3.74479 1211.2 3.66504 1210.95 3.58691C1210.71 3.50879 1210.51 3.42741 1210.36 3.34277C1210.2 3.25488 1210.07 3.16211 1209.96 3.06445C1209.79 2.91471 1209.67 2.74056 1209.58 2.54199C1209.5 2.34342 1209.45 2.11556 1209.45 1.8584C1209.45 1.26921 1209.68 0.815104 1210.13 0.496094C1210.58 0.177083 1211.23 0.0175781 1212.07 0.0175781C1212.85 0.0175781 1213.44 0.138021 1213.86 0.378906C1214.27 0.616536 1214.56 1.02344 1214.73 1.59961L1213.81 1.76074C1213.71 1.39616 1213.52 1.13249 1213.23 0.969727C1212.95 0.803711 1212.56 0.720703 1212.06 0.720703C1211.51 0.720703 1211.09 0.811849 1210.8 0.994141C1210.51 1.17643 1210.36 1.44824 1210.36 1.80957C1210.36 2.02116 1210.42 2.19694 1210.53 2.33691C1210.64 2.47363 1210.81 2.58919 1211.02 2.68359C1211.22 2.77799 1211.64 2.89681 1212.28 3.04004C1212.54 3.10189 1212.81 3.16699 1213.06 3.23535C1213.32 3.30046 1213.56 3.38346 1213.79 3.48438C1213.92 3.53971 1214.05 3.60807 1214.17 3.68945C1214.29 3.76758 1214.4 3.85872 1214.49 3.96289C1214.62 4.09961 1214.71 4.26074 1214.78 4.44629C1214.85 4.63184 1214.89 4.84993 1214.89 5.10059ZM1218.21 5.93066V7H1217.26V5.93066H1218.21ZM1227.24 0.881836V7H1226.32V0.881836H1223.95V0.120117H1229.61V0.881836H1227.24ZM1232.59 3.81152V7H1231.66V0.120117H1232.59V3.03027H1236.32V0.120117H1237.25V7H1236.32V3.81152H1232.59ZM1240.85 4.98828L1240.05 7H1239.09L1241.9 0.120117H1242.96L1245.72 7H1244.77L1243.98 4.98828H1240.85ZM1242.41 0.823242C1242.36 1.00553 1242.29 1.20898 1242.21 1.43359C1242.14 1.65495 1242.07 1.85026 1242 2.01953L1241.13 4.26074H1243.7L1242.82 1.99023C1242.77 1.8763 1242.71 1.71517 1242.64 1.50684C1242.56 1.2985 1242.49 1.07064 1242.41 0.823242ZM1248.39 2.42969V7H1247.56V0.120117H1248.64L1252.36 6.01855C1252.32 5.37728 1252.3 4.91504 1252.3 4.63184V0.120117H1253.14V7H1252.02L1248.34 1.14062C1248.35 1.35547 1248.36 1.57031 1248.37 1.78516C1248.38 2 1248.39 2.21484 1248.39 2.42969ZM1256.72 4.36328V7H1255.79V0.120117H1256.72V3.56738L1260.03 0.120117H1261.13L1258.2 3.1084L1261.52 7H1260.37L1257.62 3.67969L1256.72 4.36328ZM1270.03 4.14844V7H1269.1V4.14844L1266.45 0.120117H1267.48L1269.57 3.39648L1271.66 0.120117H1272.68L1270.03 4.14844ZM1281.2 3.52832C1281.2 4.264 1281.06 4.89876 1280.78 5.43262C1280.51 5.96647 1280.11 6.37826 1279.6 6.66797C1279.09 6.95443 1278.48 7.09766 1277.78 7.09766C1277.08 7.09766 1276.47 6.95443 1275.96 6.66797C1275.46 6.38151 1275.06 5.97135 1274.79 5.4375C1274.51 4.90365 1274.38 4.26725 1274.38 3.52832C1274.38 2.79264 1274.51 2.16439 1274.78 1.64355C1275.05 1.11947 1275.45 0.717448 1275.95 0.4375C1276.46 0.157552 1277.08 0.0175781 1277.79 0.0175781C1278.5 0.0175781 1279.1 0.155924 1279.61 0.432617C1280.12 0.70931 1280.51 1.1097 1280.79 1.63379C1281.06 2.15462 1281.2 2.78613 1281.2 3.52832ZM1280.25 3.52832C1280.25 2.6722 1280.04 2 1279.61 1.51172C1279.18 1.02344 1278.58 0.779297 1277.79 0.779297C1277.01 0.779297 1276.4 1.02018 1275.97 1.50195C1275.54 1.98372 1275.32 2.65918 1275.32 3.52832C1275.32 4.10124 1275.42 4.59928 1275.62 5.02246C1275.81 5.44238 1276.09 5.7679 1276.46 5.99902C1276.83 6.22689 1277.27 6.34082 1277.78 6.34082C1278.58 6.34082 1279.19 6.09668 1279.61 5.6084C1280.04 5.11686 1280.25 4.4235 1280.25 3.52832ZM1286.25 7.09766C1285.69 7.09766 1285.2 6.99349 1284.78 6.78516C1284.36 6.57682 1284.03 6.27897 1283.8 5.8916C1283.57 5.50423 1283.46 5.04036 1283.46 4.5V0.120117H1284.39V4.42188C1284.39 5.05013 1284.55 5.52702 1284.87 5.85254C1285.19 6.17806 1285.65 6.34082 1286.25 6.34082C1286.87 6.34082 1287.35 6.17318 1287.69 5.83789C1288.04 5.49935 1288.21 5.00618 1288.21 4.3584V0.120117H1289.14V4.41211C1289.14 4.96875 1289.02 5.44727 1288.78 5.84766C1288.54 6.24805 1288.21 6.55729 1287.78 6.77539C1287.35 6.99023 1286.84 7.09766 1286.25 7.09766ZM1296.45 4.21191V7H1295.52V0.120117H1300.4V0.881836H1296.45V3.44043H1300.29V4.21191H1296.45ZM1303.56 4.14355V7H1302.63V0.120117H1305.87C1306.64 0.120117 1307.24 0.294271 1307.66 0.642578C1308.08 0.98763 1308.29 1.4694 1308.29 2.08789C1308.29 2.59896 1308.14 3.02865 1307.84 3.37695C1307.55 3.72526 1307.14 3.94499 1306.61 4.03613L1308.57 7H1307.49L1305.71 4.14355H1303.56ZM1307.36 2.09766C1307.36 1.69727 1307.22 1.3929 1306.95 1.18457C1306.68 0.972982 1306.28 0.867188 1305.77 0.867188H1303.56V3.40625H1305.81C1306.3 3.40625 1306.68 3.29232 1306.95 3.06445C1307.22 2.83333 1307.36 2.51107 1307.36 2.09766ZM1317.33 3.52832C1317.33 4.264 1317.19 4.89876 1316.92 5.43262C1316.64 5.96647 1316.24 6.37826 1315.73 6.66797C1315.22 6.95443 1314.62 7.09766 1313.92 7.09766C1313.21 7.09766 1312.61 6.95443 1312.1 6.66797C1311.59 6.38151 1311.2 5.97135 1310.92 5.4375C1310.65 4.90365 1310.51 4.26725 1310.51 3.52832C1310.51 2.79264 1310.64 2.16439 1310.91 1.64355C1311.19 1.11947 1311.58 0.717448 1312.09 0.4375C1312.6 0.157552 1313.21 0.0175781 1313.93 0.0175781C1314.63 0.0175781 1315.24 0.155924 1315.74 0.432617C1316.25 0.70931 1316.65 1.1097 1316.92 1.63379C1317.2 2.15462 1317.33 2.78613 1317.33 3.52832ZM1316.38 3.52832C1316.38 2.6722 1316.17 2 1315.74 1.51172C1315.31 1.02344 1314.71 0.779297 1313.93 0.779297C1313.14 0.779297 1312.53 1.02018 1312.1 1.50195C1311.67 1.98372 1311.46 2.65918 1311.46 3.52832C1311.46 4.10124 1311.55 4.59928 1311.75 5.02246C1311.94 5.44238 1312.23 5.7679 1312.59 5.99902C1312.96 6.22689 1313.4 6.34082 1313.92 6.34082C1314.71 6.34082 1315.32 6.09668 1315.74 5.6084C1316.17 5.11686 1316.38 4.4235 1316.38 3.52832ZM1320.47 2.41016V7H1319.64V0.120117H1320.86L1322.7 4.89062C1322.76 5.08268 1322.82 5.28939 1322.88 5.51074C1322.94 5.72884 1322.98 5.88672 1323 5.98438C1323.02 5.89648 1323.06 5.77604 1323.1 5.62305C1323.15 5.4668 1323.19 5.31706 1323.24 5.17383C1323.28 5.0306 1323.32 4.9362 1323.33 4.89062L1325.13 0.120117H1326.33V7H1325.49V2.41016C1325.49 2.15625 1325.49 1.90723 1325.5 1.66309C1325.51 1.41895 1325.52 1.17969 1325.53 0.945312C1325.45 1.23503 1325.37 1.49544 1325.3 1.72656C1325.23 1.95443 1325.17 2.14974 1325.1 2.3125L1323.33 7H1322.67L1320.87 2.3125L1320.43 0.945312C1320.44 1.18945 1320.45 1.43359 1320.45 1.67773C1320.46 1.92188 1320.47 2.16602 1320.47 2.41016ZM1333.15 4.98828L1332.36 7H1331.39L1334.2 0.120117H1335.26L1338.03 7H1337.07L1336.29 4.98828H1333.15ZM1334.72 0.823242C1334.66 1.00553 1334.6 1.20898 1334.52 1.43359C1334.44 1.65495 1334.37 1.85026 1334.31 2.01953L1333.44 4.26074H1336.01L1335.12 1.99023C1335.08 1.8763 1335.02 1.71517 1334.94 1.50684C1334.87 1.2985 1334.79 1.07064 1334.72 0.823242ZM1344.27 6.23828V7H1339.87V0.120117H1340.8V6.23828H1344.27ZM1350.84 6.23828V7H1346.43V0.120117H1347.36V6.23828H1350.84ZM1362.89 3.52832C1362.89 4.264 1362.75 4.89876 1362.47 5.43262C1362.19 5.96647 1361.8 6.37826 1361.29 6.66797C1360.78 6.95443 1360.17 7.09766 1359.47 7.09766C1358.77 7.09766 1358.16 6.95443 1357.65 6.66797C1357.14 6.38151 1356.75 5.97135 1356.47 5.4375C1356.2 4.90365 1356.06 4.26725 1356.06 3.52832C1356.06 2.79264 1356.2 2.16439 1356.47 1.64355C1356.74 1.11947 1357.13 0.717448 1357.64 0.4375C1358.15 0.157552 1358.77 0.0175781 1359.48 0.0175781C1360.18 0.0175781 1360.79 0.155924 1361.3 0.432617C1361.81 0.70931 1362.2 1.1097 1362.47 1.63379C1362.75 2.15462 1362.89 2.78613 1362.89 3.52832ZM1361.94 3.52832C1361.94 2.6722 1361.72 2 1361.29 1.51172C1360.87 1.02344 1360.26 0.779297 1359.48 0.779297C1358.69 0.779297 1358.08 1.02018 1357.66 1.50195C1357.23 1.98372 1357.01 2.65918 1357.01 3.52832C1357.01 4.10124 1357.11 4.59928 1357.3 5.02246C1357.5 5.44238 1357.78 5.7679 1358.15 5.99902C1358.52 6.22689 1358.96 6.34082 1359.47 6.34082C1360.27 6.34082 1360.87 6.09668 1361.3 5.6084C1361.72 5.11686 1361.94 4.4235 1361.94 3.52832ZM1366.13 4.21191V7H1365.19V0.120117H1370.08V0.881836H1366.13V3.44043H1369.96V4.21191H1366.13ZM1378.84 7.09766C1378.28 7.09766 1377.78 6.99349 1377.36 6.78516C1376.94 6.57682 1376.62 6.27897 1376.39 5.8916C1376.16 5.50423 1376.04 5.04036 1376.04 4.5V0.120117H1376.97V4.42188C1376.97 5.05013 1377.13 5.52702 1377.45 5.85254C1377.77 6.17806 1378.23 6.34082 1378.83 6.34082C1379.45 6.34082 1379.93 6.17318 1380.27 5.83789C1380.62 5.49935 1380.79 5.00618 1380.79 4.3584V0.120117H1381.72V4.41211C1381.72 4.96875 1381.6 5.44727 1381.36 5.84766C1381.13 6.24805 1380.8 6.55729 1380.36 6.77539C1379.93 6.99023 1379.42 7.09766 1378.84 7.09766ZM1389.71 5.10059C1389.71 5.73535 1389.46 6.22689 1388.96 6.5752C1388.47 6.9235 1387.77 7.09766 1386.87 7.09766C1385.19 7.09766 1384.22 6.51497 1383.95 5.34961L1384.85 5.16895C1384.96 5.58236 1385.18 5.88672 1385.52 6.08203C1385.86 6.27409 1386.32 6.37012 1386.9 6.37012C1387.5 6.37012 1387.97 6.26758 1388.29 6.0625C1388.62 5.85417 1388.78 5.5498 1388.78 5.14941C1388.78 4.9248 1388.73 4.74251 1388.63 4.60254C1388.53 4.46257 1388.38 4.34701 1388.2 4.25586C1388.01 4.16471 1387.79 4.08822 1387.53 4.02637C1387.28 3.96452 1386.99 3.89779 1386.68 3.82617C1386.32 3.74479 1386.02 3.66504 1385.77 3.58691C1385.53 3.50879 1385.33 3.42741 1385.18 3.34277C1385.02 3.25488 1384.89 3.16211 1384.78 3.06445C1384.61 2.91471 1384.49 2.74056 1384.4 2.54199C1384.31 2.34342 1384.27 2.11556 1384.27 1.8584C1384.27 1.26921 1384.5 0.815104 1384.95 0.496094C1385.4 0.177083 1386.04 0.0175781 1386.88 0.0175781C1387.67 0.0175781 1388.26 0.138021 1388.68 0.378906C1389.09 0.616536 1389.38 1.02344 1389.55 1.59961L1388.63 1.76074C1388.53 1.39616 1388.33 1.13249 1388.05 0.969727C1387.77 0.803711 1387.38 0.720703 1386.88 0.720703C1386.32 0.720703 1385.9 0.811849 1385.62 0.994141C1385.33 1.17643 1385.18 1.44824 1385.18 1.80957C1385.18 2.02116 1385.24 2.19694 1385.35 2.33691C1385.46 2.47363 1385.62 2.58919 1385.83 2.68359C1386.03 2.77799 1386.46 2.89681 1387.1 3.04004C1387.36 3.10189 1387.62 3.16699 1387.88 3.23535C1388.14 3.30046 1388.38 3.38346 1388.61 3.48438C1388.74 3.53971 1388.87 3.60807 1388.99 3.68945C1389.11 3.76758 1389.22 3.85872 1389.31 3.96289C1389.44 4.09961 1389.53 4.26074 1389.6 4.44629C1389.67 4.63184 1389.71 4.84993 1389.71 5.10059ZM1393.03 5.93066V7H1392.08V5.93066H1393.03ZM1402.06 0.881836V7H1401.13V0.881836H1398.77V0.120117H1404.43V0.881836H1402.06ZM1407.41 3.81152V7H1406.48V0.120117H1407.41V3.03027H1411.13V0.120117H1412.07V7H1411.13V3.81152H1407.41ZM1415.66 4.98828L1414.87 7H1413.91L1416.71 0.120117H1417.77L1420.54 7H1419.58L1418.8 4.98828H1415.66ZM1417.23 0.823242C1417.18 1.00553 1417.11 1.20898 1417.03 1.43359C1416.96 1.65495 1416.89 1.85026 1416.82 2.01953L1415.95 4.26074H1418.52L1417.64 1.99023C1417.59 1.8763 1417.53 1.71517 1417.46 1.50684C1417.38 1.2985 1417.31 1.07064 1417.23 0.823242ZM1423.21 2.42969V7H1422.38V0.120117H1423.46L1427.18 6.01855C1427.14 5.37728 1427.12 4.91504 1427.12 4.63184V0.120117H1427.96V7H1426.84L1423.16 1.14062C1423.16 1.35547 1423.17 1.57031 1423.19 1.78516C1423.2 2 1423.21 2.21484 1423.21 2.42969ZM1431.54 4.36328V7H1430.6V0.120117H1431.54V3.56738L1434.85 0.120117H1435.95L1433.02 3.1084L1436.34 7H1435.18L1432.43 3.67969L1431.54 4.36328ZM1444.84 4.14844V7H1443.92V4.14844L1441.27 0.120117H1442.3L1444.39 3.39648L1446.48 0.120117H1447.5L1444.84 4.14844ZM1456.02 3.52832C1456.02 4.264 1455.88 4.89876 1455.6 5.43262C1455.32 5.96647 1454.93 6.37826 1454.42 6.66797C1453.91 6.95443 1453.3 7.09766 1452.6 7.09766C1451.9 7.09766 1451.29 6.95443 1450.78 6.66797C1450.27 6.38151 1449.88 5.97135 1449.6 5.4375C1449.33 4.90365 1449.19 4.26725 1449.19 3.52832C1449.19 2.79264 1449.33 2.16439 1449.6 1.64355C1449.87 1.11947 1450.26 0.717448 1450.77 0.4375C1451.28 0.157552 1451.9 0.0175781 1452.61 0.0175781C1453.32 0.0175781 1453.92 0.155924 1454.43 0.432617C1454.94 0.70931 1455.33 1.1097 1455.61 1.63379C1455.88 2.15462 1456.02 2.78613 1456.02 3.52832ZM1455.07 3.52832C1455.07 2.6722 1454.85 2 1454.42 1.51172C1454 1.02344 1453.39 0.779297 1452.61 0.779297C1451.82 0.779297 1451.22 1.02018 1450.79 1.50195C1450.36 1.98372 1450.14 2.65918 1450.14 3.52832C1450.14 4.10124 1450.24 4.59928 1450.43 5.02246C1450.63 5.44238 1450.91 5.7679 1451.28 5.99902C1451.65 6.22689 1452.09 6.34082 1452.6 6.34082C1453.4 6.34082 1454.01 6.09668 1454.43 5.6084C1454.86 5.11686 1455.07 4.4235 1455.07 3.52832ZM1461.07 7.09766C1460.51 7.09766 1460.02 6.99349 1459.6 6.78516C1459.18 6.57682 1458.85 6.27897 1458.62 5.8916C1458.39 5.50423 1458.28 5.04036 1458.28 4.5V0.120117H1459.21V4.42188C1459.21 5.05013 1459.37 5.52702 1459.69 5.85254C1460.01 6.17806 1460.47 6.34082 1461.07 6.34082C1461.69 6.34082 1462.17 6.17318 1462.51 5.83789C1462.85 5.49935 1463.03 5.00618 1463.03 4.3584V0.120117H1463.95V4.41211C1463.95 4.96875 1463.84 5.44727 1463.6 5.84766C1463.36 6.24805 1463.03 6.55729 1462.6 6.77539C1462.17 6.99023 1461.66 7.09766 1461.07 7.09766ZM1471.27 4.21191V7H1470.33V0.120117H1475.22V0.881836H1471.27V3.44043H1475.1V4.21191H1471.27ZM1478.38 4.14355V7H1477.45V0.120117H1480.68C1481.46 0.120117 1482.06 0.294271 1482.48 0.642578C1482.9 0.98763 1483.11 1.4694 1483.11 2.08789C1483.11 2.59896 1482.96 3.02865 1482.66 3.37695C1482.37 3.72526 1481.96 3.94499 1481.43 4.03613L1483.38 7H1482.31L1480.52 4.14355H1478.38ZM1482.17 2.09766C1482.17 1.69727 1482.04 1.3929 1481.76 1.18457C1481.49 0.972982 1481.1 0.867188 1480.59 0.867188H1478.38V3.40625H1480.63C1481.12 3.40625 1481.5 3.29232 1481.77 3.06445C1482.04 2.83333 1482.17 2.51107 1482.17 2.09766ZM1492.15 3.52832C1492.15 4.264 1492.01 4.89876 1491.73 5.43262C1491.46 5.96647 1491.06 6.37826 1490.55 6.66797C1490.04 6.95443 1489.44 7.09766 1488.74 7.09766C1488.03 7.09766 1487.43 6.95443 1486.91 6.66797C1486.41 6.38151 1486.01 5.97135 1485.74 5.4375C1485.46 4.90365 1485.33 4.26725 1485.33 3.52832C1485.33 2.79264 1485.46 2.16439 1485.73 1.64355C1486.01 1.11947 1486.4 0.717448 1486.9 0.4375C1487.42 0.157552 1488.03 0.0175781 1488.75 0.0175781C1489.45 0.0175781 1490.05 0.155924 1490.56 0.432617C1491.07 0.70931 1491.46 1.1097 1491.74 1.63379C1492.01 2.15462 1492.15 2.78613 1492.15 3.52832ZM1491.2 3.52832C1491.2 2.6722 1490.99 2 1490.56 1.51172C1490.13 1.02344 1489.53 0.779297 1488.75 0.779297C1487.96 0.779297 1487.35 1.02018 1486.92 1.50195C1486.49 1.98372 1486.27 2.65918 1486.27 3.52832C1486.27 4.10124 1486.37 4.59928 1486.57 5.02246C1486.76 5.44238 1487.04 5.7679 1487.41 5.99902C1487.78 6.22689 1488.22 6.34082 1488.74 6.34082C1489.53 6.34082 1490.14 6.09668 1490.56 5.6084C1490.99 5.11686 1491.2 4.4235 1491.2 3.52832ZM1495.29 2.41016V7H1494.46V0.120117H1495.68L1497.51 4.89062C1497.58 5.08268 1497.64 5.28939 1497.7 5.51074C1497.76 5.72884 1497.8 5.88672 1497.82 5.98438C1497.84 5.89648 1497.87 5.77604 1497.92 5.62305C1497.96 5.4668 1498.01 5.31706 1498.06 5.17383C1498.1 5.0306 1498.13 4.9362 1498.15 4.89062L1499.95 0.120117H1501.15V7H1500.31V2.41016C1500.31 2.15625 1500.31 1.90723 1500.32 1.66309C1500.33 1.41895 1500.34 1.17969 1500.35 0.945312C1500.27 1.23503 1500.19 1.49544 1500.12 1.72656C1500.05 1.95443 1499.99 2.14974 1499.92 2.3125L1498.14 7H1497.49L1495.69 2.3125L1495.25 0.945312C1495.26 1.18945 1495.27 1.43359 1495.27 1.67773C1495.28 1.92188 1495.29 2.16602 1495.29 2.41016ZM1507.97 4.98828L1507.18 7H1506.21L1509.02 0.120117H1510.08L1512.84 7H1511.89L1511.11 4.98828H1507.97ZM1509.54 0.823242C1509.48 1.00553 1509.42 1.20898 1509.34 1.43359C1509.26 1.65495 1509.19 1.85026 1509.13 2.01953L1508.25 4.26074H1510.83L1509.94 1.99023C1509.9 1.8763 1509.84 1.71517 1509.76 1.50684C1509.69 1.2985 1509.61 1.07064 1509.54 0.823242ZM1519.09 6.23828V7H1514.68V0.120117H1515.62V6.23828H1519.09ZM1525.66 6.23828V7H1521.25V0.120117H1522.18V6.23828H1525.66ZM1537.71 3.52832C1537.71 4.264 1537.57 4.89876 1537.29 5.43262C1537.01 5.96647 1536.62 6.37826 1536.11 6.66797C1535.6 6.95443 1534.99 7.09766 1534.29 7.09766C1533.59 7.09766 1532.98 6.95443 1532.47 6.66797C1531.96 6.38151 1531.57 5.97135 1531.29 5.4375C1531.02 4.90365 1530.88 4.26725 1530.88 3.52832C1530.88 2.79264 1531.02 2.16439 1531.29 1.64355C1531.56 1.11947 1531.95 0.717448 1532.46 0.4375C1532.97 0.157552 1533.58 0.0175781 1534.3 0.0175781C1535 0.0175781 1535.61 0.155924 1536.12 0.432617C1536.63 0.70931 1537.02 1.1097 1537.29 1.63379C1537.57 2.15462 1537.71 2.78613 1537.71 3.52832ZM1536.76 3.52832C1536.76 2.6722 1536.54 2 1536.11 1.51172C1535.68 1.02344 1535.08 0.779297 1534.3 0.779297C1533.51 0.779297 1532.9 1.02018 1532.47 1.50195C1532.04 1.98372 1531.83 2.65918 1531.83 3.52832C1531.83 4.10124 1531.93 4.59928 1532.12 5.02246C1532.32 5.44238 1532.6 5.7679 1532.97 5.99902C1533.33 6.22689 1533.78 6.34082 1534.29 6.34082C1535.08 6.34082 1535.69 6.09668 1536.12 5.6084C1536.54 5.11686 1536.76 4.4235 1536.76 3.52832ZM1540.94 4.21191V7H1540.01V0.120117H1544.9V0.881836H1540.94V3.44043H1544.78V4.21191H1540.94ZM1553.66 7.09766C1553.09 7.09766 1552.6 6.99349 1552.18 6.78516C1551.76 6.57682 1551.44 6.27897 1551.21 5.8916C1550.97 5.50423 1550.86 5.04036 1550.86 4.5V0.120117H1551.79V4.42188C1551.79 5.05013 1551.95 5.52702 1552.27 5.85254C1552.59 6.17806 1553.05 6.34082 1553.65 6.34082C1554.27 6.34082 1554.75 6.17318 1555.09 5.83789C1555.44 5.49935 1555.61 5.00618 1555.61 4.3584V0.120117H1556.54V4.41211C1556.54 4.96875 1556.42 5.44727 1556.18 5.84766C1555.95 6.24805 1555.61 6.55729 1555.18 6.77539C1554.75 6.99023 1554.24 7.09766 1553.66 7.09766ZM1564.53 5.10059C1564.53 5.73535 1564.28 6.22689 1563.78 6.5752C1563.28 6.9235 1562.59 7.09766 1561.68 7.09766C1560.01 7.09766 1559.04 6.51497 1558.77 5.34961L1559.67 5.16895C1559.78 5.58236 1560 5.88672 1560.34 6.08203C1560.67 6.27409 1561.14 6.37012 1561.72 6.37012C1562.32 6.37012 1562.78 6.26758 1563.11 6.0625C1563.44 5.85417 1563.6 5.5498 1563.6 5.14941C1563.6 4.9248 1563.55 4.74251 1563.45 4.60254C1563.35 4.46257 1563.2 4.34701 1563.02 4.25586C1562.83 4.16471 1562.61 4.08822 1562.35 4.02637C1562.1 3.96452 1561.81 3.89779 1561.5 3.82617C1561.14 3.74479 1560.83 3.66504 1560.59 3.58691C1560.35 3.50879 1560.15 3.42741 1559.99 3.34277C1559.84 3.25488 1559.7 3.16211 1559.59 3.06445C1559.43 2.91471 1559.31 2.74056 1559.22 2.54199C1559.13 2.34342 1559.09 2.11556 1559.09 1.8584C1559.09 1.26921 1559.32 0.815104 1559.76 0.496094C1560.22 0.177083 1560.86 0.0175781 1561.7 0.0175781C1562.48 0.0175781 1563.08 0.138021 1563.5 0.378906C1563.91 0.616536 1564.2 1.02344 1564.36 1.59961L1563.45 1.76074C1563.35 1.39616 1563.15 1.13249 1562.87 0.969727C1562.59 0.803711 1562.19 0.720703 1561.69 0.720703C1561.14 0.720703 1560.72 0.811849 1560.43 0.994141C1560.14 1.17643 1560 1.44824 1560 1.80957C1560 2.02116 1560.05 2.19694 1560.17 2.33691C1560.28 2.47363 1560.44 2.58919 1560.65 2.68359C1560.85 2.77799 1561.27 2.89681 1561.92 3.04004C1562.18 3.10189 1562.44 3.16699 1562.7 3.23535C1562.96 3.30046 1563.2 3.38346 1563.43 3.48438C1563.56 3.53971 1563.69 3.60807 1563.81 3.68945C1563.93 3.76758 1564.04 3.85872 1564.13 3.96289C1564.25 4.09961 1564.35 4.26074 1564.42 4.44629C1564.49 4.63184 1564.53 4.84993 1564.53 5.10059ZM1567.85 5.93066V7H1566.9V5.93066H1567.85ZM1576.88 0.881836V7H1575.95V0.881836H1573.59V0.120117H1579.24V0.881836H1576.88ZM1582.23 3.81152V7H1581.3V0.120117H1582.23V3.03027H1585.95V0.120117H1586.88V7H1585.95V3.81152H1582.23ZM1590.48 4.98828L1589.69 7H1588.72L1591.53 0.120117H1592.59L1595.36 7H1594.4L1593.62 4.98828H1590.48ZM1592.05 0.823242C1591.99 1.00553 1591.93 1.20898 1591.85 1.43359C1591.77 1.65495 1591.7 1.85026 1591.64 2.01953L1590.77 4.26074H1593.34L1592.46 1.99023C1592.41 1.8763 1592.35 1.71517 1592.27 1.50684C1592.2 1.2985 1592.12 1.07064 1592.05 0.823242ZM1598.03 2.42969V7H1597.2V0.120117H1598.28L1602 6.01855C1601.96 5.37728 1601.94 4.91504 1601.94 4.63184V0.120117H1602.78V7H1601.66L1597.98 1.14062C1597.98 1.35547 1597.99 1.57031 1598.01 1.78516C1598.02 2 1598.03 2.21484 1598.03 2.42969ZM1606.35 4.36328V7H1605.42V0.120117H1606.35V3.56738L1609.67 0.120117H1610.77L1607.84 3.1084L1611.16 7H1610L1607.25 3.67969L1606.35 4.36328ZM1619.66 4.14844V7H1618.74V4.14844L1616.09 0.120117H1617.11L1619.21 3.39648L1621.29 0.120117H1622.32L1619.66 4.14844ZM1630.84 3.52832C1630.84 4.264 1630.7 4.89876 1630.42 5.43262C1630.14 5.96647 1629.75 6.37826 1629.24 6.66797C1628.73 6.95443 1628.12 7.09766 1627.42 7.09766C1626.72 7.09766 1626.11 6.95443 1625.6 6.66797C1625.09 6.38151 1624.7 5.97135 1624.42 5.4375C1624.15 4.90365 1624.01 4.26725 1624.01 3.52832C1624.01 2.79264 1624.15 2.16439 1624.42 1.64355C1624.69 1.11947 1625.08 0.717448 1625.59 0.4375C1626.1 0.157552 1626.71 0.0175781 1627.43 0.0175781C1628.13 0.0175781 1628.74 0.155924 1629.25 0.432617C1629.76 0.70931 1630.15 1.1097 1630.42 1.63379C1630.7 2.15462 1630.84 2.78613 1630.84 3.52832ZM1629.89 3.52832C1629.89 2.6722 1629.67 2 1629.24 1.51172C1628.82 1.02344 1628.21 0.779297 1627.43 0.779297C1626.64 0.779297 1626.03 1.02018 1625.6 1.50195C1625.17 1.98372 1624.96 2.65918 1624.96 3.52832C1624.96 4.10124 1625.06 4.59928 1625.25 5.02246C1625.45 5.44238 1625.73 5.7679 1626.1 5.99902C1626.47 6.22689 1626.91 6.34082 1627.42 6.34082C1628.22 6.34082 1628.82 6.09668 1629.25 5.6084C1629.67 5.11686 1629.89 4.4235 1629.89 3.52832ZM1635.89 7.09766C1635.33 7.09766 1634.84 6.99349 1634.42 6.78516C1634 6.57682 1633.67 6.27897 1633.44 5.8916C1633.21 5.50423 1633.09 5.04036 1633.09 4.5V0.120117H1634.03V4.42188C1634.03 5.05013 1634.19 5.52702 1634.5 5.85254C1634.82 6.17806 1635.28 6.34082 1635.89 6.34082C1636.51 6.34082 1636.99 6.17318 1637.33 5.83789C1637.67 5.49935 1637.84 5.00618 1637.84 4.3584V0.120117H1638.77V4.41211C1638.77 4.96875 1638.65 5.44727 1638.42 5.84766C1638.18 6.24805 1637.85 6.55729 1637.42 6.77539C1636.99 6.99023 1636.48 7.09766 1635.89 7.09766ZM1646.08 4.21191V7H1645.15V0.120117H1650.04V0.881836H1646.08V3.44043H1649.92V4.21191H1646.08ZM1653.2 4.14355V7H1652.27V0.120117H1655.5C1656.28 0.120117 1656.88 0.294271 1657.29 0.642578C1657.72 0.98763 1657.93 1.4694 1657.93 2.08789C1657.93 2.59896 1657.78 3.02865 1657.48 3.37695C1657.18 3.72526 1656.77 3.94499 1656.25 4.03613L1658.2 7H1657.13L1655.34 4.14355H1653.2ZM1656.99 2.09766C1656.99 1.69727 1656.86 1.3929 1656.58 1.18457C1656.31 0.972982 1655.92 0.867188 1655.41 0.867188H1653.2V3.40625H1655.45C1655.94 3.40625 1656.32 3.29232 1656.59 3.06445C1656.86 2.83333 1656.99 2.51107 1656.99 2.09766ZM1666.97 3.52832C1666.97 4.264 1666.83 4.89876 1666.55 5.43262C1666.28 5.96647 1665.88 6.37826 1665.37 6.66797C1664.86 6.95443 1664.25 7.09766 1663.55 7.09766C1662.85 7.09766 1662.24 6.95443 1661.73 6.66797C1661.22 6.38151 1660.83 5.97135 1660.56 5.4375C1660.28 4.90365 1660.15 4.26725 1660.15 3.52832C1660.15 2.79264 1660.28 2.16439 1660.55 1.64355C1660.82 1.11947 1661.21 0.717448 1661.72 0.4375C1662.23 0.157552 1662.85 0.0175781 1663.56 0.0175781C1664.27 0.0175781 1664.87 0.155924 1665.38 0.432617C1665.89 0.70931 1666.28 1.1097 1666.56 1.63379C1666.83 2.15462 1666.97 2.78613 1666.97 3.52832ZM1666.02 3.52832C1666.02 2.6722 1665.8 2 1665.38 1.51172C1664.95 1.02344 1664.34 0.779297 1663.56 0.779297C1662.78 0.779297 1662.17 1.02018 1661.74 1.50195C1661.31 1.98372 1661.09 2.65918 1661.09 3.52832C1661.09 4.10124 1661.19 4.59928 1661.39 5.02246C1661.58 5.44238 1661.86 5.7679 1662.23 5.99902C1662.6 6.22689 1663.04 6.34082 1663.55 6.34082C1664.35 6.34082 1664.96 6.09668 1665.38 5.6084C1665.81 5.11686 1666.02 4.4235 1666.02 3.52832ZM1670.11 2.41016V7H1669.28V0.120117H1670.5L1672.33 4.89062C1672.4 5.08268 1672.46 5.28939 1672.52 5.51074C1672.58 5.72884 1672.62 5.88672 1672.64 5.98438C1672.66 5.89648 1672.69 5.77604 1672.74 5.62305C1672.78 5.4668 1672.83 5.31706 1672.87 5.17383C1672.92 5.0306 1672.95 4.9362 1672.97 4.89062L1674.77 0.120117H1675.96V7H1675.12V2.41016C1675.12 2.15625 1675.13 1.90723 1675.13 1.66309C1675.14 1.41895 1675.16 1.17969 1675.17 0.945312C1675.09 1.23503 1675.01 1.49544 1674.94 1.72656C1674.87 1.95443 1674.8 2.14974 1674.74 2.3125L1672.96 7H1672.31L1670.51 2.3125L1670.07 0.945312C1670.08 1.18945 1670.08 1.43359 1670.09 1.67773C1670.1 1.92188 1670.11 2.16602 1670.11 2.41016ZM1682.79 4.98828L1682 7H1681.03L1683.84 0.120117H1684.9L1687.66 7H1686.71L1685.92 4.98828H1682.79ZM1684.36 0.823242C1684.3 1.00553 1684.23 1.20898 1684.16 1.43359C1684.08 1.65495 1684.01 1.85026 1683.95 2.01953L1683.07 4.26074H1685.65L1684.76 1.99023C1684.72 1.8763 1684.66 1.71517 1684.58 1.50684C1684.51 1.2985 1684.43 1.07064 1684.36 0.823242ZM1693.91 6.23828V7H1689.5V0.120117H1690.43V6.23828H1693.91ZM1700.48 6.23828V7H1696.07V0.120117H1697V6.23828H1700.48ZM1712.53 3.52832C1712.53 4.264 1712.39 4.89876 1712.11 5.43262C1711.83 5.96647 1711.44 6.37826 1710.92 6.66797C1710.41 6.95443 1709.81 7.09766 1709.11 7.09766C1708.41 7.09766 1707.8 6.95443 1707.29 6.66797C1706.78 6.38151 1706.39 5.97135 1706.11 5.4375C1705.84 4.90365 1705.7 4.26725 1705.7 3.52832C1705.7 2.79264 1705.84 2.16439 1706.11 1.64355C1706.38 1.11947 1706.77 0.717448 1707.28 0.4375C1707.79 0.157552 1708.4 0.0175781 1709.12 0.0175781C1709.82 0.0175781 1710.43 0.155924 1710.93 0.432617C1711.45 0.70931 1711.84 1.1097 1712.11 1.63379C1712.39 2.15462 1712.53 2.78613 1712.53 3.52832ZM1711.57 3.52832C1711.57 2.6722 1711.36 2 1710.93 1.51172C1710.5 1.02344 1709.9 0.779297 1709.12 0.779297C1708.33 0.779297 1707.72 1.02018 1707.29 1.50195C1706.86 1.98372 1706.65 2.65918 1706.65 3.52832C1706.65 4.10124 1706.75 4.59928 1706.94 5.02246C1707.14 5.44238 1707.42 5.7679 1707.79 5.99902C1708.15 6.22689 1708.59 6.34082 1709.11 6.34082C1709.9 6.34082 1710.51 6.09668 1710.93 5.6084C1711.36 5.11686 1711.57 4.4235 1711.57 3.52832ZM1715.76 4.21191V7H1714.83V0.120117H1719.72V0.881836H1715.76V3.44043H1719.6V4.21191H1715.76ZM1728.48 7.09766C1727.91 7.09766 1727.42 6.99349 1727 6.78516C1726.58 6.57682 1726.26 6.27897 1726.02 5.8916C1725.79 5.50423 1725.68 5.04036 1725.68 4.5V0.120117H1726.61V4.42188C1726.61 5.05013 1726.77 5.52702 1727.09 5.85254C1727.41 6.17806 1727.87 6.34082 1728.47 6.34082C1729.09 6.34082 1729.57 6.17318 1729.91 5.83789C1730.26 5.49935 1730.43 5.00618 1730.43 4.3584V0.120117H1731.36V4.41211C1731.36 4.96875 1731.24 5.44727 1731 5.84766C1730.77 6.24805 1730.43 6.55729 1730 6.77539C1729.57 6.99023 1729.06 7.09766 1728.48 7.09766ZM1739.34 5.10059C1739.34 5.73535 1739.09 6.22689 1738.6 6.5752C1738.1 6.9235 1737.4 7.09766 1736.5 7.09766C1734.83 7.09766 1733.85 6.51497 1733.59 5.34961L1734.49 5.16895C1734.59 5.58236 1734.82 5.88672 1735.15 6.08203C1735.49 6.27409 1735.95 6.37012 1736.54 6.37012C1737.14 6.37012 1737.6 6.26758 1737.93 6.0625C1738.26 5.85417 1738.42 5.5498 1738.42 5.14941C1738.42 4.9248 1738.37 4.74251 1738.26 4.60254C1738.16 4.46257 1738.02 4.34701 1737.83 4.25586C1737.65 4.16471 1737.43 4.08822 1737.17 4.02637C1736.91 3.96452 1736.63 3.89779 1736.32 3.82617C1735.96 3.74479 1735.65 3.66504 1735.41 3.58691C1735.17 3.50879 1734.97 3.42741 1734.81 3.34277C1734.66 3.25488 1734.52 3.16211 1734.41 3.06445C1734.25 2.91471 1734.12 2.74056 1734.04 2.54199C1733.95 2.34342 1733.91 2.11556 1733.91 1.8584C1733.91 1.26921 1734.13 0.815104 1734.58 0.496094C1735.04 0.177083 1735.68 0.0175781 1736.52 0.0175781C1737.3 0.0175781 1737.9 0.138021 1738.31 0.378906C1738.73 0.616536 1739.02 1.02344 1739.18 1.59961L1738.26 1.76074C1738.16 1.39616 1737.97 1.13249 1737.69 0.969727C1737.41 0.803711 1737.01 0.720703 1736.51 0.720703C1735.96 0.720703 1735.54 0.811849 1735.25 0.994141C1734.96 1.17643 1734.82 1.44824 1734.82 1.80957C1734.82 2.02116 1734.87 2.19694 1734.98 2.33691C1735.1 2.47363 1735.26 2.58919 1735.47 2.68359C1735.67 2.77799 1736.09 2.89681 1736.74 3.04004C1737 3.10189 1737.26 3.16699 1737.52 3.23535C1737.77 3.30046 1738.02 3.38346 1738.25 3.48438C1738.38 3.53971 1738.51 3.60807 1738.63 3.68945C1738.75 3.76758 1738.86 3.85872 1738.95 3.96289C1739.07 4.09961 1739.17 4.26074 1739.24 4.44629C1739.31 4.63184 1739.34 4.84993 1739.34 5.10059ZM1742.67 5.93066V7H1741.72V5.93066H1742.67ZM1751.7 0.881836V7H1750.77V0.881836H1748.41V0.120117H1754.06V0.881836H1751.7ZM1757.05 3.81152V7H1756.12V0.120117H1757.05V3.03027H1760.77V0.120117H1761.7V7H1760.77V3.81152H1757.05ZM1765.3 4.98828L1764.51 7H1763.54L1766.35 0.120117H1767.41L1770.17 7H1769.22L1768.44 4.98828H1765.3ZM1766.87 0.823242C1766.81 1.00553 1766.75 1.20898 1766.67 1.43359C1766.59 1.65495 1766.52 1.85026 1766.46 2.01953L1765.58 4.26074H1768.16L1767.27 1.99023C1767.23 1.8763 1767.17 1.71517 1767.09 1.50684C1767.02 1.2985 1766.94 1.07064 1766.87 0.823242ZM1772.84 2.42969V7H1772.01V0.120117H1773.1L1776.82 6.01855C1776.78 5.37728 1776.76 4.91504 1776.76 4.63184V0.120117H1777.6V7H1776.48L1772.79 1.14062C1772.8 1.35547 1772.81 1.57031 1772.82 1.78516C1772.84 2 1772.84 2.21484 1772.84 2.42969ZM1781.17 4.36328V7H1780.24V0.120117H1781.17V3.56738L1784.49 0.120117H1785.59L1782.66 3.1084L1785.98 7H1784.82L1782.07 3.67969L1781.17 4.36328ZM1794.48 4.14844V7H1793.55V4.14844L1790.91 0.120117H1791.93L1794.03 3.39648L1796.11 0.120117H1797.14L1794.48 4.14844ZM1805.66 3.52832C1805.66 4.264 1805.52 4.89876 1805.24 5.43262C1804.96 5.96647 1804.57 6.37826 1804.06 6.66797C1803.54 6.95443 1802.94 7.09766 1802.24 7.09766C1801.54 7.09766 1800.93 6.95443 1800.42 6.66797C1799.91 6.38151 1799.52 5.97135 1799.24 5.4375C1798.97 4.90365 1798.83 4.26725 1798.83 3.52832C1798.83 2.79264 1798.97 2.16439 1799.24 1.64355C1799.51 1.11947 1799.9 0.717448 1800.41 0.4375C1800.92 0.157552 1801.53 0.0175781 1802.25 0.0175781C1802.95 0.0175781 1803.56 0.155924 1804.07 0.432617C1804.58 0.70931 1804.97 1.1097 1805.24 1.63379C1805.52 2.15462 1805.66 2.78613 1805.66 3.52832ZM1804.71 3.52832C1804.71 2.6722 1804.49 2 1804.06 1.51172C1803.63 1.02344 1803.03 0.779297 1802.25 0.779297C1801.46 0.779297 1800.85 1.02018 1800.42 1.50195C1799.99 1.98372 1799.78 2.65918 1799.78 3.52832C1799.78 4.10124 1799.88 4.59928 1800.07 5.02246C1800.27 5.44238 1800.55 5.7679 1800.92 5.99902C1801.28 6.22689 1801.72 6.34082 1802.24 6.34082C1803.03 6.34082 1803.64 6.09668 1804.07 5.6084C1804.49 5.11686 1804.71 4.4235 1804.71 3.52832ZM1810.71 7.09766C1810.15 7.09766 1809.66 6.99349 1809.24 6.78516C1808.82 6.57682 1808.49 6.27897 1808.26 5.8916C1808.03 5.50423 1807.91 5.04036 1807.91 4.5V0.120117H1808.84V4.42188C1808.84 5.05013 1809 5.52702 1809.32 5.85254C1809.64 6.17806 1810.1 6.34082 1810.71 6.34082C1811.32 6.34082 1811.8 6.17318 1812.15 5.83789C1812.49 5.49935 1812.66 5.00618 1812.66 4.3584V0.120117H1813.59V4.41211C1813.59 4.96875 1813.47 5.44727 1813.23 5.84766C1813 6.24805 1812.67 6.55729 1812.23 6.77539C1811.8 6.99023 1811.3 7.09766 1810.71 7.09766ZM1820.9 4.21191V7H1819.97V0.120117H1824.86V0.881836H1820.9V3.44043H1824.74V4.21191H1820.9ZM1828.02 4.14355V7H1827.08V0.120117H1830.32C1831.1 0.120117 1831.69 0.294271 1832.11 0.642578C1832.54 0.98763 1832.75 1.4694 1832.75 2.08789C1832.75 2.59896 1832.6 3.02865 1832.3 3.37695C1832 3.72526 1831.59 3.94499 1831.07 4.03613L1833.02 7H1831.95L1830.16 4.14355H1828.02ZM1831.81 2.09766C1831.81 1.69727 1831.67 1.3929 1831.4 1.18457C1831.13 0.972982 1830.74 0.867188 1830.23 0.867188H1828.02V3.40625H1830.27C1830.76 3.40625 1831.14 3.29232 1831.41 3.06445C1831.68 2.83333 1831.81 2.51107 1831.81 2.09766ZM1841.79 3.52832C1841.79 4.264 1841.65 4.89876 1841.37 5.43262C1841.09 5.96647 1840.7 6.37826 1840.19 6.66797C1839.68 6.95443 1839.07 7.09766 1838.37 7.09766C1837.67 7.09766 1837.06 6.95443 1836.55 6.66797C1836.04 6.38151 1835.65 5.97135 1835.37 5.4375C1835.1 4.90365 1834.96 4.26725 1834.96 3.52832C1834.96 2.79264 1835.1 2.16439 1835.37 1.64355C1835.64 1.11947 1836.03 0.717448 1836.54 0.4375C1837.05 0.157552 1837.67 0.0175781 1838.38 0.0175781C1839.08 0.0175781 1839.69 0.155924 1840.2 0.432617C1840.71 0.70931 1841.1 1.1097 1841.38 1.63379C1841.65 2.15462 1841.79 2.78613 1841.79 3.52832ZM1840.84 3.52832C1840.84 2.6722 1840.62 2 1840.19 1.51172C1839.77 1.02344 1839.16 0.779297 1838.38 0.779297C1837.59 0.779297 1836.99 1.02018 1836.56 1.50195C1836.13 1.98372 1835.91 2.65918 1835.91 3.52832C1835.91 4.10124 1836.01 4.59928 1836.2 5.02246C1836.4 5.44238 1836.68 5.7679 1837.05 5.99902C1837.42 6.22689 1837.86 6.34082 1838.37 6.34082C1839.17 6.34082 1839.78 6.09668 1840.2 5.6084C1840.62 5.11686 1840.84 4.4235 1840.84 3.52832ZM1844.92 2.41016V7H1844.09V0.120117H1845.32L1847.15 4.89062C1847.22 5.08268 1847.28 5.28939 1847.34 5.51074C1847.4 5.72884 1847.44 5.88672 1847.46 5.98438C1847.48 5.89648 1847.51 5.77604 1847.56 5.62305C1847.6 5.4668 1847.65 5.31706 1847.69 5.17383C1847.74 5.0306 1847.77 4.9362 1847.79 4.89062L1849.59 0.120117H1850.78V7H1849.94V2.41016C1849.94 2.15625 1849.95 1.90723 1849.95 1.66309C1849.96 1.41895 1849.97 1.17969 1849.99 0.945312C1849.91 1.23503 1849.83 1.49544 1849.76 1.72656C1849.69 1.95443 1849.62 2.14974 1849.56 2.3125L1847.78 7H1847.13L1845.32 2.3125L1844.89 0.945312C1844.9 1.18945 1844.9 1.43359 1844.91 1.67773C1844.92 1.92188 1844.92 2.16602 1844.92 2.41016ZM1857.61 4.98828L1856.82 7H1855.85L1858.66 0.120117H1859.72L1862.48 7H1861.53L1860.74 4.98828H1857.61ZM1859.17 0.823242C1859.12 1.00553 1859.05 1.20898 1858.97 1.43359C1858.9 1.65495 1858.83 1.85026 1858.76 2.01953L1857.89 4.26074H1860.46L1859.58 1.99023C1859.53 1.8763 1859.47 1.71517 1859.4 1.50684C1859.32 1.2985 1859.25 1.07064 1859.17 0.823242ZM1868.73 6.23828V7H1864.32V0.120117H1865.25V6.23828H1868.73ZM1875.3 6.23828V7H1870.89V0.120117H1871.82V6.23828H1875.3ZM1887.34 3.52832C1887.34 4.264 1887.2 4.89876 1886.92 5.43262C1886.65 5.96647 1886.25 6.37826 1885.74 6.66797C1885.23 6.95443 1884.63 7.09766 1883.93 7.09766C1883.22 7.09766 1882.62 6.95443 1882.11 6.66797C1881.6 6.38151 1881.21 5.97135 1880.93 5.4375C1880.66 4.90365 1880.52 4.26725 1880.52 3.52832C1880.52 2.79264 1880.65 2.16439 1880.92 1.64355C1881.2 1.11947 1881.59 0.717448 1882.1 0.4375C1882.61 0.157552 1883.22 0.0175781 1883.94 0.0175781C1884.64 0.0175781 1885.25 0.155924 1885.75 0.432617C1886.26 0.70931 1886.66 1.1097 1886.93 1.63379C1887.21 2.15462 1887.34 2.78613 1887.34 3.52832ZM1886.39 3.52832C1886.39 2.6722 1886.18 2 1885.75 1.51172C1885.32 1.02344 1884.72 0.779297 1883.94 0.779297C1883.15 0.779297 1882.54 1.02018 1882.11 1.50195C1881.68 1.98372 1881.47 2.65918 1881.47 3.52832C1881.47 4.10124 1881.56 4.59928 1881.76 5.02246C1881.95 5.44238 1882.24 5.7679 1882.6 5.99902C1882.97 6.22689 1883.41 6.34082 1883.93 6.34082C1884.72 6.34082 1885.33 6.09668 1885.75 5.6084C1886.18 5.11686 1886.39 4.4235 1886.39 3.52832ZM1890.58 4.21191V7H1889.65V0.120117H1894.54V0.881836H1890.58V3.44043H1894.42V4.21191H1890.58ZM1903.29 7.09766C1902.73 7.09766 1902.24 6.99349 1901.82 6.78516C1901.4 6.57682 1901.07 6.27897 1900.84 5.8916C1900.61 5.50423 1900.5 5.04036 1900.5 4.5V0.120117H1901.43V4.42188C1901.43 5.05013 1901.59 5.52702 1901.91 5.85254C1902.23 6.17806 1902.69 6.34082 1903.29 6.34082C1903.91 6.34082 1904.39 6.17318 1904.73 5.83789C1905.07 5.49935 1905.25 5.00618 1905.25 4.3584V0.120117H1906.17V4.41211C1906.17 4.96875 1906.06 5.44727 1905.82 5.84766C1905.58 6.24805 1905.25 6.55729 1904.82 6.77539C1904.39 6.99023 1903.88 7.09766 1903.29 7.09766ZM1914.16 5.10059C1914.16 5.73535 1913.91 6.22689 1913.42 6.5752C1912.92 6.9235 1912.22 7.09766 1911.32 7.09766C1909.64 7.09766 1908.67 6.51497 1908.41 5.34961L1909.31 5.16895C1909.41 5.58236 1909.63 5.88672 1909.97 6.08203C1910.31 6.27409 1910.77 6.37012 1911.35 6.37012C1911.96 6.37012 1912.42 6.26758 1912.75 6.0625C1913.07 5.85417 1913.24 5.5498 1913.24 5.14941C1913.24 4.9248 1913.19 4.74251 1913.08 4.60254C1912.98 4.46257 1912.84 4.34701 1912.65 4.25586C1912.47 4.16471 1912.25 4.08822 1911.99 4.02637C1911.73 3.96452 1911.45 3.89779 1911.13 3.82617C1910.77 3.74479 1910.47 3.66504 1910.23 3.58691C1909.99 3.50879 1909.79 3.42741 1909.63 3.34277C1909.47 3.25488 1909.34 3.16211 1909.23 3.06445C1909.07 2.91471 1908.94 2.74056 1908.85 2.54199C1908.77 2.34342 1908.73 2.11556 1908.73 1.8584C1908.73 1.26921 1908.95 0.815104 1909.4 0.496094C1909.85 0.177083 1910.5 0.0175781 1911.34 0.0175781C1912.12 0.0175781 1912.72 0.138021 1913.13 0.378906C1913.55 0.616536 1913.83 1.02344 1914 1.59961L1913.08 1.76074C1912.98 1.39616 1912.79 1.13249 1912.51 0.969727C1912.22 0.803711 1911.83 0.720703 1911.33 0.720703C1910.78 0.720703 1910.36 0.811849 1910.07 0.994141C1909.78 1.17643 1909.64 1.44824 1909.64 1.80957C1909.64 2.02116 1909.69 2.19694 1909.8 2.33691C1909.92 2.47363 1910.08 2.58919 1910.29 2.68359C1910.49 2.77799 1910.91 2.89681 1911.55 3.04004C1911.82 3.10189 1912.08 3.16699 1912.34 3.23535C1912.59 3.30046 1912.84 3.38346 1913.06 3.48438C1913.2 3.53971 1913.32 3.60807 1913.44 3.68945C1913.57 3.76758 1913.68 3.85872 1913.77 3.96289C1913.89 4.09961 1913.99 4.26074 1914.05 4.44629C1914.13 4.63184 1914.16 4.84993 1914.16 5.10059ZM1917.49 5.93066V7H1916.53V5.93066H1917.49Z" fill="white"/>
<path d="M0 4.41211H1918.4V4.91016H0V4.41211Z" fill="white"/>
</svg>
