<svg width="1919" height="52" viewBox="0 0 1919 52" fill="none" xmlns="http://www.w3.org/2000/svg">
<path d="M24.6641 6.3374V51H17.8916V6.3374H0.639648V0.776855H41.916V6.3374H24.6641ZM57.4233 27.7241V51H50.6152V0.776855H57.4233V22.021H84.5845V0.776855H91.3926V51H84.5845V27.7241H57.4233ZM111.355 36.3145L105.581 51H98.5234L119.019 0.776855H126.754L146.929 51H139.978L134.239 36.3145H111.355ZM122.797 5.90967C122.393 7.2404 121.906 8.72559 121.336 10.3652C120.789 11.9811 120.278 13.4069 119.803 14.6426L113.423 31.0034H132.208L125.756 14.4287C125.423 13.597 124.984 12.4207 124.437 10.8999C123.89 9.37907 123.344 7.71566 122.797 5.90967ZM160.119 17.6367V51H154.06V0.776855H161.973L189.134 43.8354C188.849 39.1541 188.706 35.7798 188.706 33.7124V0.776855H194.837V51H186.639L159.763 8.22656C159.81 9.79492 159.882 11.3633 159.977 12.9316C160.072 14.5 160.119 16.0684 160.119 17.6367ZM214.622 31.752V51H207.813V0.776855H214.622V25.9419L238.824 0.776855H246.844L225.458 22.5913L249.696 51H241.248L221.18 26.7617L214.622 31.752ZM299.174 30.1836V51H292.402V30.1836L273.083 0.776855H280.568L295.859 24.6943L311.08 0.776855H318.565L299.174 30.1836ZM374.458 25.6567C374.458 31.0272 373.436 35.661 371.392 39.5581C369.372 43.4552 366.497 46.4613 362.766 48.5762C359.035 50.6673 354.615 51.7129 349.506 51.7129C344.374 51.7129 339.942 50.6673 336.211 48.5762C332.504 46.485 329.64 43.4909 327.621 39.5938C325.625 35.6966 324.626 31.0509 324.626 25.6567C324.626 20.2863 325.613 15.7 327.585 11.8979C329.581 8.0721 332.433 5.13737 336.14 3.09375C339.87 1.05013 344.35 0.0283203 349.578 0.0283203C354.71 0.0283203 359.13 1.03825 362.837 3.05811C366.568 5.07796 369.432 8.00081 371.428 11.8267C373.448 15.6287 374.458 20.2388 374.458 25.6567ZM367.507 25.6567C367.507 19.4071 365.938 14.5 362.802 10.9355C359.689 7.37109 355.281 5.58887 349.578 5.58887C343.827 5.58887 339.383 7.34733 336.247 10.8643C333.11 14.3812 331.542 19.312 331.542 25.6567C331.542 29.839 332.254 33.4748 333.68 36.564C335.106 39.6294 337.161 42.0057 339.847 43.6929C342.532 45.3563 345.752 46.188 349.506 46.188C355.305 46.188 359.748 44.4058 362.837 40.8413C365.95 37.2531 367.507 32.1916 367.507 25.6567ZM405.042 51.7129C400.931 51.7129 397.343 50.9525 394.278 49.4316C391.212 47.9108 388.836 45.7365 387.149 42.9087C385.462 40.0809 384.618 36.6947 384.618 32.75V0.776855H391.426V32.1797C391.426 36.766 392.591 40.2472 394.919 42.6235C397.248 44.9998 400.611 46.188 405.007 46.188C409.522 46.188 413.027 44.9642 415.522 42.5166C418.041 40.0452 419.3 36.4451 419.3 31.7163V0.776855H426.073V32.1084C426.073 36.1719 425.205 39.665 423.471 42.5879C421.76 45.5107 419.324 47.7682 416.164 49.3604C413.027 50.9287 409.32 51.7129 405.042 51.7129ZM466.854 30.647V51H460.046V0.776855H495.726V6.3374H466.854V25.0151H494.871V30.647H466.854ZM512.481 30.1479V51H505.673V0.776855H529.305C534.961 0.776855 539.321 2.04818 542.387 4.59082C545.476 7.1097 547.021 10.6266 547.021 15.1416C547.021 18.8724 545.927 22.0091 543.741 24.5518C541.579 27.0944 538.585 28.6984 534.759 29.3638L549.017 51H541.175L528.129 30.1479H512.481ZM540.177 15.2129C540.177 12.29 539.179 10.0682 537.183 8.54736C535.21 7.00277 532.359 6.23047 528.628 6.23047H512.481V24.7656H528.913C532.501 24.7656 535.27 23.9339 537.218 22.2705C539.191 20.5833 540.177 18.2308 540.177 15.2129ZM606.727 25.6567C606.727 31.0272 605.705 35.661 603.662 39.5581C601.642 43.4552 598.766 46.4613 595.036 48.5762C591.305 50.6673 586.885 51.7129 581.776 51.7129C576.643 51.7129 572.211 50.6673 568.48 48.5762C564.773 46.485 561.91 43.4909 559.89 39.5938C557.894 35.6966 556.896 31.0509 556.896 25.6567C556.896 20.2863 557.882 15.7 559.854 11.8979C561.851 8.0721 564.702 5.13737 568.409 3.09375C572.14 1.05013 576.619 0.0283203 581.847 0.0283203C586.98 0.0283203 591.4 1.03825 595.107 3.05811C598.838 5.07796 601.701 8.00081 603.697 11.8267C605.717 15.6287 606.727 20.2388 606.727 25.6567ZM599.776 25.6567C599.776 19.4071 598.208 14.5 595.071 10.9355C591.958 7.37109 587.55 5.58887 581.847 5.58887C576.097 5.58887 571.653 7.34733 568.516 10.8643C565.379 14.3812 563.811 19.312 563.811 25.6567C563.811 29.839 564.524 33.4748 565.95 36.564C567.375 39.6294 569.431 42.0057 572.116 43.6929C574.801 45.3563 578.021 46.188 581.776 46.188C587.574 46.188 592.018 44.4058 595.107 40.8413C598.22 37.2531 599.776 32.1916 599.776 25.6567ZM623.304 17.4941V51H617.244V0.776855H626.191L639.558 35.6016C640.033 37.0036 640.484 38.5125 640.912 40.1284C641.364 41.7205 641.661 42.873 641.803 43.5859C641.946 42.9443 642.183 42.0651 642.516 40.9482C642.849 39.8076 643.181 38.7145 643.514 37.6689C643.847 36.6234 644.084 35.9342 644.227 35.6016L657.344 0.776855H666.077V51H659.946V17.4941C659.946 15.6406 659.97 13.8228 660.018 12.0405C660.089 10.2583 660.172 8.51172 660.267 6.80078C659.673 8.91569 659.115 10.8167 658.592 12.5039C658.093 14.1673 657.606 15.5931 657.13 16.7812L644.156 51H639.379L626.227 16.7812L623.054 6.80078C623.102 8.58301 623.149 10.3652 623.197 12.1475C623.268 13.9297 623.304 15.7119 623.304 17.4941ZM703.294 36.3145L697.52 51H690.462L710.958 0.776855H718.692L738.867 51H731.917L726.178 36.3145H703.294ZM714.736 5.90967C714.332 7.2404 713.845 8.72559 713.274 10.3652C712.728 11.9811 712.217 13.4069 711.742 14.6426L705.361 31.0034H724.146L717.694 14.4287C717.362 13.597 716.922 12.4207 716.375 10.8999C715.829 9.37907 715.282 7.71566 714.736 5.90967ZM778.185 45.4395V51H745.998V0.776855H752.806V45.4395H778.185ZM819.82 45.4395V51H787.633V0.776855H794.441V45.4395H819.82ZM895.176 25.6567C895.176 31.0272 894.154 35.661 892.111 39.5581C890.091 43.4552 887.216 46.4613 883.485 48.5762C879.754 50.6673 875.334 51.7129 870.225 51.7129C865.092 51.7129 860.66 50.6673 856.93 48.5762C853.223 46.485 850.359 43.4909 848.339 39.5938C846.343 35.6966 845.345 31.0509 845.345 25.6567C845.345 20.2863 846.331 15.7 848.304 11.8979C850.3 8.0721 853.151 5.13737 856.858 3.09375C860.589 1.05013 865.069 0.0283203 870.296 0.0283203C875.429 0.0283203 879.849 1.03825 883.556 3.05811C887.287 5.07796 890.15 8.00081 892.146 11.8267C894.166 15.6287 895.176 20.2388 895.176 25.6567ZM888.226 25.6567C888.226 19.4071 886.657 14.5 883.521 10.9355C880.408 7.37109 876 5.58887 870.296 5.58887C864.546 5.58887 860.102 7.34733 856.965 10.8643C853.829 14.3812 852.26 19.312 852.26 25.6567C852.26 29.839 852.973 33.4748 854.399 36.564C855.825 39.6294 857.88 42.0057 860.565 43.6929C863.251 45.3563 866.471 46.188 870.225 46.188C876.023 46.188 880.467 44.4058 883.556 40.8413C886.669 37.2531 888.226 32.1916 888.226 25.6567ZM912.501 30.647V51H905.693V0.776855H941.374V6.3374H912.501V25.0151H940.518V30.647H912.501ZM992.706 51.7129C988.595 51.7129 985.006 50.9525 981.941 49.4316C978.875 47.9108 976.499 45.7365 974.812 42.9087C973.125 40.0809 972.281 36.6947 972.281 32.75V0.776855H979.089V32.1797C979.089 36.766 980.254 40.2472 982.583 42.6235C984.911 44.9998 988.274 46.188 992.67 46.188C997.185 46.188 1000.69 44.9642 1003.19 42.5166C1005.7 40.0452 1006.96 36.4451 1006.96 31.7163V0.776855H1013.74V32.1084C1013.74 36.1719 1012.87 39.665 1011.13 42.5879C1009.42 45.5107 1006.99 47.7682 1003.83 49.3604C1000.69 50.9287 996.983 51.7129 992.706 51.7129ZM1065.74 37.1343C1065.74 41.7681 1063.93 45.3563 1060.29 47.8989C1056.68 50.4416 1051.58 51.7129 1045 51.7129C1032.76 51.7129 1025.67 47.4593 1023.72 38.9521L1030.31 37.6333C1031.07 40.6512 1032.69 42.873 1035.16 44.2988C1037.63 45.7008 1040.99 46.4019 1045.25 46.4019C1049.64 46.4019 1053.03 45.6533 1055.41 44.1562C1057.81 42.6354 1059.01 40.4136 1059.01 37.4907C1059.01 35.8511 1058.63 34.5203 1057.87 33.4985C1057.13 32.4767 1056.08 31.6331 1054.73 30.9678C1053.37 30.3024 1051.76 29.744 1049.88 29.2925C1048 28.841 1045.92 28.3538 1043.64 27.8311C1041.01 27.237 1038.8 26.6548 1037.01 26.0845C1035.26 25.5142 1033.81 24.9201 1032.67 24.3022C1031.52 23.6606 1030.55 22.9834 1029.74 22.2705C1028.55 21.1774 1027.64 19.9061 1027 18.4565C1026.38 17.007 1026.07 15.3436 1026.07 13.4663C1026.07 9.1652 1027.71 5.85026 1030.99 3.52148C1034.29 1.19271 1039.01 0.0283203 1045.14 0.0283203C1050.84 0.0283203 1055.2 0.907552 1058.22 2.66602C1061.24 4.40072 1063.35 7.37109 1064.57 11.5771L1057.87 12.7534C1057.13 10.092 1055.73 8.16715 1053.66 6.979C1051.59 5.76709 1048.73 5.16113 1045.07 5.16113C1041.05 5.16113 1037.99 5.8265 1035.87 7.15723C1033.76 8.48796 1032.7 10.4722 1032.7 13.1099C1032.7 14.6545 1033.1 15.9377 1033.91 16.9595C1034.74 17.9575 1035.93 18.8011 1037.48 19.4902C1038.93 20.1794 1042 21.0467 1046.71 22.0923C1048.63 22.5438 1050.53 23.019 1052.41 23.5181C1054.29 23.9933 1056.06 24.5993 1057.72 25.3359C1058.7 25.7399 1059.62 26.2389 1060.5 26.833C1061.41 27.4033 1062.19 28.0687 1062.86 28.8291C1063.76 29.8271 1064.46 31.0034 1064.96 32.3579C1065.48 33.7124 1065.74 35.3045 1065.74 37.1343ZM1083.71 43.1938V51H1076.76V43.1938H1083.71ZM1137.04 6.3374V51H1130.27V6.3374H1113.01V0.776855H1154.29V6.3374H1137.04ZM1169.8 27.7241V51H1162.99V0.776855H1169.8V22.021H1196.96V0.776855H1203.77V51H1196.96V27.7241H1169.8ZM1223.73 36.3145L1217.96 51H1210.9L1231.39 0.776855H1239.13L1259.3 51H1252.35L1246.61 36.3145H1223.73ZM1235.17 5.90967C1234.77 7.2404 1234.28 8.72559 1233.71 10.3652C1233.16 11.9811 1232.65 13.4069 1232.18 14.6426L1225.8 31.0034H1244.58L1238.13 14.4287C1237.8 13.597 1237.36 12.4207 1236.81 10.8999C1236.26 9.37907 1235.72 7.71566 1235.17 5.90967ZM1272.49 17.6367V51H1266.43V0.776855H1274.35L1301.51 43.8354C1301.22 39.1541 1301.08 35.7798 1301.08 33.7124V0.776855H1307.21V51H1299.01L1272.14 8.22656C1272.18 9.79492 1272.26 11.3633 1272.35 12.9316C1272.45 14.5 1272.49 16.0684 1272.49 17.6367ZM1327 31.752V51H1320.19V0.776855H1327V25.9419L1351.2 0.776855H1359.22L1337.83 22.5913L1362.07 51H1353.62L1333.55 26.7617L1327 31.752ZM1411.55 30.1836V51H1404.78V30.1836L1385.46 0.776855H1392.94L1408.23 24.6943L1423.45 0.776855H1430.94L1411.55 30.1836ZM1486.83 25.6567C1486.83 31.0272 1485.81 35.661 1483.77 39.5581C1481.75 43.4552 1478.87 46.4613 1475.14 48.5762C1471.41 50.6673 1466.99 51.7129 1461.88 51.7129C1456.75 51.7129 1452.32 50.6673 1448.58 48.5762C1444.88 46.485 1442.01 43.4909 1439.99 39.5938C1438 35.6966 1437 31.0509 1437 25.6567C1437 20.2863 1437.99 15.7 1439.96 11.8979C1441.96 8.0721 1444.81 5.13737 1448.51 3.09375C1452.24 1.05013 1456.72 0.0283203 1461.95 0.0283203C1467.08 0.0283203 1471.5 1.03825 1475.21 3.05811C1478.94 5.07796 1481.81 8.00081 1483.8 11.8267C1485.82 15.6287 1486.83 20.2388 1486.83 25.6567ZM1479.88 25.6567C1479.88 19.4071 1478.31 14.5 1475.18 10.9355C1472.06 7.37109 1467.65 5.58887 1461.95 5.58887C1456.2 5.58887 1451.76 7.34733 1448.62 10.8643C1445.48 14.3812 1443.92 19.312 1443.92 25.6567C1443.92 29.839 1444.63 33.4748 1446.05 36.564C1447.48 39.6294 1449.54 42.0057 1452.22 43.6929C1454.91 45.3563 1458.13 46.188 1461.88 46.188C1467.68 46.188 1472.12 44.4058 1475.21 40.8413C1478.32 37.2531 1479.88 32.1916 1479.88 25.6567ZM1517.42 51.7129C1513.31 51.7129 1509.72 50.9525 1506.65 49.4316C1503.59 47.9108 1501.21 45.7365 1499.52 42.9087C1497.84 40.0809 1496.99 36.6947 1496.99 32.75V0.776855H1503.8V32.1797C1503.8 36.766 1504.96 40.2472 1507.29 42.6235C1509.62 44.9998 1512.98 46.188 1517.38 46.188C1521.9 46.188 1525.4 44.9642 1527.9 42.5166C1530.41 40.0452 1531.67 36.4451 1531.67 31.7163V0.776855H1538.45V32.1084C1538.45 36.1719 1537.58 39.665 1535.84 42.5879C1534.13 45.5107 1531.7 47.7682 1528.54 49.3604C1525.4 50.9287 1521.69 51.7129 1517.42 51.7129ZM1579.23 30.647V51H1572.42V0.776855H1608.1V6.3374H1579.23V25.0151H1607.24V30.647H1579.23ZM1624.85 30.1479V51H1618.05V0.776855H1641.68C1647.33 0.776855 1651.7 2.04818 1654.76 4.59082C1657.85 7.1097 1659.39 10.6266 1659.39 15.1416C1659.39 18.8724 1658.3 22.0091 1656.12 24.5518C1653.95 27.0944 1650.96 28.6984 1647.13 29.3638L1661.39 51H1653.55L1640.5 30.1479H1624.85ZM1652.55 15.2129C1652.55 12.29 1651.55 10.0682 1649.56 8.54736C1647.58 7.00277 1644.73 6.23047 1641 6.23047H1624.85V24.7656H1641.29C1644.88 24.7656 1647.64 23.9339 1649.59 22.2705C1651.56 20.5833 1652.55 18.2308 1652.55 15.2129ZM1719.1 25.6567C1719.1 31.0272 1718.08 35.661 1716.04 39.5581C1714.02 43.4552 1711.14 46.4613 1707.41 48.5762C1703.68 50.6673 1699.26 51.7129 1694.15 51.7129C1689.02 51.7129 1684.59 50.6673 1680.85 48.5762C1677.15 46.485 1674.28 43.4909 1672.26 39.5938C1670.27 35.6966 1669.27 31.0509 1669.27 25.6567C1669.27 20.2863 1670.26 15.7 1672.23 11.8979C1674.22 8.0721 1677.08 5.13737 1680.78 3.09375C1684.51 1.05013 1688.99 0.0283203 1694.22 0.0283203C1699.35 0.0283203 1703.77 1.03825 1707.48 3.05811C1711.21 5.07796 1714.08 8.00081 1716.07 11.8267C1718.09 15.6287 1719.1 20.2388 1719.1 25.6567ZM1712.15 25.6567C1712.15 19.4071 1710.58 14.5 1707.45 10.9355C1704.33 7.37109 1699.92 5.58887 1694.22 5.58887C1688.47 5.58887 1684.03 7.34733 1680.89 10.8643C1677.75 14.3812 1676.19 19.312 1676.19 25.6567C1676.19 29.839 1676.9 33.4748 1678.32 36.564C1679.75 39.6294 1681.81 42.0057 1684.49 43.6929C1687.18 45.3563 1690.4 46.188 1694.15 46.188C1699.95 46.188 1704.39 44.4058 1707.48 40.8413C1710.59 37.2531 1712.15 32.1916 1712.15 25.6567ZM1735.68 17.4941V51H1729.62V0.776855H1738.56L1751.93 35.6016C1752.41 37.0036 1752.86 38.5125 1753.29 40.1284C1753.74 41.7205 1754.03 42.873 1754.18 43.5859C1754.32 42.9443 1754.56 42.0651 1754.89 40.9482C1755.22 39.8076 1755.56 38.7145 1755.89 37.6689C1756.22 36.6234 1756.46 35.9342 1756.6 35.6016L1769.72 0.776855H1778.45V51H1772.32V17.4941C1772.32 15.6406 1772.34 13.8228 1772.39 12.0405C1772.46 10.2583 1772.55 8.51172 1772.64 6.80078C1772.05 8.91569 1771.49 10.8167 1770.97 12.5039C1770.47 14.1673 1769.98 15.5931 1769.5 16.7812L1756.53 51H1751.75L1738.6 16.7812L1735.43 6.80078C1735.48 8.58301 1735.52 10.3652 1735.57 12.1475C1735.64 13.9297 1735.68 15.7119 1735.68 17.4941ZM1815.67 36.3145L1809.89 51H1802.84L1823.33 0.776855H1831.07L1851.24 51H1844.29L1838.55 36.3145H1815.67ZM1827.11 5.90967C1826.71 7.2404 1826.22 8.72559 1825.65 10.3652C1825.1 11.9811 1824.59 13.4069 1824.12 14.6426L1817.74 31.0034H1836.52L1830.07 14.4287C1829.74 13.597 1829.3 12.4207 1828.75 10.8999C1828.2 9.37907 1827.66 7.71566 1827.11 5.90967ZM1890.56 45.4395V51H1858.37V0.776855H1865.18V45.4395H1890.56ZM1932.19 45.4395V51H1900.01V0.776855H1906.81V45.4395H1932.19Z" fill="white"/>
<path d="M-1 32.1084H1934.62V35.7441H-1V32.1084Z" fill="white"/>
</svg>
